<svg width="512" height="512.00002" xmlns="http://www.w3.org/2000/svg">

 <g>
  <title>background</title>
  <rect fill="none" id="canvas_background" height="402" width="582" y="-1" x="-1"/>
 </g>
 <g>
  <title>Layer 1</title>
  <path id="svg_1" fill="#89c8fd" d="m386.10156,294.55469c0,-93.0586 -75.23828,-168.4961 -168.05078,-168.4961s-168.05078,75.4375 -168.05078,168.4961c0,93.05859 75.23828,168.49609 168.05078,168.49609s168.05078,-75.4375 168.05078,-168.49609zm0,0"/>
  <path id="svg_2" fill="#60b6ff" d="m218.05078,126.05859c-8.625,0 -17.10156,0.65235 -25.375,1.91016c80.76953,12.26563 142.67188,82.17578 142.67188,166.58594c0,84.41015 -61.90235,154.32031 -142.67188,166.58594c8.27344,1.25781 16.75,1.91015 25.375,1.91015c92.8125,0 168.05078,-75.4375 168.05078,-168.49609c0,-93.0586 -75.23828,-168.4961 -168.05078,-168.4961zm0,0"/>
  <g id="svg_3" fill="#baeb6c">
   <path id="svg_4" d="m196.20703,191.54297c-25.88672,16.22266 -45.30469,42.17578 -30.74219,71.37891c14.5625,29.19921 46.92188,17.84375 76.85547,13.78906c29.9336,-4.05469 7.28125,88.41406 25.07813,111.125c17.79687,22.71094 67.95312,-22.71094 63.10156,-51.91406c-7.1875,-43.23438 -9.70703,-58.40235 48.53906,-89.22266l0.15625,-0.05859c-19.63281,-66.48047 -79.0625,-115.8086 -150.62109,-120.24219l-0.00781,0.2539s-6.47266,48.66797 -32.35938,64.89063zm0,0"/>
   <path id="svg_5" d="m323.33984,163.23828c0.01172,0.00781 0.02344,0.01953 0.03516,0.02735c-0.01172,-0.00782 -0.02344,-0.01563 -0.03516,-0.02735zm0,0"/>
   <path id="svg_6" d="m343.89063,182.89453c0,0.00391 0.0039,0.00781 0.00781,0.00781c-0.00391,-0.0039 -0.00391,-0.0039 -0.00781,-0.00781zm0,0"/>
   <path id="svg_7" d="m106.41016,370.80078c-7.77344,-11.85547 13.7539,-39.74219 18.60547,-60.83203c4.85546,-21.08984 -24.26954,-19.46875 -33.16797,-26.76953c-8.89844,-7.30078 -21.03516,-38.9336 -29.9336,-46.23438l-1.42187,-1.12109c-6.78125,18.28125 -10.49219,38.0625 -10.49219,58.71094c0,55.69531 26.95313,105.07031 68.49219,135.74609l0.05078,-3.53125s6.47266,-27.57812 -12.13281,-55.96875zm0,0"/>
   <path id="svg_8" d="m330.5,335.92188c-0.03516,-0.21094 -0.07031,-0.41797 -0.10547,-0.62891c-3.21484,12.98828 -7.93359,25.38281 -13.96094,36.98437c9.5586,-11.28125 15.94532,-25.03515 14.06641,-36.35546zm0,0"/>
  </g>
  <path id="svg_9" fill="#96d629" d="m228.57422,126.39844l-0.00781,0.2539s-0.53907,4.0625 -1.92969,10.22266c58.92969,22.30469 102.07422,76.85938 108.01172,142.20313c7.42578,-10.15625 21.00781,-20.00782 44.39062,-32.37891l0.15625,-0.05859c-19.63281,-66.48047 -79.0625,-115.8086 -150.62109,-120.24219zm0,0"/>
  <path id="svg_10" fill="#09a66d" d="m217.82422,512c-11.90234,0 -23.89063,-0.97656 -35.87109,-2.95703c-57.26954,-9.45703 -107.42969,-40.64844 -141.23829,-87.82813c-33.80859,-47.17968 -47.21875,-104.70312 -37.75781,-161.96875c0.6836,-4.14843 4.61328,-6.95312 8.75,-6.26953c4.14844,0.6836 6.95703,4.60157 6.26953,8.75c-8.79297,53.25391 3.67578,106.7461 35.11719,150.6211s78.08203,72.8789 131.34375,81.67578c109.94922,18.16406 214.15234,-56.51172 232.3125,-166.44531c8.79297,-53.25391 -3.67578,-106.7461 -35.11719,-150.6211c-31.4375,-43.875 -78.08203,-72.8789 -131.33984,-81.67578c-4.14844,-0.68359 -6.95703,-4.60156 -6.27344,-8.75c0.6875,-4.14844 4.61328,-6.95312 8.75,-6.26953c57.27344,9.45703 107.4336,40.64844 141.23828,87.82812c33.8086,47.17969 47.21875,104.70313 37.76172,161.96875s-40.65234,107.42188 -87.83594,141.22657c-37.3164,26.73437 -81.09765,40.71484 -126.10937,40.71484zm0,0"/>
  <path id="svg_11" fill="#49cb5c" d="m171.60547,183.88672c-81.26563,-13.78906 -131.67969,-116.10938 -131.67969,-116.10938s81.34766,-79.96484 162.61328,-66.17968c81.26563,13.78515 131.67969,116.10547 131.67969,116.10547s-81.34766,79.96875 -162.61328,66.18359zm0,0"/>
  <path id="svg_12" fill="#07b128" d="m202.53906,1.59766c-15.51953,-2.63282 -31.03515,-1.83985 -45.99218,1.15625c77.87109,17.48437 125.90625,114.94922 125.90625,114.94922s-53.25,52.33984 -116.625,65.02734c1.91015,0.42969 3.83203,0.82422 5.77734,1.15625c81.26562,13.78516 162.61328,-66.18359 162.61328,-66.18359s-50.41406,-102.32032 -131.67969,-116.10547zm0,0"/>
  <path id="svg_13" fill="#09a66d" d="m329.625,109.20703l-79.47266,-13.40625l-74.23437,-95.58594c-5.92188,0.34766 -11.78906,1.10547 -17.57813,2.19141l69.625,89.64844l-59.92578,-10.10938l-51.13281,-66.15625c-4.79687,2.16407 -9.46094,4.46094 -13.95703,6.84375l42.95703,55.57813l-99.08984,-16.71875c-4.44922,3.88672 -6.89063,6.28515 -6.89063,6.28515s1.63281,3.3086 4.76563,8.79688l98.55078,16.625l-54.65625,42.26172c3.51953,3.625 7.21094,7.20703 11.07031,10.68359l64.01563,-49.49609l63.4414,10.70312l-86.28125,66.75391c5.35547,2.5 10.89063,4.66406 16.59766,6.40625l90.11328,-69.71094l79.52344,13.41406c4.60937,-4.01953 7.15234,-6.51171 7.15234,-6.51171s-1.57422,-3.1875 -4.59375,-8.4961zm0,0"/>
  <path id="svg_14" fill="#49cb5c" d="m389.49219,84.56641c21.80078,-51.58594 97.33594,-68.95313 97.33594,-68.95313s40.1914,66.26953 18.39062,117.85547c-21.79687,51.58594 -97.33594,68.95313 -97.33594,68.95313s-40.1914,-66.26954 -18.39062,-117.85547zm0,0"/>
  <path id="svg_15" fill="#07b128" d="m486.82813,15.61328s-17.17579,3.95313 -37.51172,13.67969c10.43359,22.10156 26.97265,66.95703 11.24218,104.17578c-11.40234,26.98438 -37.51171,44.60547 -59.82031,55.27344c4.02735,8.53125 7.14844,13.67969 7.14844,13.67969s75.53516,-17.36719 97.33594,-68.95313c21.79687,-51.58594 -18.39453,-117.85547 -18.39453,-117.85547zm0,0"/>
  <path id="svg_16" fill="#09a66d" d="m511.39453,90.92188l-58.08594,24.36718l38.13672,-91.17578c-2.73047,-5.39062 -4.61719,-8.5 -4.61719,-8.5s-3.59375,0.82813 -9.4414,2.65625l-39.41406,94.22656l-24.44141,-60.13671c-4.14062,3.65234 -8.04687,7.62109 -11.58984,11.92187l27.69531,68.14453l-26.01563,62.19531c2.53907,4.95704 4.26172,7.80079 4.26172,7.80079s3.90625,-0.89844 10.1875,-2.89063l26.86328,-64.21875l66.4375,-27.86719c0.44141,-5.51953 0.41797,-11.05468 0.02344,-16.52343zm0,0"/>
 </g>
</svg>