<svg width="512" height="511.99574" xmlns="http://www.w3.org/2000/svg">

 <g>
  <title>background</title>
  <rect fill="none" id="canvas_background" height="513.99574" width="514" y="-1" x="-1"/>
 </g>
 <g>
  <title>Layer 1</title>
  <path id="svg_1" fill="#fcd7c3" d="m131.78125,493.62109l93.41016,0l-6.15625,-66.91406c-1.64844,-17.89844 -12.53125,-33.63281 -28.69922,-41.48828l-48.20703,-23.41406l-42.84766,-45.28516c-4.07422,-4.21094 -10.58594,-5.22656 -15.55078,-2.11719c-5.54297,3.46875 -7.37109,10.60938 -4.27734,16.28125l13.71875,21.31641l-30.78516,-15.00781l-24.19922,-31.1836l-15.54687,-34.20312c-2.27344,-5 -7.74219,-7.71875 -13.09766,-6.51172c-6.46094,1.45703 -10.39063,8.02344 -8.61719,14.40625l10.59375,38.13672c4.47266,14.10547 21.32422,47.13281 31.85938,57.52344c23.03125,22.71093 64.66797,45.33984 76.74609,58.39843c12.96484,14.01172 11.65625,60.0625 11.65625,60.0625zm0,0"/>
  <path id="svg_2" fill="#f9c7ac" d="m219.03125,426.70703c-1.64453,-17.89844 -12.53125,-33.63281 -28.69922,-41.48828l-48.20312,-23.41406l-42.85157,-45.28516c-4.07031,-4.21094 -10.58203,-5.22656 -15.55078,-2.11719c-5.53906,3.46875 -7.36718,10.60938 -4.27734,16.28125l13.72266,21.31641l32.69531,33.21875s27.92578,33.05859 29.57422,50.96094l5.28515,57.4414l64.46094,0l-6.15625,-66.91406zm0,0"/>
  <path id="svg_3" fill="#0d6e9a" d="m130.41797,465.36719l94.61719,0c5.625,0 10.18359,4.55859 10.18359,10.18359l0,26.26172c0,5.625 -4.55859,10.18359 -10.18359,10.18359l-94.61719,0c-5.625,0 -10.18359,-4.55859 -10.18359,-10.18359l0,-26.26172c0,-5.625 4.55859,-10.18359 10.18359,-10.18359zm0,0"/>
  <path id="svg_4" fill="#fcd7c3" d="m372.88672,493.62109l-93.41016,0l6.15625,-66.91406c1.64844,-17.89844 12.53516,-33.63281 28.70313,-41.48828l48.20312,-23.41406l42.85157,-45.28516c4.07031,-4.21094 10.58203,-5.22656 15.54687,-2.11719c5.54297,3.46875 7.37109,10.60938 4.27734,16.28125l-13.71875,21.31641l30.78516,-15.00781l24.19922,-31.1836l15.54687,-34.20312c2.27344,-5 7.74219,-7.71875 13.09766,-6.51172c6.46484,1.45703 10.39453,8.02344 8.62109,14.40625l-10.59375,38.13672c-4.47656,14.10547 -21.32812,47.13281 -31.86328,57.52344c-23.03125,22.71093 -64.66406,45.33984 -76.74609,58.39843c-12.96484,14.01172 -11.65625,60.0625 -11.65625,60.0625zm0,0"/>
  <path id="svg_5" fill="#f9c7ac" d="m495.125,265.09375l-28.25391,69.80469c-28.8789,39.19531 -135.1289,85.60156 -147.21093,98.65625c-12.96485,14.01562 -11.65625,60.0664 -11.65625,60.0664l64.88281,0s-1.3086,-46.05078 11.65625,-60.0664c12.08203,-13.0586 53.71484,-35.6836 76.74609,-58.39844c10.53516,-10.39063 27.38672,-43.41406 31.86328,-57.51953l10.59375,-38.13672c1.77344,-6.38281 -2.15625,-12.95312 -8.62109,-14.40625zm0,0"/>
  <path id="svg_6" fill="#0d6e9a" d="m374.25,465.36719l-94.61719,0c-5.625,0 -10.18359,4.55859 -10.18359,10.18359l0,26.26172c0,5.625 4.55859,10.18359 10.18359,10.18359l94.61719,0c5.625,0 10.18359,-4.55859 10.18359,-10.18359l0,-26.26172c0,-5.625 -4.55859,-10.18359 -10.18359,-10.18359zm0,0"/>
  <path id="svg_7" fill="#69e6ed" d="m290.66797,4.39063c-91.87109,-21.16797 -183.50391,36.15234 -204.66797,128.02343c-21.16797,91.8711 36.15234,183.50782 128.02344,204.67188c91.87109,21.16406 183.50781,-36.15625 204.67187,-128.02735c21.16407,-91.87109 -36.15625,-183.5039 -128.02734,-204.66796zm0,0"/>
  <path id="svg_8" fill="#33d8dd" d="m290.64844,4.39063c-24.14063,-5.56251 -48.26172,-5.69532 -71.09375,-1.21485c1.92187,0.375 3.84765,0.76953 5.77344,1.21485c91.86718,21.16015 149.1914,112.78906 128.02734,204.66015c-15.59766,67.73047 -69.50391,116.67188 -133.5625,129.24219c89.90234,17.51953 178.16797,-39.29688 198.88672,-129.24219c21.16015,-91.87109 -36.16016,-183.5 -128.03125,-204.66016l0,0.00001zm0,0"/>
  <path id="svg_9" fill="#8fd143" d="m263.16016,226.53906c-19.69922,-5.02343 -33.00391,-68.16406 -75.9961,-57.49218c-13.75781,3.41406 -51.30078,-27.76172 -47.34765,-36.70313c9.58984,-21.70312 -10.04688,-29.27734 0.14453,-42.03516c5.53906,-6.9414 12.41797,-14.60546 21.34765,-7.05078c8.9336,7.5586 5.64844,23.26563 13.64844,24.78516c7.99609,1.51953 13.44922,-17.05469 18.25391,-27.55078c17.28515,-37.79297 66.03515,-25.53906 81.90625,-40.62891c12.0664,-11.47656 16.98437,-25.375 15.03906,-35.58203c-90.91016,-20.66016 -181.44141,35.44922 -203.58594,125.75781c15.26953,25.17188 50.82422,46.26172 62.28516,54.09375c3.75,2.5625 4.90234,7.57813 2.59765,11.48828c-6.53515,11.09375 -15.51562,33.35938 4.50391,49.87891c27.71484,22.87891 27.69531,33.48438 16.42578,57.14844c-2.84765,5.97656 -4.98437,11 -6.61328,15.2539c12.23438,7.19141 25.54297,12.95313 39.75781,16.9961c10.77344,-15.86328 30.08594,-29.47657 39.69922,-33.73438c16.56641,-7.33984 49.48438,-5.18359 57.56641,-40.27344c3.83594,-16.67578 -19.92969,-29.32812 -39.63281,-34.35156zm0,0"/>
  <path id="svg_10" fill="#7bb72e" d="m225.32422,4.39063c21.46875,4.9414 41.04297,13.73437 58.17969,25.48046c5.85937,-8.92187 8.05859,-18.21484 6.65234,-25.58984c-23.97266,-5.44531 -47.91797,-5.55078 -70.59375,-1.10156c1.92188,0.37109 3.84375,0.76562 5.76172,1.21094zm0,0"/>
  <path id="svg_11" fill="#8fd143" d="m418.67969,209.05078c17.21094,-74.72265 -17.5,-149.28515 -80.48828,-185.90234c-10.60547,26.91015 21.94922,37.98047 18.49609,46.84375c-1.42969,3.66406 -0.53125,8.32812 0.96484,12.46484c2.22657,6.16016 0.45313,13.0586 -4.63671,17.1836c-8.75782,7.10546 -20.62891,18.68359 -22.9375,30.72656c-5.66407,29.5664 4.44921,41.95312 15.41796,51.0039c16.98829,14.02735 29.85157,9.11329 36.77735,19.41016c14.99609,22.30859 -54.52344,81.375 -31.12891,109.13672c32.93359,-23.36328 57.75781,-58.42188 67.53516,-100.86719zm0,0"/>
  <path id="svg_12" fill="#7bb72e" d="m418.67969,209.05078c17.21094,-74.72265 -17.5,-149.28515 -80.48828,-185.90234c-10.60547,26.91015 21.94922,37.98047 18.49609,46.84375c-1.42969,3.66406 -0.53125,8.32812 0.96484,12.46484c2.22657,6.16016 0.45313,13.0586 -4.63671,17.1836c-2.45313,1.98828 -5.14844,4.33984 -7.8125,6.94531c10.3125,25.36328 14.62109,53.40234 11.58203,81.98047c11.42578,5.35156 20.19531,4.33984 25.48828,12.21484c14.99609,22.30469 -54.52344,81.375 -31.12891,109.13672c32.9336,-23.35938 57.75781,-58.42188 67.53516,-100.86719zm0,0"/>
 </g>
</svg>