<svg id="svg" version="1.1" xmlns="http://www.w3.org/2000/svg" xmlns:xlink="http://www.w3.org/1999/xlink" width="400" height="109.53320184089415" viewBox="0, 0, 400,109.53320184089415"><g id="svgg"><path id="path0" d="M40.205 5.645 C 39.761 5.731,37.084 8.322,25.664 19.721 L 11.667 33.692 11.667 54.762 L 11.667 75.832 18.750 82.912 C 22.646 86.806,25.833 90.069,25.833 90.163 C 25.833 90.256,25.910 90.333,26.005 90.333 C 26.099 90.333,29.252 93.407,33.012 97.164 L 39.848 103.995 60.831 103.999 L 81.815 104.002 88.659 97.168 C 92.424 93.409,95.578 90.333,95.669 90.333 C 95.759 90.333,95.833 90.257,95.833 90.164 C 95.833 89.782,109.862 75.983,110.073 76.158 C 110.486 76.501,110.500 75.806,110.500 54.986 C 110.500 33.746,110.491 33.283,110.082 33.440 C 109.946 33.492,104.406 28.074,95.849 19.519 L 81.840 5.512 61.295 5.527 C 49.995 5.534,40.505 5.588,40.205 5.645 M49.826 7.905 C 55.913 8.816,65.236 9.068,69.743 8.443 C 71.970 8.134,75.565 8.084,76.583 8.347 C 76.950 8.441,77.534 8.591,77.881 8.678 C 78.227 8.766,78.640 8.907,78.797 8.992 C 78.955 9.077,79.496 9.340,80.000 9.576 C 82.004 10.516,83.933 12.098,85.097 13.756 C 86.431 15.656,86.667 16.007,86.667 16.093 C 86.667 16.871,93.134 23.950,95.661 25.938 C 96.345 26.476,97.020 27.016,97.161 27.138 C 97.859 27.743,100.495 29.577,101.753 30.333 C 104.915 32.234,107.031 34.985,108.163 38.667 C 108.580 40.024,108.632 43.891,108.259 45.830 C 107.604 49.236,107.419 51.685,107.421 56.917 C 107.424 62.165,107.506 63.196,108.262 67.417 C 108.542 68.986,108.559 70.131,108.316 71.167 C 108.219 71.579,108.077 72.254,108.001 72.667 C 107.405 75.875,105.578 78.477,101.914 81.336 C 95.890 86.037,91.918 90.026,87.210 96.105 C 84.901 99.087,83.882 99.926,80.590 101.552 C 78.608 102.531,75.790 102.663,70.917 102.005 C 67.158 101.498,65.910 101.417,61.917 101.417 C 59.533 101.417,56.833 101.507,55.917 101.618 C 55.000 101.729,53.612 101.900,52.833 101.999 C 52.054 102.098,50.774 102.259,49.988 102.358 C 45.068 102.978,39.965 100.525,36.906 96.069 C 35.546 94.088,34.945 93.248,34.829 93.167 C 34.764 93.121,34.246 92.498,33.680 91.783 C 33.113 91.068,32.540 90.441,32.408 90.390 C 32.275 90.339,32.167 90.228,32.167 90.142 C 32.167 89.433,25.218 83.484,21.583 81.081 C 17.558 78.420,15.911 76.605,14.550 73.333 C 14.340 72.829,14.168 72.318,14.167 72.198 C 14.167 72.078,14.046 71.609,13.898 71.157 C 13.589 70.212,13.649 65.723,14.004 63.167 C 14.301 61.033,14.290 49.755,13.989 47.333 C 13.448 42.988,13.698 38.518,14.595 36.500 C 15.757 33.889,18.153 30.977,19.705 30.290 C 19.959 30.177,20.167 30.038,20.167 29.980 C 20.167 29.921,20.715 29.461,21.385 28.957 C 22.054 28.453,22.711 27.936,22.843 27.808 C 22.975 27.680,23.683 27.090,24.416 26.496 C 27.590 23.926,32.140 19.074,35.639 14.530 C 37.362 12.293,38.543 11.060,39.757 10.233 C 40.571 9.678,42.516 8.669,42.773 8.667 C 42.877 8.667,43.177 8.555,43.439 8.418 C 43.702 8.281,44.104 8.165,44.333 8.160 C 44.563 8.156,45.125 8.048,45.583 7.921 C 46.675 7.617,47.877 7.613,49.826 7.905 M46.250 8.836 C 42.357 9.188,38.936 11.412,36.255 15.333 C 35.911 15.838,35.543 16.325,35.439 16.417 C 35.335 16.508,34.803 17.146,34.256 17.833 C 31.747 20.989,26.838 25.856,23.417 28.581 C 22.958 28.946,22.433 29.385,22.250 29.557 C 22.067 29.729,21.617 30.060,21.250 30.294 C 16.346 33.417,14.129 37.904,14.640 43.667 C 15.410 52.331,15.505 56.075,15.089 61.417 C 14.575 68.040,14.556 68.561,14.771 70.184 C 15.319 74.324,17.173 76.943,21.751 80.046 C 26.103 82.995,28.174 84.689,31.402 87.942 C 34.115 90.675,35.215 91.952,36.725 94.125 C 38.275 96.354,38.591 96.780,39.151 97.389 C 40.490 98.843,42.411 100.053,44.667 100.862 C 45.925 101.313,51.423 101.432,52.759 101.038 C 55.082 100.351,68.602 100.312,70.947 100.985 C 72.822 101.523,78.414 101.541,79.075 101.012 C 79.171 100.935,79.494 100.820,79.791 100.756 C 80.278 100.652,82.284 99.674,82.737 99.319 C 84.176 98.193,85.927 96.350,86.884 94.954 C 87.293 94.358,89.119 92.114,89.954 91.183 C 90.250 90.853,90.494 90.527,90.496 90.458 C 90.498 90.390,90.612 90.333,90.750 90.333 C 90.888 90.333,91.000 90.235,91.000 90.115 C 91.000 89.603,97.036 83.933,100.233 81.442 C 106.563 76.510,108.297 72.639,107.099 66.116 C 106.097 60.659,106.091 53.221,107.083 47.167 C 108.355 39.404,106.844 34.852,101.897 31.540 C 100.416 30.548,99.770 30.167,99.569 30.167 C 99.439 30.167,99.333 30.103,99.333 30.024 C 99.333 29.946,98.865 29.558,98.292 29.163 C 95.181 27.016,89.906 22.117,88.156 19.750 C 87.749 19.200,87.324 18.652,87.212 18.533 C 87.099 18.414,86.372 17.364,85.597 16.200 C 82.006 10.811,77.758 8.543,72.379 9.143 C 64.317 10.042,57.468 10.021,51.167 9.079 C 49.136 8.775,47.710 8.704,46.250 8.836 M40.088 22.734 C 40.269 22.862,40.942 23.694,41.583 24.581 C 43.841 27.705,44.001 27.872,45.089 28.261 C 45.636 28.457,46.294 28.703,46.553 28.808 C 47.331 29.126,47.843 29.032,48.569 28.437 C 48.958 28.118,49.687 27.753,50.253 27.592 C 52.433 26.974,53.518 26.690,55.083 26.324 C 55.450 26.239,56.125 26.060,56.583 25.927 C 57.042 25.795,57.904 25.566,58.500 25.418 C 59.096 25.271,59.941 25.039,60.377 24.901 C 61.092 24.676,61.268 24.678,62.127 24.921 C 63.679 25.358,64.702 25.636,65.500 25.835 C 67.668 26.377,69.875 26.934,70.833 27.180 C 72.293 27.556,73.382 28.010,74.003 28.502 C 74.704 29.058,75.344 29.134,76.203 28.765 C 76.504 28.635,77.125 28.398,77.583 28.237 C 78.569 27.891,78.957 27.498,80.833 24.949 C 82.769 22.320,82.617 22.351,86.500 23.759 C 86.821 23.875,87.983 24.254,89.083 24.601 C 91.559 25.382,91.608 25.425,92.859 27.989 C 94.682 31.724,94.714 31.812,94.521 32.575 C 94.427 32.946,94.189 33.962,93.991 34.833 C 93.793 35.704,93.527 36.749,93.399 37.155 C 93.271 37.561,93.167 38.070,93.167 38.286 C 93.167 39.001,92.540 39.893,90.675 41.832 C 88.479 44.115,88.510 43.830,90.160 46.573 C 91.778 49.262,91.803 49.324,92.088 51.500 C 92.328 53.333,92.514 54.587,92.915 57.083 C 93.303 59.503,93.500 60.806,93.761 62.667 C 93.896 63.629,94.076 64.792,94.160 65.250 C 94.601 67.647,94.796 67.080,90.503 75.917 C 89.880 77.200,89.325 78.362,89.269 78.500 C 89.214 78.637,89.098 78.862,89.012 79.000 C 88.925 79.137,88.681 79.636,88.469 80.107 C 88.042 81.056,87.582 81.415,86.583 81.578 C 86.217 81.638,85.467 81.788,84.917 81.911 C 84.367 82.035,83.354 82.253,82.667 82.396 C 79.269 83.102,75.963 83.808,75.000 84.033 C 74.587 84.130,73.884 84.272,73.437 84.348 C 72.376 84.529,72.151 84.757,71.329 86.476 C 70.951 87.268,70.422 88.349,70.154 88.877 C 69.886 89.406,69.667 89.919,69.667 90.017 C 69.667 90.746,68.332 91.002,66.723 90.583 C 66.195 90.446,65.419 90.333,64.998 90.333 C 64.578 90.333,64.154 90.254,64.056 90.156 C 63.538 89.638,59.039 89.650,58.861 90.170 C 58.831 90.260,58.415 90.333,57.938 90.333 C 57.461 90.333,56.638 90.446,56.110 90.583 C 54.039 91.123,53.741 90.985,52.843 89.069 C 50.730 84.562,50.842 84.692,48.750 84.347 C 48.292 84.271,47.579 84.126,47.167 84.024 C 46.754 83.923,45.817 83.718,45.083 83.569 C 44.350 83.420,43.171 83.157,42.463 82.983 C 41.755 82.809,41.019 82.667,40.827 82.667 C 40.636 82.667,40.128 82.563,39.698 82.436 C 38.980 82.224,38.449 82.107,36.083 81.638 C 34.763 81.375,35.089 81.913,30.630 72.667 C 29.989 71.337,29.202 69.708,28.881 69.047 C 28.232 67.706,28.218 67.162,28.751 64.000 C 29.043 62.273,29.493 59.165,30.056 54.994 C 30.199 53.936,30.393 52.736,30.487 52.327 C 30.581 51.918,30.660 51.267,30.663 50.881 C 30.669 49.860,31.081 48.788,32.144 47.031 C 32.661 46.177,33.305 45.070,33.575 44.572 L 34.067 43.667 31.967 41.542 C 30.273 39.828,29.836 39.288,29.708 38.750 C 29.622 38.383,29.455 37.708,29.337 37.250 C 29.220 36.792,29.064 36.065,28.991 35.636 C 28.917 35.207,28.777 34.705,28.678 34.522 C 28.580 34.339,28.497 33.977,28.493 33.719 C 28.489 33.461,28.382 32.960,28.256 32.606 C 28.022 31.949,28.461 30.167,28.856 30.167 C 28.935 30.167,29.000 30.066,29.000 29.942 C 29.000 29.573,30.937 25.772,31.273 25.481 C 31.444 25.334,32.408 24.939,33.417 24.604 C 34.425 24.268,35.475 23.914,35.750 23.816 C 36.025 23.718,36.475 23.576,36.750 23.500 C 37.244 23.364,37.865 23.153,39.000 22.733 C 39.742 22.458,39.701 22.458,40.088 22.734 M37.083 25.442 C 36.350 25.678,35.621 25.937,35.464 26.017 C 35.307 26.097,34.894 26.234,34.547 26.322 C 34.200 26.409,33.566 26.605,33.137 26.756 L 32.358 27.031 31.119 29.516 C 29.755 32.250,29.800 31.972,30.358 34.250 C 30.532 34.960,30.852 36.342,31.185 37.820 C 31.374 38.658,34.285 42.000,34.825 42.000 C 35.052 42.000,35.447 41.430,36.670 39.333 C 38.206 36.702,38.312 36.569,39.884 35.334 C 41.521 34.048,41.530 34.018,40.611 32.996 C 39.769 32.059,39.594 31.475,39.417 29.000 C 39.327 27.747,39.160 26.564,38.907 25.375 C 38.808 24.909,38.725 24.912,37.083 25.442 M83.931 25.375 C 83.631 26.875,83.462 28.086,83.334 29.664 C 83.168 31.707,83.110 31.857,81.974 33.224 L 81.165 34.197 82.804 35.493 C 83.874 36.339,84.557 37.014,84.770 37.436 C 84.949 37.792,85.301 38.403,85.551 38.794 C 86.125 39.689,86.947 41.134,87.161 41.625 C 87.451 42.289,87.924 42.047,89.737 40.307 C 91.057 39.040,91.500 38.509,91.500 38.197 C 91.500 37.967,91.610 37.398,91.744 36.931 C 92.035 35.917,92.597 33.495,92.742 32.633 C 92.846 32.015,90.845 27.465,90.285 27.046 C 90.070 26.884,84.432 25.000,84.165 25.000 C 84.078 25.000,83.973 25.169,83.931 25.375 M60.167 27.021 C 59.938 27.113,59.262 27.301,58.667 27.440 C 58.071 27.579,57.171 27.796,56.667 27.923 C 56.163 28.050,55.413 28.237,55.000 28.338 C 54.587 28.440,53.902 28.630,53.478 28.761 C 53.053 28.893,52.597 29.000,52.464 29.000 C 51.947 29.000,49.970 29.718,49.886 29.936 C 49.837 30.063,49.712 30.168,49.607 30.169 C 49.443 30.172,46.987 32.041,44.940 33.722 C 44.586 34.012,43.246 35.075,41.962 36.083 L 39.627 37.917 37.744 41.083 C 36.708 42.825,35.658 44.622,35.411 45.076 C 35.164 45.530,34.765 46.205,34.526 46.576 C 33.948 47.470,33.717 47.849,33.504 48.250 C 33.407 48.433,33.137 48.921,32.903 49.333 C 32.617 49.840,32.429 50.516,32.325 51.417 C 32.240 52.150,32.094 53.012,32.002 53.332 C 31.909 53.652,31.833 54.177,31.833 54.499 C 31.834 54.820,31.726 55.683,31.594 56.417 C 31.462 57.150,31.198 58.837,31.007 60.167 C 30.817 61.496,30.552 63.221,30.420 64.000 C 29.953 66.748,29.942 67.440,30.350 68.303 C 30.915 69.496,34.607 77.087,35.310 78.500 C 36.002 79.889,36.010 79.894,38.667 80.416 C 39.262 80.533,40.087 80.708,40.500 80.807 C 40.912 80.905,41.850 81.111,42.583 81.265 C 43.317 81.419,44.354 81.647,44.888 81.772 C 47.738 82.440,47.755 82.459,40.556 77.000 C 37.111 74.387,33.926 71.906,33.479 71.485 L 32.667 70.720 32.667 66.451 C 32.667 61.739,32.734 61.333,33.523 61.333 C 34.058 61.333,34.282 61.619,34.834 63.000 C 35.036 63.504,35.413 64.442,35.673 65.083 C 35.933 65.725,36.193 66.419,36.251 66.625 C 36.342 66.952,37.283 67.833,37.541 67.833 C 37.639 67.833,40.564 69.179,44.021 70.816 C 45.953 71.730,46.219 71.172,44.542 69.722 C 43.923 69.188,43.379 68.712,43.333 68.667 C 43.112 68.445,40.115 65.799,39.086 64.916 C 36.465 62.667,36.667 63.446,36.667 55.582 L 36.667 49.019 37.051 48.571 C 37.904 47.580,38.305 48.164,39.632 52.333 C 41.960 59.646,41.824 59.295,42.481 59.685 C 44.272 60.748,48.909 63.012,49.205 62.968 C 49.591 62.910,49.538 62.995,50.555 60.833 C 51.865 58.049,52.500 56.662,52.500 56.580 C 52.500 56.438,50.904 56.495,49.983 56.670 C 49.490 56.763,48.298 56.909,47.335 56.993 C 45.086 57.190,44.998 57.138,44.599 55.392 C 44.434 54.672,44.195 53.666,44.066 53.156 C 43.938 52.646,43.833 52.027,43.833 51.781 C 43.833 51.089,43.335 50.730,42.065 50.509 C 39.978 50.146,39.985 49.957,42.253 45.430 C 44.126 41.691,44.358 41.333,44.909 41.333 C 46.034 41.333,45.905 42.129,44.234 45.474 C 42.683 48.581,42.654 48.736,43.611 48.885 C 43.962 48.940,44.925 49.098,45.750 49.237 C 46.575 49.376,47.775 49.571,48.417 49.672 C 49.686 49.871,50.908 50.111,51.853 50.349 C 52.501 50.512,52.601 50.711,53.410 53.417 C 53.575 53.967,53.850 54.848,54.021 55.376 C 54.432 56.637,54.430 56.654,53.731 58.138 C 53.400 58.841,52.846 60.017,52.500 60.750 C 52.155 61.483,51.519 62.833,51.089 63.750 C 50.658 64.667,50.093 65.867,49.832 66.417 C 49.571 66.967,49.095 67.979,48.775 68.667 C 48.454 69.354,47.796 70.742,47.312 71.750 L 46.432 73.583 46.367 76.052 C 46.283 79.256,46.225 79.103,48.042 80.489 C 48.890 81.135,49.674 81.740,49.786 81.833 C 51.003 82.849,51.582 82.967,52.667 82.417 C 52.896 82.301,53.496 82.037,54.000 81.830 C 54.504 81.624,55.160 81.352,55.458 81.227 C 55.756 81.102,56.244 80.898,56.542 80.773 C 56.840 80.648,57.496 80.373,58.000 80.163 C 60.825 78.983,60.786 79.069,59.083 77.736 C 58.625 77.377,58.212 77.040,58.167 76.986 C 58.121 76.933,57.478 76.408,56.738 75.820 C 51.557 71.702,51.643 71.809,52.625 70.717 C 53.112 70.176,55.514 67.556,56.218 66.798 C 56.885 66.082,57.316 66.063,58.172 66.714 C 59.515 67.734,61.144 68.833,61.313 68.833 C 61.404 68.833,62.252 68.281,63.198 67.605 C 65.605 65.885,65.459 65.894,66.889 67.360 C 71.159 71.738,71.124 71.654,69.292 73.117 C 68.627 73.648,68.046 74.126,68.000 74.180 C 67.920 74.273,66.605 75.330,63.794 77.561 C 63.086 78.123,62.504 78.708,62.503 78.860 C 62.500 79.099,63.677 79.833,64.062 79.833 C 64.175 79.833,64.968 80.165,66.250 80.747 C 66.525 80.872,67.162 81.134,67.667 81.330 C 68.171 81.525,68.733 81.751,68.917 81.833 C 71.634 83.045,71.484 83.062,73.836 81.282 C 74.889 80.486,75.956 79.642,76.208 79.407 L 76.667 78.979 76.667 76.549 L 76.667 74.120 76.018 72.747 C 75.660 71.992,75.285 71.323,75.184 71.261 C 75.083 71.198,75.000 71.034,75.000 70.896 C 75.000 70.757,74.671 69.956,74.269 69.114 C 73.127 66.724,71.919 64.171,71.455 63.167 C 70.353 60.784,69.820 59.637,69.186 58.288 C 68.365 56.540,68.374 56.722,69.016 54.705 C 69.300 53.813,69.684 52.596,69.869 52.000 C 70.392 50.317,70.087 50.462,74.917 49.596 C 75.742 49.448,76.792 49.284,77.250 49.232 C 77.708 49.179,78.308 49.075,78.583 49.000 C 78.858 48.925,79.290 48.818,79.542 48.762 C 80.168 48.623,80.180 48.665,78.576 45.446 C 77.028 42.341,76.899 41.765,77.663 41.386 C 78.206 41.117,78.633 41.502,79.239 42.805 C 79.481 43.325,79.749 43.862,79.835 44.000 C 79.921 44.137,80.397 45.075,80.893 46.083 C 81.389 47.092,81.915 48.142,82.063 48.417 C 82.680 49.565,82.369 50.254,81.158 50.421 C 79.444 50.657,79.083 50.901,78.876 51.960 C 78.077 56.046,77.848 56.836,77.416 57.000 C 77.041 57.143,74.489 56.944,73.314 56.681 C 72.424 56.481,70.559 56.386,70.413 56.532 C 70.311 56.633,70.670 57.466,72.161 60.583 C 72.599 61.500,73.000 62.376,73.053 62.531 C 73.331 63.353,73.500 63.302,77.738 61.109 C 78.740 60.591,79.659 60.167,79.780 60.167 C 79.901 60.167,80.000 60.101,80.000 60.020 C 80.000 59.940,80.206 59.788,80.458 59.684 C 80.861 59.517,80.995 59.246,81.559 57.455 C 81.912 56.334,82.306 55.170,82.434 54.869 C 82.562 54.568,82.667 54.205,82.667 54.061 C 82.667 53.918,82.771 53.564,82.899 53.275 C 83.027 52.986,83.300 52.188,83.506 51.500 C 84.386 48.558,84.770 48.020,85.651 48.492 C 85.997 48.677,86.000 48.744,86.000 55.732 L 86.000 62.785 85.612 63.184 C 85.028 63.786,83.721 64.973,82.417 66.087 C 81.775 66.635,81.212 67.123,81.167 67.172 C 81.121 67.221,80.202 68.034,79.125 68.980 C 78.048 69.926,77.167 70.808,77.167 70.939 C 77.167 71.377,77.645 71.368,78.618 70.910 C 79.149 70.661,80.258 70.137,81.083 69.746 C 83.478 68.611,85.189 67.833,85.291 67.833 C 85.501 67.833,86.500 66.969,86.506 66.783 C 86.509 66.673,86.656 66.283,86.833 65.917 C 87.010 65.550,87.158 65.162,87.161 65.055 C 87.164 64.948,87.274 64.648,87.406 64.389 C 87.538 64.129,87.810 63.506,88.010 63.004 C 88.525 61.716,88.811 61.333,89.260 61.333 C 90.098 61.333,90.167 61.713,90.167 66.373 L 90.167 70.672 89.625 71.238 C 89.327 71.550,86.346 73.888,83.000 76.435 C 75.985 81.774,75.236 82.440,76.879 81.881 C 77.175 81.781,77.717 81.652,78.083 81.596 C 78.450 81.540,79.237 81.388,79.833 81.258 C 80.429 81.129,81.479 80.909,82.167 80.769 C 82.854 80.630,84.167 80.344,85.083 80.133 L 86.750 79.750 87.445 78.333 C 87.828 77.554,88.792 75.567,89.588 73.917 C 90.384 72.267,91.412 70.142,91.871 69.194 C 92.643 67.601,92.698 67.408,92.600 66.611 C 92.435 65.273,92.014 62.554,91.744 61.083 C 91.609 60.350,91.499 59.508,91.499 59.213 C 91.500 58.918,91.391 58.130,91.258 57.463 C 91.124 56.796,90.934 55.650,90.834 54.917 C 90.734 54.183,90.550 52.833,90.425 51.917 C 90.205 50.304,89.972 49.579,89.370 48.634 C 89.212 48.387,88.183 46.678,87.083 44.837 C 85.983 42.996,84.953 41.286,84.794 41.036 C 84.635 40.787,84.426 40.433,84.329 40.250 C 83.438 38.566,82.783 37.816,80.968 36.400 C 79.931 35.591,79.046 34.884,79.000 34.829 C 78.954 34.773,78.204 34.172,77.333 33.493 C 76.462 32.814,75.172 31.788,74.465 31.213 C 73.758 30.637,73.110 30.167,73.024 30.167 C 72.939 30.167,72.833 30.073,72.789 29.958 C 72.683 29.682,70.677 29.050,68.167 28.502 C 67.330 28.319,66.036 27.993,65.167 27.746 C 64.754 27.629,64.154 27.481,63.833 27.418 C 63.512 27.355,62.929 27.197,62.536 27.068 C 61.716 26.799,60.770 26.780,60.167 27.021 M80.510 28.506 C 79.944 29.264,79.642 29.521,79.224 29.599 C 78.924 29.655,78.592 29.806,78.486 29.934 C 78.379 30.062,78.120 30.167,77.910 30.167 C 76.606 30.167,76.724 30.739,78.264 31.889 C 79.773 33.017,79.604 32.998,80.452 32.125 C 81.239 31.315,81.461 30.640,81.534 28.851 C 81.596 27.304,81.445 27.254,80.510 28.506 M41.167 28.803 C 41.167 30.446,41.528 31.502,42.341 32.237 L 43.013 32.844 44.265 31.821 C 45.627 30.708,45.788 30.286,44.886 30.199 C 44.596 30.170,44.268 30.039,44.159 29.907 C 44.049 29.775,43.846 29.667,43.708 29.667 C 43.273 29.667,42.434 29.050,41.916 28.349 C 41.242 27.438,41.167 27.484,41.167 28.803 M58.901 33.667 C 59.677 34.125,60.382 34.500,60.469 34.500 C 60.555 34.500,60.719 34.612,60.833 34.750 C 61.156 35.139,61.357 35.073,63.333 33.917 C 65.623 32.578,65.742 32.574,67.144 33.798 C 67.752 34.328,68.662 35.096,69.167 35.504 C 69.671 35.912,70.121 36.291,70.167 36.348 C 70.212 36.404,70.962 37.038,71.833 37.757 C 74.198 39.708,74.475 40.181,73.595 40.758 C 73.043 41.120,72.772 40.965,70.335 38.895 C 70.105 38.699,69.354 38.077,68.667 37.511 C 67.979 36.946,67.229 36.313,67.000 36.106 C 66.771 35.898,66.341 35.552,66.045 35.335 L 65.507 34.942 64.581 35.429 C 62.319 36.620,62.167 36.769,62.167 37.805 C 62.167 39.047,61.948 39.500,61.347 39.500 C 60.655 39.500,60.334 38.975,60.331 37.838 C 60.328 36.687,60.255 36.577,59.058 35.896 C 57.186 34.831,57.125 34.827,56.149 35.708 C 55.819 36.006,54.812 36.850,53.913 37.583 C 53.013 38.317,52.196 38.994,52.097 39.089 C 50.418 40.696,49.498 41.164,49.000 40.667 C 48.279 39.945,48.533 39.601,51.667 37.064 C 51.987 36.804,52.737 36.169,53.333 35.653 C 57.009 32.467,56.922 32.498,58.901 33.667 M58.209 40.523 C 58.403 40.627,58.717 40.859,58.906 41.039 C 59.095 41.220,59.796 41.816,60.464 42.366 C 61.884 43.533,61.601 43.597,63.916 41.579 C 65.680 40.041,65.857 40.026,67.917 41.247 C 68.650 41.681,69.400 42.103,69.583 42.185 C 69.767 42.266,70.029 42.406,70.167 42.496 C 70.624 42.794,73.078 44.201,73.417 44.359 C 74.998 45.096,75.588 45.943,74.911 46.505 C 74.348 46.972,72.598 46.235,69.333 44.157 C 69.196 44.069,68.971 43.947,68.833 43.885 C 68.696 43.822,68.033 43.448,67.361 43.052 C 66.689 42.657,66.077 42.333,66.001 42.333 C 65.826 42.333,63.952 43.868,63.119 44.694 L 62.488 45.320 62.536 46.951 C 62.595 48.992,62.700 49.034,64.719 47.842 C 66.202 46.966,66.594 46.859,67.028 47.208 C 67.781 47.815,67.252 48.641,65.564 49.495 C 65.116 49.721,64.136 50.265,63.386 50.703 C 61.525 51.790,61.799 51.845,58.000 49.626 C 55.924 48.413,55.409 47.661,56.322 47.173 C 56.864 46.882,57.119 46.964,58.881 47.996 C 60.878 49.164,60.804 49.209,60.822 46.818 L 60.833 45.220 60.208 44.647 C 59.134 43.661,57.489 42.333,57.342 42.333 C 57.264 42.333,56.237 42.904,55.059 43.602 C 53.881 44.300,52.767 44.939,52.583 45.021 C 52.400 45.104,52.025 45.317,51.750 45.496 C 49.521 46.940,48.167 47.099,48.167 45.916 C 48.167 45.527,49.581 44.454,50.833 43.892 C 50.971 43.831,51.960 43.267,53.031 42.640 C 54.102 42.013,55.017 41.500,55.064 41.500 C 55.111 41.500,55.585 41.238,56.117 40.917 C 57.134 40.304,57.626 40.211,58.209 40.523 M45.721 51.792 C 46.255 55.530,45.992 55.326,49.667 54.848 C 51.982 54.547,51.825 54.647,51.580 53.627 C 51.160 51.878,50.877 51.685,50.037 52.575 C 49.088 53.581,47.167 53.178,47.167 51.972 C 47.167 51.536,46.695 51.167,46.137 51.167 C 45.648 51.167,45.635 51.187,45.721 51.792 M76.122 51.458 C 75.978 51.619,75.807 51.958,75.744 52.212 C 75.465 53.330,73.825 53.556,73.049 52.583 C 72.211 51.533,71.353 52.074,71.280 53.699 C 71.241 54.567,71.306 54.595,73.826 54.821 C 76.379 55.049,76.952 54.426,76.997 51.375 C 77.001 51.067,76.425 51.122,76.122 51.458 M61.935 54.125 C 62.215 54.495,62.270 64.329,61.994 64.844 C 61.739 65.320,60.939 65.270,60.603 64.756 C 60.180 64.111,60.200 54.829,60.625 54.245 C 60.970 53.771,61.620 53.711,61.935 54.125 M38.500 58.795 L 38.500 61.625 39.042 62.198 C 39.486 62.668,42.652 65.495,45.679 68.125 C 46.591 68.917,46.739 68.848,47.469 67.292 C 48.751 64.560,48.897 64.930,45.942 63.414 C 41.537 61.153,40.776 60.724,40.540 60.368 C 40.279 59.976,39.336 57.309,39.330 56.950 C 39.329 56.840,39.141 56.573,38.914 56.358 L 38.500 55.965 38.500 58.795 M83.411 57.113 C 83.356 57.372,83.207 57.883,83.081 58.250 C 82.955 58.617,82.805 59.180,82.748 59.502 C 82.555 60.592,82.654 60.525,76.786 63.570 C 74.275 64.874,74.411 64.775,74.471 65.253 C 74.501 65.489,74.783 66.202,75.096 66.837 C 75.410 67.471,75.667 68.056,75.667 68.136 C 75.667 68.216,75.817 68.417,76.000 68.583 C 76.362 68.911,76.328 68.926,77.331 68.000 C 77.696 67.664,79.895 65.713,80.370 65.304 C 81.171 64.616,83.085 62.897,83.536 62.460 L 84.008 62.003 83.963 59.390 C 83.918 56.841,83.680 55.861,83.411 57.113 M34.617 67.939 C 34.358 68.198,34.494 69.995,34.792 70.253 C 35.576 70.933,36.455 71.638,37.177 72.167 C 37.897 72.694,40.003 74.295,40.417 74.629 C 40.508 74.703,40.996 75.080,41.500 75.467 C 42.004 75.853,42.492 76.227,42.583 76.298 C 42.675 76.368,43.065 76.677,43.450 76.984 C 44.576 77.882,44.685 77.720,44.630 75.221 L 44.583 73.103 43.833 72.727 C 43.095 72.357,40.539 71.148,38.250 70.086 C 37.608 69.789,36.727 69.378,36.292 69.175 C 35.857 68.971,35.329 68.583,35.117 68.313 C 34.906 68.043,34.681 67.875,34.617 67.939 M87.630 68.404 C 87.473 68.621,86.985 68.966,86.547 69.172 C 86.109 69.377,85.206 69.797,84.542 70.106 C 79.027 72.665,78.370 72.997,78.263 73.277 C 78.136 73.607,78.143 76.645,78.272 77.125 C 78.422 77.684,78.606 77.605,80.333 76.238 C 81.204 75.549,82.250 74.745,82.657 74.451 C 83.064 74.157,83.664 73.686,83.990 73.403 C 84.316 73.121,84.921 72.660,85.333 72.379 C 85.746 72.098,86.308 71.669,86.583 71.426 C 86.858 71.182,87.283 70.862,87.527 70.714 C 88.236 70.285,88.502 69.396,88.228 68.375 C 88.102 67.904,87.990 67.910,87.630 68.404 M55.855 69.924 C 54.124 71.744,53.934 71.280,57.583 74.165 C 58.683 75.035,59.686 75.844,59.811 75.964 C 60.210 76.345,60.414 76.085,60.513 75.070 C 60.707 73.075,62.313 72.589,62.330 74.521 C 62.345 76.389,62.393 76.381,65.317 74.042 C 68.720 71.319,68.571 71.695,66.940 69.950 C 65.303 68.197,65.448 68.206,63.404 69.746 C 61.329 71.309,61.330 71.309,59.301 69.750 C 57.301 68.214,57.491 68.204,55.855 69.924 M50.577 76.493 C 51.239 77.224,50.302 78.307,49.418 77.834 C 48.868 77.540,48.755 77.107,49.094 76.591 C 49.434 76.071,50.152 76.024,50.577 76.493 M55.071 76.429 C 55.785 77.143,54.903 78.311,54.022 77.818 C 53.208 77.362,53.429 76.167,54.327 76.167 C 54.593 76.167,54.927 76.285,55.071 76.429 M69.907 76.545 C 70.220 77.022,70.086 77.565,69.589 77.830 C 68.738 78.286,67.888 77.366,68.416 76.561 C 68.763 76.032,69.565 76.024,69.907 76.545 M73.327 76.489 C 73.654 77.099,73.538 77.661,73.046 77.847 C 72.117 78.201,71.381 77.378,71.907 76.575 C 72.243 76.061,73.072 76.011,73.327 76.489 M52.195 78.875 C 52.832 79.388,52.418 80.500,51.590 80.500 C 51.196 80.500,50.667 79.889,50.667 79.434 C 50.667 78.800,51.653 78.439,52.195 78.875 M71.511 78.839 C 72.151 79.182,71.656 80.500,70.888 80.500 C 70.186 80.500,69.706 79.361,70.200 78.867 C 70.446 78.621,71.078 78.608,71.511 78.839 M60.833 80.838 C 60.696 80.921,59.571 81.410,58.333 81.923 C 55.262 83.198,54.978 83.319,54.500 83.570 C 54.271 83.690,53.896 83.836,53.667 83.894 C 53.438 83.952,53.081 84.131,52.875 84.292 L 52.501 84.584 52.854 85.334 C 54.691 89.230,54.582 89.104,55.903 88.846 C 61.660 87.724,61.190 87.747,64.583 88.409 C 68.434 89.161,68.138 89.199,68.760 87.872 C 69.006 87.346,69.423 86.478,69.687 85.941 C 70.374 84.545,70.343 84.441,69.083 83.845 C 68.487 83.564,67.951 83.333,67.893 83.333 C 67.834 83.333,67.441 83.175,67.018 82.982 C 66.596 82.789,65.987 82.519,65.667 82.382 C 64.871 82.043,64.292 81.795,62.874 81.186 C 61.614 80.645,61.253 80.584,60.833 80.838 " stroke="none" fill="#d0a013" fill-rule="evenodd"></path><path id="path1" d="M39.878 5.171 C 39.445 5.345,15.167 29.568,15.167 29.826 C 15.167 29.922,15.092 30.000,15.001 30.000 C 14.910 30.000,14.010 30.821,13.001 31.825 L 11.167 33.650 11.169 54.616 C 11.171 75.731,11.183 76.333,11.603 76.333 C 11.730 76.333,11.833 76.409,11.833 76.501 C 11.833 76.731,14.755 79.667,14.983 79.667 C 15.084 79.667,15.167 79.779,15.167 79.917 C 15.167 80.054,15.279 80.167,15.417 80.167 C 15.554 80.167,15.667 80.279,15.667 80.417 C 15.667 80.554,15.779 80.667,15.917 80.667 C 16.054 80.667,16.167 80.749,16.167 80.850 C 16.167 81.079,19.102 84.000,19.332 84.000 C 19.424 84.000,19.500 84.112,19.500 84.250 C 19.500 84.387,19.612 84.500,19.750 84.500 C 19.887 84.500,20.000 84.572,20.000 84.659 C 20.000 84.866,20.801 85.667,21.008 85.667 C 21.095 85.667,21.167 85.744,21.167 85.838 C 21.167 86.061,24.105 89.000,24.329 89.000 C 24.423 89.000,24.500 89.112,24.500 89.250 C 24.500 89.388,24.613 89.500,24.750 89.500 C 24.887 89.500,25.000 89.612,25.000 89.750 C 25.000 89.888,25.113 90.000,25.250 90.000 C 25.387 90.000,25.500 90.077,25.500 90.170 C 25.500 90.388,28.452 93.333,28.670 93.333 C 28.760 93.333,28.833 93.446,28.833 93.583 C 28.833 93.721,28.946 93.833,29.083 93.833 C 29.221 93.833,29.333 93.946,29.333 94.083 C 29.333 94.221,29.446 94.333,29.583 94.333 C 29.721 94.333,29.833 94.411,29.833 94.506 C 29.833 94.723,32.788 97.667,33.006 97.667 C 33.095 97.667,33.167 97.779,33.167 97.917 C 33.167 98.054,33.238 98.167,33.326 98.167 C 33.532 98.167,34.333 98.968,34.333 99.174 C 34.333 99.262,34.446 99.333,34.583 99.333 C 34.721 99.333,34.833 99.410,34.833 99.504 C 34.833 99.726,36.608 101.500,36.830 101.500 C 36.923 101.500,37.000 101.572,37.000 101.659 C 37.000 101.866,37.801 102.667,38.008 102.667 C 38.095 102.667,38.167 102.779,38.167 102.917 C 38.167 103.054,38.279 103.167,38.417 103.167 C 38.554 103.167,38.667 103.279,38.667 103.417 C 38.667 103.554,38.779 103.667,38.917 103.667 C 39.054 103.667,39.167 103.772,39.167 103.900 C 39.167 104.029,39.403 104.216,39.692 104.317 C 40.374 104.555,81.275 104.577,81.899 104.340 C 82.280 104.195,83.000 103.601,83.000 103.431 C 83.000 103.353,85.369 101.000,85.448 101.000 C 85.520 101.000,86.833 99.681,86.833 99.609 C 86.833 99.482,88.727 97.667,88.859 97.667 C 88.936 97.667,89.000 97.554,89.000 97.417 C 89.000 97.279,89.069 97.167,89.153 97.167 C 89.353 97.167,92.333 94.186,92.333 93.986 C 92.333 93.902,92.446 93.833,92.583 93.833 C 92.721 93.833,92.833 93.721,92.833 93.583 C 92.833 93.446,92.946 93.333,93.083 93.333 C 93.221 93.333,93.333 93.221,93.333 93.083 C 93.333 92.946,93.395 92.833,93.470 92.833 C 93.671 92.833,96.667 89.868,96.667 89.669 C 96.667 89.576,96.733 89.500,96.814 89.500 C 96.895 89.500,97.270 89.191,97.647 88.814 C 98.025 88.436,98.333 88.061,98.333 87.980 C 98.333 87.900,98.406 87.833,98.495 87.833 C 98.707 87.833,101.667 84.874,101.667 84.662 C 101.667 84.573,101.779 84.500,101.917 84.500 C 102.054 84.500,102.167 84.387,102.167 84.250 C 102.167 84.112,102.279 84.000,102.417 84.000 C 102.554 84.000,102.667 83.887,102.667 83.750 C 102.667 83.612,102.740 83.500,102.829 83.500 C 103.040 83.500,106.000 80.540,106.000 80.329 C 106.000 80.240,106.112 80.167,106.250 80.167 C 106.388 80.167,106.500 80.054,106.500 79.917 C 106.500 79.779,106.583 79.667,106.685 79.667 C 106.908 79.667,109.833 76.714,109.833 76.490 C 109.833 76.404,109.923 76.333,110.033 76.333 C 110.176 76.333,110.182 76.282,110.054 76.154 C 109.871 75.971,95.833 89.801,95.833 90.164 C 95.833 90.257,95.759 90.333,95.669 90.333 C 95.578 90.333,92.424 93.409,88.659 97.168 L 81.815 104.002 60.831 103.999 L 39.848 103.995 33.012 97.164 C 29.252 93.407,26.099 90.333,26.005 90.333 C 25.910 90.333,25.833 90.256,25.833 90.163 C 25.833 90.069,22.646 86.806,18.750 82.912 L 11.667 75.832 11.667 54.762 L 11.667 33.692 25.665 19.721 C 38.060 7.350,39.734 5.737,40.290 5.633 C 40.634 5.569,50.124 5.515,61.378 5.514 L 81.840 5.512 95.837 19.506 C 108.855 32.522,110.167 33.788,110.167 33.333 C 110.167 33.242,110.092 33.167,110.000 33.167 C 109.908 33.167,109.833 33.092,109.833 33.000 C 109.833 32.908,109.533 32.533,109.167 32.167 C 108.800 31.800,108.425 31.500,108.333 31.500 C 108.242 31.500,108.167 31.387,108.167 31.250 C 108.167 31.113,108.092 31.000,108.001 31.000 C 107.911 31.000,107.621 30.775,107.358 30.500 C 107.096 30.225,106.795 30.000,106.690 30.000 C 106.586 30.000,106.500 29.903,106.500 29.784 C 106.500 29.665,106.278 29.384,106.007 29.159 C 105.736 28.934,105.511 28.693,105.507 28.624 C 105.497 28.440,103.498 26.500,103.319 26.500 C 103.235 26.500,103.167 26.387,103.167 26.250 C 103.167 26.113,103.095 26.000,103.008 26.000 C 102.858 26.000,100.500 23.714,100.500 23.568 C 100.500 23.477,99.187 22.167,99.095 22.167 C 99.002 22.167,96.167 19.331,96.167 19.238 C 96.167 19.147,94.856 17.833,94.765 17.833 C 94.677 17.833,91.833 15.004,91.833 14.916 C 91.833 14.777,90.978 14.000,90.826 14.000 C 90.738 14.000,90.667 13.928,90.667 13.841 C 90.667 13.689,89.890 12.833,89.753 12.833 C 89.669 12.833,86.833 9.994,86.833 9.911 C 86.833 9.776,85.975 9.000,85.826 9.000 C 85.738 9.000,85.667 8.887,85.667 8.750 C 85.667 8.612,85.598 8.500,85.514 8.500 C 85.322 8.500,82.500 5.697,82.500 5.506 C 82.500 5.034,81.037 5.000,60.850 5.011 C 49.108 5.017,40.090 5.085,39.878 5.171 M45.583 7.921 C 45.125 8.048,44.563 8.156,44.333 8.160 C 44.104 8.165,43.702 8.281,43.439 8.418 C 43.177 8.555,42.877 8.667,42.773 8.667 C 42.516 8.669,40.571 9.678,39.757 10.233 C 38.543 11.060,37.362 12.293,35.639 14.530 C 32.140 19.074,27.590 23.926,24.416 26.496 C 23.683 27.090,22.975 27.680,22.843 27.808 C 22.711 27.936,22.054 28.453,21.385 28.957 C 20.715 29.461,20.167 29.921,20.167 29.980 C 20.167 30.038,19.959 30.177,19.705 30.290 C 18.153 30.977,15.757 33.889,14.595 36.500 C 13.698 38.518,13.448 42.988,13.989 47.333 C 14.290 49.755,14.301 61.033,14.004 63.167 C 13.649 65.723,13.589 70.212,13.898 71.157 C 14.046 71.609,14.167 72.078,14.167 72.198 C 14.168 72.318,14.340 72.829,14.550 73.333 C 15.911 76.605,17.558 78.420,21.583 81.081 C 25.218 83.484,32.167 89.433,32.167 90.142 C 32.167 90.228,32.275 90.339,32.408 90.390 C 32.540 90.441,33.113 91.068,33.680 91.783 C 34.246 92.498,34.764 93.121,34.829 93.167 C 34.945 93.248,35.546 94.088,36.906 96.069 C 39.965 100.525,45.068 102.978,49.988 102.358 C 50.774 102.259,52.054 102.098,52.833 101.999 C 53.612 101.900,55.000 101.729,55.917 101.618 C 56.833 101.507,59.533 101.417,61.917 101.417 C 65.910 101.417,67.158 101.498,70.917 102.005 C 75.790 102.663,78.608 102.531,80.590 101.552 C 83.882 99.926,84.901 99.087,87.210 96.105 C 91.918 90.026,95.890 86.037,101.914 81.336 C 105.578 78.477,107.405 75.875,108.001 72.667 C 108.077 72.254,108.219 71.579,108.316 71.167 C 108.559 70.131,108.542 68.986,108.262 67.417 C 107.059 60.699,107.058 52.071,108.259 45.830 C 108.632 43.891,108.580 40.024,108.163 38.667 C 107.031 34.985,104.915 32.234,101.753 30.333 C 100.495 29.577,97.859 27.743,97.161 27.138 C 97.020 27.016,96.345 26.476,95.661 25.938 C 93.134 23.950,86.667 16.871,86.667 16.093 C 86.667 16.007,86.431 15.656,85.097 13.756 C 83.933 12.098,82.004 10.516,80.000 9.576 C 79.496 9.340,78.955 9.077,78.797 8.992 C 78.640 8.907,78.227 8.766,77.881 8.678 C 77.534 8.591,76.950 8.441,76.583 8.347 C 75.565 8.084,71.970 8.134,69.743 8.443 C 65.236 9.068,55.913 8.816,49.826 7.905 C 47.877 7.613,46.675 7.617,45.583 7.921 M51.167 9.079 C 57.468 10.021,64.317 10.042,72.379 9.143 C 77.758 8.543,82.006 10.811,85.597 16.200 C 86.372 17.364,87.099 18.414,87.212 18.533 C 87.324 18.652,87.749 19.200,88.156 19.750 C 89.906 22.117,95.181 27.016,98.292 29.163 C 98.865 29.558,99.333 29.946,99.333 30.024 C 99.333 30.103,99.439 30.167,99.569 30.167 C 99.770 30.167,100.416 30.548,101.897 31.540 C 106.844 34.852,108.355 39.404,107.083 47.167 C 106.091 53.221,106.097 60.659,107.099 66.116 C 108.297 72.639,106.563 76.510,100.233 81.442 C 97.036 83.933,91.000 89.603,91.000 90.115 C 91.000 90.235,90.888 90.333,90.750 90.333 C 90.612 90.333,90.498 90.390,90.496 90.458 C 90.494 90.527,90.250 90.853,89.954 91.183 C 89.119 92.114,87.293 94.358,86.884 94.954 C 85.927 96.350,84.176 98.193,82.737 99.319 C 82.284 99.674,80.278 100.652,79.791 100.756 C 79.494 100.820,79.171 100.935,79.075 101.012 C 78.414 101.541,72.822 101.523,70.947 100.985 C 68.602 100.312,55.082 100.351,52.759 101.038 C 51.423 101.432,45.925 101.313,44.667 100.862 C 42.411 100.053,40.490 98.843,39.151 97.389 C 38.591 96.780,38.275 96.354,36.725 94.125 C 35.215 91.952,34.115 90.675,31.402 87.942 C 28.174 84.689,26.103 82.995,21.751 80.046 C 19.493 78.516,18.284 77.485,17.377 76.317 C 15.182 73.490,14.418 70.713,14.703 66.600 C 14.780 65.491,14.954 63.158,15.089 61.417 C 15.505 56.075,15.410 52.331,14.640 43.667 C 14.129 37.904,16.346 33.417,21.250 30.294 C 21.617 30.060,22.067 29.729,22.250 29.557 C 22.433 29.385,22.958 28.946,23.417 28.581 C 26.838 25.856,31.747 20.989,34.256 17.833 C 34.803 17.146,35.335 16.508,35.439 16.417 C 35.543 16.325,35.911 15.838,36.255 15.333 C 39.976 9.890,44.345 8.058,51.167 9.079 M39.000 22.733 C 37.865 23.153,37.244 23.364,36.750 23.500 C 36.475 23.576,36.025 23.718,35.750 23.816 C 35.475 23.914,34.425 24.268,33.417 24.604 C 32.408 24.939,31.444 25.334,31.273 25.481 C 30.937 25.772,29.000 29.573,29.000 29.942 C 29.000 30.066,28.935 30.167,28.856 30.167 C 28.461 30.167,28.022 31.949,28.256 32.606 C 28.382 32.960,28.489 33.461,28.493 33.719 C 28.497 33.977,28.580 34.339,28.678 34.522 C 28.777 34.705,28.917 35.207,28.991 35.636 C 29.064 36.065,29.220 36.792,29.337 37.250 C 29.455 37.708,29.622 38.383,29.708 38.750 C 29.836 39.288,30.273 39.828,31.967 41.542 L 34.067 43.667 33.575 44.572 C 33.305 45.070,32.661 46.177,32.144 47.031 C 31.081 48.788,30.669 49.860,30.663 50.881 C 30.660 51.267,30.581 51.918,30.487 52.327 C 30.393 52.736,30.199 53.936,30.056 54.994 C 29.493 59.165,29.043 62.273,28.751 64.000 C 28.218 67.162,28.232 67.706,28.881 69.047 C 29.202 69.708,29.989 71.337,30.630 72.667 C 35.089 81.913,34.763 81.375,36.083 81.638 C 38.449 82.107,38.980 82.224,39.698 82.436 C 40.128 82.563,40.636 82.667,40.827 82.667 C 41.019 82.667,41.755 82.809,42.463 82.983 C 43.171 83.157,44.350 83.420,45.083 83.569 C 45.817 83.718,46.754 83.923,47.167 84.024 C 47.579 84.126,48.292 84.271,48.750 84.347 C 50.842 84.692,50.730 84.562,52.843 89.069 C 53.741 90.985,54.039 91.123,56.110 90.583 C 56.638 90.446,57.461 90.333,57.938 90.333 C 58.415 90.333,58.831 90.260,58.861 90.170 C 59.039 89.650,63.538 89.638,64.056 90.156 C 64.154 90.254,64.578 90.333,64.998 90.333 C 65.419 90.333,66.195 90.446,66.723 90.583 C 68.332 91.002,69.667 90.746,69.667 90.017 C 69.667 89.919,69.886 89.406,70.154 88.877 C 70.422 88.349,70.951 87.268,71.329 86.476 C 72.151 84.757,72.376 84.529,73.437 84.348 C 73.884 84.272,74.587 84.130,75.000 84.033 C 75.963 83.808,79.269 83.102,82.667 82.396 C 83.354 82.253,84.367 82.035,84.917 81.911 C 85.467 81.788,86.217 81.638,86.583 81.578 C 87.582 81.415,88.042 81.056,88.469 80.107 C 88.681 79.636,88.925 79.137,89.012 79.000 C 89.098 78.862,89.214 78.637,89.269 78.500 C 89.325 78.362,89.880 77.200,90.503 75.917 C 94.796 67.080,94.601 67.647,94.160 65.250 C 94.076 64.792,93.896 63.629,93.761 62.667 C 93.500 60.806,93.303 59.503,92.915 57.083 C 92.514 54.587,92.328 53.333,92.088 51.500 C 91.803 49.324,91.778 49.262,90.160 46.573 C 88.510 43.830,88.479 44.115,90.675 41.832 C 92.540 39.893,93.167 39.001,93.167 38.286 C 93.167 38.070,93.271 37.561,93.399 37.155 C 93.527 36.749,93.793 35.704,93.991 34.833 C 94.189 33.962,94.427 32.946,94.521 32.575 C 94.714 31.812,94.682 31.724,92.859 27.989 C 91.608 25.425,91.559 25.382,89.083 24.601 C 87.983 24.254,86.821 23.875,86.500 23.759 C 82.617 22.351,82.769 22.320,80.833 24.949 C 78.957 27.498,78.569 27.891,77.583 28.237 C 77.125 28.398,76.504 28.635,76.203 28.765 C 75.344 29.134,74.704 29.058,74.003 28.502 C 73.382 28.010,72.293 27.556,70.833 27.180 C 69.875 26.934,67.668 26.377,65.500 25.835 C 64.702 25.636,63.679 25.358,62.127 24.921 C 61.268 24.678,61.092 24.676,60.377 24.901 C 59.941 25.039,59.096 25.271,58.500 25.418 C 57.904 25.566,57.042 25.795,56.583 25.927 C 56.125 26.060,55.450 26.239,55.083 26.324 C 53.518 26.690,52.433 26.974,50.253 27.592 C 49.687 27.753,48.958 28.118,48.569 28.437 C 47.843 29.032,47.331 29.126,46.553 28.808 C 46.294 28.703,45.636 28.457,45.089 28.261 C 44.001 27.872,43.841 27.705,41.583 24.581 C 40.542 23.140,39.935 22.483,39.671 22.509 C 39.623 22.513,39.321 22.614,39.000 22.733 M38.907 25.375 C 39.160 26.564,39.327 27.747,39.417 29.000 C 39.594 31.475,39.769 32.059,40.611 32.996 C 41.530 34.018,41.521 34.048,39.884 35.334 C 38.312 36.569,38.206 36.702,36.670 39.333 C 35.447 41.430,35.052 42.000,34.825 42.000 C 34.285 42.000,31.374 38.658,31.185 37.820 C 30.852 36.342,30.532 34.960,30.358 34.250 C 29.800 31.972,29.755 32.250,31.119 29.516 L 32.358 27.031 33.137 26.756 C 33.566 26.605,34.200 26.409,34.547 26.322 C 34.894 26.234,35.307 26.097,35.464 26.017 C 35.858 25.817,38.369 25.013,38.622 25.006 C 38.735 25.003,38.863 25.169,38.907 25.375 M87.203 25.947 C 88.787 26.468,90.174 26.962,90.285 27.046 C 90.845 27.465,92.846 32.015,92.742 32.633 C 92.597 33.495,92.035 35.917,91.744 36.931 C 91.610 37.398,91.500 37.967,91.500 38.197 C 91.500 38.509,91.057 39.040,89.737 40.307 C 87.924 42.047,87.451 42.289,87.161 41.625 C 86.947 41.134,86.125 39.689,85.551 38.794 C 85.301 38.403,84.949 37.792,84.770 37.436 C 84.557 37.014,83.874 36.339,82.804 35.493 L 81.165 34.197 81.974 33.224 C 83.110 31.857,83.168 31.707,83.334 29.664 C 83.462 28.086,83.631 26.875,83.931 25.375 C 84.030 24.883,83.894 24.859,87.203 25.947 M62.536 27.068 C 62.929 27.197,63.512 27.355,63.833 27.418 C 64.154 27.481,64.754 27.629,65.167 27.746 C 66.036 27.993,67.330 28.319,68.167 28.502 C 70.677 29.050,72.683 29.682,72.789 29.958 C 72.833 30.073,72.939 30.167,73.024 30.167 C 73.110 30.167,73.758 30.637,74.465 31.213 C 75.172 31.788,76.462 32.814,77.333 33.493 C 78.204 34.172,78.954 34.773,79.000 34.829 C 79.046 34.884,79.931 35.591,80.968 36.400 C 82.783 37.816,83.438 38.566,84.329 40.250 C 84.426 40.433,84.635 40.787,84.794 41.036 C 84.953 41.286,85.983 42.996,87.083 44.837 C 88.183 46.678,89.212 48.387,89.370 48.634 C 89.972 49.579,90.205 50.304,90.425 51.917 C 90.550 52.833,90.734 54.183,90.834 54.917 C 90.934 55.650,91.124 56.796,91.258 57.463 C 91.391 58.130,91.500 58.918,91.499 59.213 C 91.499 59.508,91.609 60.350,91.744 61.083 C 92.014 62.554,92.435 65.273,92.600 66.611 C 92.698 67.408,92.643 67.601,91.871 69.194 C 91.412 70.142,90.384 72.267,89.588 73.917 C 88.792 75.567,87.828 77.554,87.445 78.333 L 86.750 79.750 85.083 80.133 C 84.167 80.344,82.854 80.630,82.167 80.769 C 81.479 80.909,80.429 81.129,79.833 81.258 C 79.237 81.388,78.450 81.540,78.083 81.596 C 77.717 81.652,77.175 81.781,76.879 81.881 C 75.236 82.440,75.985 81.774,83.000 76.435 C 86.346 73.888,89.327 71.550,89.625 71.238 L 90.167 70.672 90.167 66.373 C 90.167 61.713,90.098 61.333,89.260 61.333 C 88.811 61.333,88.525 61.716,88.010 63.004 C 87.810 63.506,87.538 64.129,87.406 64.389 C 87.274 64.648,87.164 64.948,87.161 65.055 C 87.158 65.162,87.010 65.550,86.833 65.917 C 86.656 66.283,86.509 66.673,86.506 66.783 C 86.500 66.969,85.501 67.833,85.291 67.833 C 85.189 67.833,83.478 68.611,81.083 69.746 C 80.258 70.137,79.149 70.661,78.618 70.910 C 77.645 71.368,77.167 71.377,77.167 70.939 C 77.167 70.808,78.048 69.926,79.125 68.980 C 80.202 68.034,81.121 67.221,81.167 67.172 C 81.212 67.123,81.775 66.635,82.417 66.087 C 83.721 64.973,85.028 63.786,85.612 63.184 L 86.000 62.785 86.000 55.732 C 86.000 48.744,85.997 48.677,85.651 48.492 C 84.770 48.020,84.386 48.558,83.506 51.500 C 83.300 52.188,83.027 52.986,82.899 53.275 C 82.771 53.564,82.667 53.918,82.667 54.061 C 82.667 54.205,82.562 54.568,82.434 54.869 C 82.306 55.170,81.912 56.334,81.559 57.455 C 80.995 59.246,80.861 59.517,80.458 59.684 C 80.206 59.788,80.000 59.940,80.000 60.020 C 80.000 60.101,79.901 60.167,79.780 60.167 C 79.659 60.167,78.740 60.591,77.738 61.109 C 73.500 63.302,73.331 63.353,73.053 62.531 C 73.000 62.376,72.599 61.500,72.161 60.583 C 70.670 57.466,70.311 56.633,70.413 56.532 C 70.559 56.386,72.424 56.481,73.314 56.681 C 74.489 56.944,77.041 57.143,77.416 57.000 C 77.848 56.836,78.077 56.046,78.876 51.960 C 79.083 50.901,79.444 50.657,81.158 50.421 C 82.369 50.254,82.680 49.565,82.063 48.417 C 81.915 48.142,81.389 47.092,80.893 46.083 C 80.397 45.075,79.921 44.137,79.835 44.000 C 79.749 43.862,79.481 43.325,79.239 42.805 C 78.633 41.502,78.206 41.117,77.663 41.386 C 76.899 41.765,77.028 42.341,78.576 45.446 C 80.180 48.665,80.168 48.623,79.542 48.762 C 79.290 48.818,78.858 48.925,78.583 49.000 C 78.308 49.075,77.708 49.179,77.250 49.232 C 76.792 49.284,75.742 49.448,74.917 49.596 C 70.087 50.462,70.392 50.317,69.869 52.000 C 69.684 52.596,69.300 53.813,69.016 54.705 C 68.374 56.722,68.365 56.540,69.186 58.288 C 69.820 59.637,70.353 60.784,71.455 63.167 C 71.919 64.171,73.127 66.724,74.269 69.114 C 74.671 69.956,75.000 70.757,75.000 70.896 C 75.000 71.034,75.083 71.198,75.184 71.261 C 75.285 71.323,75.660 71.992,76.018 72.747 L 76.667 74.120 76.667 76.549 L 76.667 78.979 76.208 79.407 C 75.956 79.642,74.889 80.486,73.836 81.282 C 71.484 83.062,71.634 83.045,68.917 81.833 C 68.733 81.751,68.171 81.525,67.667 81.330 C 67.162 81.134,66.525 80.872,66.250 80.747 C 64.968 80.165,64.175 79.833,64.062 79.833 C 63.677 79.833,62.500 79.099,62.503 78.860 C 62.504 78.708,63.086 78.123,63.794 77.561 C 66.605 75.330,67.920 74.273,68.000 74.180 C 68.046 74.126,68.627 73.648,69.292 73.117 C 71.124 71.654,71.159 71.738,66.889 67.360 C 65.459 65.894,65.605 65.885,63.198 67.605 C 62.252 68.281,61.404 68.833,61.313 68.833 C 61.144 68.833,59.515 67.734,58.172 66.714 C 57.316 66.063,56.885 66.082,56.218 66.798 C 55.514 67.556,53.112 70.176,52.625 70.717 C 51.643 71.809,51.557 71.702,56.738 75.820 C 57.478 76.408,58.121 76.933,58.167 76.986 C 58.212 77.040,58.625 77.377,59.083 77.736 C 60.786 79.069,60.825 78.983,58.000 80.163 C 57.496 80.373,56.840 80.648,56.542 80.773 C 56.244 80.898,55.756 81.102,55.458 81.227 C 55.160 81.352,54.504 81.624,54.000 81.830 C 53.496 82.037,52.896 82.301,52.667 82.417 C 51.582 82.967,51.003 82.849,49.786 81.833 C 49.674 81.740,48.890 81.135,48.042 80.489 C 46.225 79.103,46.283 79.256,46.367 76.052 L 46.432 73.583 47.312 71.750 C 47.796 70.742,48.454 69.354,48.775 68.667 C 49.095 67.979,49.571 66.967,49.832 66.417 C 50.093 65.867,50.658 64.667,51.089 63.750 C 51.519 62.833,52.155 61.483,52.500 60.750 C 54.643 56.206,54.480 56.784,54.021 55.376 C 53.850 54.848,53.575 53.967,53.410 53.417 C 52.601 50.711,52.501 50.512,51.853 50.349 C 50.908 50.111,49.686 49.871,48.417 49.672 C 47.775 49.571,46.575 49.376,45.750 49.237 C 44.925 49.098,43.962 48.940,43.611 48.885 C 42.654 48.736,42.683 48.581,44.234 45.474 C 45.905 42.129,46.034 41.333,44.909 41.333 C 44.358 41.333,44.126 41.691,42.253 45.430 C 39.985 49.957,39.978 50.146,42.065 50.509 C 43.335 50.730,43.833 51.089,43.833 51.781 C 43.833 52.027,43.938 52.646,44.066 53.156 C 44.195 53.666,44.434 54.672,44.599 55.392 C 44.998 57.138,45.086 57.190,47.335 56.993 C 48.298 56.909,49.490 56.763,49.983 56.670 C 50.904 56.495,52.500 56.438,52.500 56.580 C 52.500 56.662,51.865 58.049,50.555 60.833 C 49.538 62.995,49.591 62.910,49.205 62.968 C 48.909 63.012,44.272 60.748,42.481 59.685 C 41.824 59.295,41.960 59.646,39.632 52.333 C 38.305 48.164,37.904 47.580,37.051 48.571 L 36.667 49.019 36.667 55.582 C 36.667 63.446,36.465 62.667,39.086 64.916 C 40.115 65.799,43.112 68.445,43.333 68.667 C 43.379 68.712,43.923 69.188,44.542 69.722 C 46.219 71.172,45.953 71.730,44.021 70.816 C 40.564 69.179,37.639 67.833,37.541 67.833 C 37.283 67.833,36.342 66.952,36.251 66.625 C 36.193 66.419,35.933 65.725,35.673 65.083 C 35.413 64.442,35.036 63.504,34.834 63.000 C 34.282 61.619,34.058 61.333,33.523 61.333 C 32.734 61.333,32.667 61.739,32.667 66.451 L 32.667 70.720 33.479 71.485 C 33.926 71.906,37.111 74.387,40.556 77.000 C 47.755 82.459,47.738 82.440,44.888 81.772 C 44.354 81.647,43.317 81.419,42.583 81.265 C 41.850 81.111,40.912 80.905,40.500 80.807 C 40.087 80.708,39.262 80.533,38.667 80.416 C 36.010 79.894,36.002 79.889,35.310 78.500 C 34.607 77.087,30.915 69.496,30.350 68.303 C 29.942 67.440,29.953 66.748,30.420 64.000 C 30.552 63.221,30.817 61.496,31.007 60.167 C 31.198 58.837,31.462 57.150,31.594 56.417 C 31.726 55.683,31.834 54.820,31.833 54.499 C 31.833 54.177,31.909 53.652,32.002 53.332 C 32.094 53.012,32.240 52.150,32.325 51.417 C 32.429 50.516,32.617 49.840,32.903 49.333 C 33.137 48.921,33.407 48.433,33.504 48.250 C 33.717 47.849,33.948 47.470,34.526 46.576 C 34.765 46.205,35.164 45.530,35.411 45.076 C 35.658 44.622,36.708 42.825,37.744 41.083 L 39.627 37.917 41.962 36.083 C 43.246 35.075,44.586 34.012,44.940 33.722 C 46.987 32.041,49.443 30.172,49.607 30.169 C 49.712 30.168,49.837 30.063,49.886 29.936 C 49.970 29.718,51.947 29.000,52.464 29.000 C 52.597 29.000,53.053 28.893,53.478 28.761 C 53.902 28.630,54.587 28.440,55.000 28.338 C 55.413 28.237,56.163 28.050,56.667 27.923 C 57.171 27.796,58.071 27.579,58.667 27.440 C 59.262 27.301,59.938 27.113,60.167 27.021 C 60.770 26.780,61.716 26.799,62.536 27.068 M81.534 28.851 C 81.461 30.640,81.239 31.315,80.452 32.125 C 79.604 32.998,79.773 33.017,78.264 31.889 C 76.724 30.739,76.606 30.167,77.910 30.167 C 78.120 30.167,78.379 30.062,78.486 29.934 C 78.592 29.806,78.924 29.655,79.224 29.599 C 79.642 29.521,79.944 29.264,80.510 28.506 C 81.445 27.254,81.596 27.304,81.534 28.851 M41.916 28.349 C 42.434 29.050,43.273 29.667,43.708 29.667 C 43.846 29.667,44.049 29.775,44.159 29.907 C 44.268 30.039,44.596 30.170,44.886 30.199 C 45.788 30.286,45.627 30.708,44.265 31.821 L 43.013 32.844 42.341 32.237 C 41.528 31.502,41.167 30.446,41.167 28.803 C 41.167 27.484,41.242 27.438,41.916 28.349 M55.583 33.777 C 54.942 34.292,53.929 35.136,53.333 35.653 C 52.737 36.169,51.987 36.804,51.667 37.064 C 48.533 39.601,48.279 39.945,49.000 40.667 C 49.498 41.164,50.418 40.696,52.097 39.089 C 52.196 38.994,53.013 38.317,53.913 37.583 C 54.812 36.850,55.819 36.006,56.149 35.708 C 57.125 34.827,57.186 34.831,59.058 35.896 C 60.255 36.577,60.328 36.687,60.331 37.838 C 60.334 38.975,60.655 39.500,61.347 39.500 C 61.948 39.500,62.167 39.047,62.167 37.805 C 62.167 36.769,62.319 36.620,64.581 35.429 L 65.507 34.942 66.045 35.335 C 66.341 35.552,66.771 35.898,67.000 36.106 C 67.229 36.313,67.979 36.946,68.667 37.511 C 69.354 38.077,70.105 38.699,70.335 38.895 C 72.772 40.965,73.043 41.120,73.595 40.758 C 74.475 40.181,74.198 39.708,71.833 37.757 C 70.962 37.038,70.212 36.404,70.167 36.348 C 70.121 36.291,69.671 35.912,69.167 35.504 C 68.662 35.096,67.752 34.328,67.144 33.798 C 65.742 32.574,65.623 32.578,63.333 33.917 C 61.357 35.073,61.156 35.139,60.833 34.750 C 60.719 34.612,60.555 34.500,60.469 34.500 C 60.382 34.500,59.677 34.125,58.901 33.667 C 57.139 32.626,57.011 32.631,55.583 33.777 M249.212 39.833 C 249.212 40.246,249.245 40.415,249.284 40.208 C 249.324 40.002,249.324 39.665,249.284 39.458 C 249.245 39.252,249.212 39.421,249.212 39.833 M56.117 40.917 C 55.585 41.238,55.111 41.500,55.064 41.500 C 55.017 41.500,54.102 42.013,53.031 42.640 C 51.960 43.267,50.971 43.831,50.833 43.892 C 49.581 44.454,48.167 45.527,48.167 45.916 C 48.167 47.099,49.521 46.940,51.750 45.496 C 52.025 45.317,52.400 45.104,52.583 45.021 C 52.767 44.939,53.881 44.300,55.059 43.602 C 56.237 42.904,57.264 42.333,57.342 42.333 C 57.489 42.333,59.134 43.661,60.208 44.647 L 60.833 45.220 60.822 46.818 C 60.804 49.209,60.878 49.164,58.881 47.996 C 57.119 46.964,56.864 46.882,56.322 47.173 C 55.409 47.661,55.924 48.413,58.000 49.626 C 61.799 51.845,61.525 51.790,63.386 50.703 C 64.136 50.265,65.116 49.721,65.564 49.495 C 67.252 48.641,67.781 47.815,67.028 47.208 C 66.594 46.859,66.202 46.966,64.719 47.842 C 62.700 49.034,62.595 48.992,62.536 46.951 L 62.488 45.320 63.119 44.694 C 63.952 43.868,65.826 42.333,66.001 42.333 C 66.077 42.333,66.689 42.657,67.361 43.052 C 68.033 43.448,68.696 43.822,68.833 43.885 C 68.971 43.947,69.196 44.069,69.333 44.157 C 72.598 46.235,74.348 46.972,74.911 46.505 C 75.588 45.943,74.998 45.096,73.417 44.359 C 73.078 44.201,70.624 42.794,70.167 42.496 C 70.029 42.406,69.767 42.266,69.583 42.185 C 69.400 42.103,68.650 41.681,67.917 41.247 C 65.857 40.026,65.680 40.041,63.916 41.579 C 61.601 43.597,61.884 43.533,60.464 42.366 C 59.796 41.816,59.095 41.220,58.906 41.039 C 57.988 40.164,57.408 40.139,56.117 40.917 M46.905 51.429 C 47.049 51.573,47.167 51.817,47.167 51.972 C 47.167 53.178,49.088 53.581,50.037 52.575 C 50.877 51.685,51.160 51.878,51.580 53.627 C 51.825 54.647,51.982 54.547,49.667 54.848 C 45.992 55.326,46.255 55.530,45.721 51.792 C 45.620 51.088,46.342 50.866,46.905 51.429 M76.997 51.375 C 76.952 54.426,76.379 55.049,73.826 54.821 C 71.306 54.595,71.241 54.567,71.280 53.699 C 71.353 52.074,72.211 51.533,73.049 52.583 C 73.825 53.556,75.465 53.330,75.744 52.212 C 75.946 51.405,77.007 50.695,76.997 51.375 M60.625 54.245 C 60.200 54.829,60.180 64.111,60.603 64.756 C 60.939 65.270,61.739 65.320,61.994 64.844 C 62.270 64.329,62.215 54.495,61.935 54.125 C 61.620 53.711,60.970 53.771,60.625 54.245 M39.330 56.950 C 39.336 57.309,40.279 59.976,40.540 60.368 C 40.776 60.724,41.537 61.153,45.942 63.414 C 48.897 64.930,48.751 64.560,47.469 67.292 C 46.739 68.848,46.591 68.917,45.679 68.125 C 42.652 65.495,39.486 62.668,39.042 62.198 L 38.500 61.625 38.500 58.795 L 38.500 55.965 38.914 56.358 C 39.141 56.573,39.329 56.840,39.330 56.950 M83.963 59.390 L 84.008 62.003 83.536 62.460 C 83.085 62.897,81.171 64.616,80.370 65.304 C 79.895 65.713,77.696 67.664,77.331 68.000 C 76.328 68.926,76.362 68.911,76.000 68.583 C 75.817 68.417,75.667 68.216,75.667 68.136 C 75.667 68.056,75.410 67.471,75.096 66.837 C 74.783 66.202,74.501 65.489,74.471 65.253 C 74.411 64.775,74.275 64.874,76.786 63.570 C 82.654 60.525,82.555 60.592,82.748 59.502 C 82.805 59.180,82.955 58.617,83.081 58.250 C 83.207 57.883,83.356 57.372,83.411 57.113 C 83.680 55.861,83.918 56.841,83.963 59.390 M36.292 69.175 C 36.727 69.378,37.608 69.789,38.250 70.086 C 40.539 71.148,43.095 72.357,43.833 72.727 L 44.583 73.103 44.630 75.221 C 44.685 77.720,44.576 77.882,43.450 76.984 C 43.065 76.677,42.675 76.368,42.583 76.298 C 42.492 76.227,42.004 75.853,41.500 75.467 C 40.996 75.080,40.508 74.703,40.417 74.629 C 40.003 74.295,37.897 72.694,37.177 72.167 C 36.455 71.638,35.576 70.933,34.792 70.253 C 34.576 70.066,34.500 69.746,34.500 69.028 C 34.500 67.828,34.625 67.684,35.117 68.313 C 35.329 68.583,35.857 68.971,36.292 69.175 M88.228 68.375 C 88.502 69.396,88.236 70.285,87.527 70.714 C 87.283 70.862,86.858 71.182,86.583 71.426 C 86.308 71.669,85.746 72.098,85.333 72.379 C 84.921 72.660,84.316 73.121,83.990 73.403 C 83.664 73.686,83.064 74.157,82.657 74.451 C 82.250 74.745,81.204 75.549,80.333 76.238 C 78.606 77.605,78.422 77.684,78.272 77.125 C 78.143 76.645,78.136 73.607,78.263 73.277 C 78.370 72.997,79.027 72.665,84.542 70.106 C 85.206 69.797,86.109 69.377,86.547 69.172 C 86.985 68.966,87.473 68.621,87.630 68.404 C 87.990 67.910,88.102 67.904,88.228 68.375 M59.301 69.750 C 61.330 71.309,61.329 71.309,63.404 69.746 C 65.448 68.206,65.303 68.197,66.940 69.950 C 68.571 71.695,68.720 71.319,65.317 74.042 C 62.393 76.381,62.345 76.389,62.330 74.521 C 62.313 72.589,60.707 73.075,60.513 75.070 C 60.414 76.085,60.210 76.345,59.811 75.964 C 59.686 75.844,58.683 75.035,57.583 74.165 C 53.934 71.280,54.124 71.744,55.855 69.924 C 57.491 68.204,57.301 68.214,59.301 69.750 M49.094 76.591 C 48.755 77.107,48.868 77.540,49.418 77.834 C 50.302 78.307,51.239 77.224,50.577 76.493 C 50.152 76.024,49.434 76.071,49.094 76.591 M53.662 76.509 C 53.387 77.022,53.531 77.543,54.022 77.818 C 54.903 78.311,55.785 77.143,55.071 76.429 C 54.690 76.047,53.885 76.093,53.662 76.509 M68.416 76.561 C 67.888 77.366,68.738 78.286,69.589 77.830 C 70.086 77.565,70.220 77.022,69.907 76.545 C 69.565 76.024,68.763 76.032,68.416 76.561 M71.907 76.575 C 71.381 77.378,72.117 78.201,73.046 77.847 C 73.538 77.661,73.654 77.099,73.327 76.489 C 73.072 76.011,72.243 76.061,71.907 76.575 M50.929 78.929 C 50.595 79.262,50.597 79.573,50.936 80.089 C 51.287 80.626,51.883 80.618,52.312 80.073 C 53.013 79.181,51.734 78.123,50.929 78.929 M70.200 78.867 C 69.706 79.361,70.186 80.500,70.888 80.500 C 71.300 80.500,71.833 79.893,71.833 79.423 C 71.833 78.772,70.686 78.381,70.200 78.867 M62.874 81.186 C 64.292 81.795,64.871 82.043,65.667 82.382 C 65.987 82.519,66.596 82.789,67.018 82.982 C 67.441 83.175,67.834 83.333,67.893 83.333 C 67.951 83.333,68.487 83.564,69.083 83.845 C 70.343 84.441,70.374 84.545,69.687 85.941 C 69.423 86.478,69.006 87.346,68.760 87.872 C 68.138 89.199,68.434 89.161,64.583 88.409 C 61.190 87.747,61.660 87.724,55.903 88.846 C 54.582 89.104,54.691 89.230,52.854 85.334 L 52.501 84.584 52.875 84.292 C 53.081 84.131,53.438 83.952,53.667 83.894 C 53.896 83.836,54.271 83.690,54.500 83.570 C 54.978 83.319,55.262 83.198,58.333 81.923 C 59.571 81.410,60.696 80.921,60.833 80.838 C 61.253 80.584,61.614 80.645,62.874 81.186 " stroke="none" fill="#732105" fill-rule="evenodd"></path><path id="path2" d="M212.280 4.833 C 211.655 4.999,211.012 5.255,210.850 5.401 C 210.689 5.547,210.485 5.667,210.396 5.667 C 209.435 5.667,208.167 7.927,208.167 9.639 C 208.167 13.019,210.581 14.667,215.531 14.667 C 220.616 14.667,222.571 13.278,222.571 9.667 C 222.571 6.738,221.491 5.475,218.384 4.772 C 216.754 4.403,213.784 4.432,212.280 4.833 M164.750 5.081 C 164.658 5.113,164.044 5.301,163.384 5.498 C 161.004 6.208,160.103 7.681,160.195 10.713 C 160.333 15.276,162.226 16.392,170.196 16.613 L 173.975 16.717 174.054 29.817 C 174.144 44.933,174.195 45.500,175.658 47.750 C 177.753 50.970,185.011 51.081,187.623 47.933 C 189.328 45.880,189.362 45.544,189.454 30.151 L 189.534 16.718 193.642 16.606 C 197.876 16.490,199.530 16.281,200.515 15.737 C 204.359 13.614,204.083 7.155,200.077 5.495 L 199.083 5.083 182.000 5.053 C 172.604 5.037,164.842 5.049,164.750 5.081 M237.667 18.490 C 231.764 20.139,228.342 26.045,228.340 34.583 C 228.339 43.570,232.551 49.789,239.092 50.458 C 241.625 50.717,246.172 50.167,247.667 49.421 C 248.678 48.917,249.001 48.945,248.994 49.538 C 248.939 54.588,243.807 56.905,238.527 54.265 C 238.100 54.051,237.149 53.572,236.415 53.201 C 233.173 51.561,231.690 51.668,230.687 53.614 C 229.569 55.785,233.298 61.065,236.667 62.082 C 236.896 62.151,237.158 62.264,237.250 62.333 C 238.997 63.653,245.860 64.391,249.833 63.686 C 255.627 62.658,258.393 60.451,261.207 54.611 C 263.032 50.821,263.543 46.304,263.566 33.750 L 263.583 23.750 263.191 22.615 C 262.263 19.925,260.151 18.750,256.246 18.750 C 253.135 18.750,251.776 19.358,250.487 21.326 L 250.225 21.726 249.404 21.097 C 246.293 18.710,241.047 17.545,237.667 18.490 M283.417 18.482 C 280.020 19.093,276.795 20.483,274.717 22.231 C 270.785 25.539,269.153 29.271,269.164 34.932 C 269.170 37.749,269.204 38.042,269.745 39.917 C 270.008 40.829,271.218 43.301,271.499 43.500 C 271.564 43.546,271.647 43.675,271.683 43.787 C 271.796 44.132,274.372 46.667,274.610 46.667 C 274.733 46.667,274.833 46.727,274.833 46.802 C 274.833 47.135,278.066 48.821,279.917 49.453 C 284.129 50.889,291.072 50.851,294.495 49.372 C 297.479 48.083,298.825 47.188,300.640 45.284 C 305.363 40.333,303.531 35.913,297.969 38.841 C 296.735 39.491,292.447 40.333,290.371 40.333 C 287.566 40.333,284.773 38.747,283.967 36.698 L 283.693 36.000 288.834 36.000 C 294.296 36.000,296.297 35.791,297.917 35.049 C 305.296 31.673,303.878 22.027,295.583 19.181 C 292.833 18.238,286.723 17.887,283.417 18.482 M212.386 19.053 C 210.313 19.949,209.051 21.471,208.494 23.750 C 208.091 25.400,208.137 44.113,208.549 45.833 C 209.314 49.027,211.070 50.167,215.230 50.167 C 219.289 50.167,221.190 49.199,222.154 46.640 L 222.553 45.583 222.623 36.333 C 222.728 22.630,222.594 21.693,220.284 19.932 C 218.666 18.697,214.328 18.215,212.386 19.053 M312.634 19.050 C 310.728 19.786,309.454 21.269,308.812 23.499 C 308.340 25.136,308.343 43.683,308.814 45.768 C 309.570 49.110,311.125 50.159,315.333 50.164 C 319.433 50.169,321.339 49.260,322.365 46.808 C 322.730 45.938,322.741 45.725,322.828 37.851 L 322.917 29.786 323.387 29.434 C 324.316 28.742,326.201 29.024,327.167 30.001 C 329.189 32.046,333.200 31.672,335.018 29.268 C 336.429 27.403,336.576 23.479,335.313 21.362 C 333.280 17.954,327.354 17.676,322.754 20.773 L 321.924 21.331 321.337 20.685 C 319.640 18.814,315.337 18.007,312.634 19.050 M288.592 24.530 C 289.372 25.064,289.668 26.058,289.667 28.133 C 289.666 31.216,289.356 31.491,285.878 31.496 L 283.340 31.500 283.437 30.708 C 283.991 26.204,286.554 23.133,288.592 24.530 M248.043 26.997 C 249.183 27.780,249.134 27.462,249.185 34.384 L 249.231 40.660 248.824 41.096 C 245.909 44.219,243.000 40.954,243.000 34.562 C 243.000 28.587,245.312 25.120,248.043 26.997 M136.917 66.615 C 134.684 67.195,133.091 68.800,132.565 71.000 C 132.227 72.410,132.237 97.201,132.576 99.125 C 133.215 102.760,135.005 104.163,139.000 104.163 C 143.951 104.163,145.675 102.083,145.800 95.958 L 145.860 93.000 147.388 92.995 C 154.424 92.971,159.208 91.443,162.253 88.247 C 162.875 87.595,164.333 85.600,164.333 85.402 C 164.333 85.354,164.491 84.968,164.684 84.545 C 165.287 83.221,165.572 80.701,165.338 78.753 C 164.608 72.673,161.169 69.043,154.250 67.048 L 152.750 66.615 145.000 66.572 C 140.737 66.548,137.100 66.567,136.917 66.615 M280.417 66.731 C 278.087 67.475,277.154 69.326,277.729 72.067 C 278.379 75.171,279.975 75.659,289.483 75.664 L 295.382 75.667 294.975 76.042 C 294.751 76.248,293.409 77.463,291.992 78.741 C 290.576 80.020,289.154 81.310,288.833 81.608 C 288.512 81.907,288.017 82.361,287.733 82.617 C 280.112 89.486,279.143 90.515,277.797 93.167 C 277.210 94.323,277.223 98.860,277.816 100.055 C 278.661 101.756,280.549 103.393,282.311 103.952 C 284.844 104.756,308.968 104.289,310.698 103.403 C 312.793 102.330,313.331 98.337,311.639 96.411 C 310.561 95.183,310.423 95.167,300.452 95.161 L 291.583 95.156 292.083 94.723 C 292.358 94.484,293.399 93.531,294.396 92.603 C 295.393 91.676,296.293 90.840,296.396 90.746 C 299.730 87.717,300.726 86.806,301.417 86.152 C 302.468 85.156,302.871 84.784,305.012 82.837 C 310.810 77.568,311.584 76.369,311.583 72.667 C 311.582 69.755,310.705 68.140,308.539 67.060 L 307.583 66.583 294.333 66.551 C 283.970 66.525,280.938 66.565,280.417 66.731 M234.483 67.178 C 232.434 67.407,230.934 68.570,230.167 70.523 L 229.750 71.583 229.750 85.500 L 229.750 99.417 230.137 100.500 C 231.244 103.603,234.136 104.912,237.636 103.894 C 239.740 103.283,241.833 99.875,241.833 97.061 L 241.833 96.500 243.292 96.501 L 244.750 96.502 245.107 97.043 C 245.389 97.469,245.482 97.918,245.545 99.167 C 245.737 102.953,247.248 104.176,251.717 104.161 C 255.852 104.146,257.031 103.215,257.370 99.700 C 257.824 94.981,256.300 92.009,253.120 91.413 C 252.371 91.272,252.321 91.066,253.001 90.916 C 255.708 90.322,257.407 87.582,257.394 83.833 C 257.379 79.242,256.481 78.417,251.505 78.417 C 246.829 78.417,245.816 79.257,245.518 83.385 C 245.346 85.763,245.210 85.919,243.321 85.903 C 242.109 85.893,241.942 85.851,241.549 85.458 L 241.114 85.023 241.349 82.970 C 241.856 78.526,241.552 72.083,240.737 69.999 C 239.837 67.701,237.843 66.801,234.483 67.178 M148.082 73.851 C 151.366 74.254,152.500 75.673,152.500 79.382 C 152.500 83.310,150.273 85.500,146.278 85.500 L 145.833 85.500 145.833 79.583 L 145.833 73.667 146.208 73.667 C 146.415 73.667,147.258 73.750,148.082 73.851 M176.667 77.683 C 176.346 77.767,175.821 77.907,175.500 77.995 C 168.089 80.028,165.933 95.491,172.179 101.807 C 174.276 103.927,175.554 104.417,178.995 104.417 C 182.050 104.417,184.094 103.940,186.240 102.725 L 186.897 102.354 187.240 102.718 C 189.180 104.782,195.211 104.701,196.952 102.588 C 198.010 101.306,198.083 100.555,198.083 91.083 C 198.083 81.143,198.053 80.893,196.657 79.482 C 195.266 78.077,191.291 77.328,189.568 78.147 C 189.302 78.274,188.907 78.460,188.691 78.560 C 188.177 78.798,187.000 80.016,187.000 80.310 C 187.000 80.506,186.952 80.506,186.684 80.312 C 184.669 78.856,183.053 78.100,181.195 77.745 C 179.787 77.475,177.575 77.445,176.667 77.683 M327.750 77.744 C 326.200 77.977,324.373 78.525,323.403 79.049 C 323.029 79.251,322.448 79.562,322.112 79.739 C 321.775 79.917,321.500 80.123,321.500 80.198 C 321.500 80.272,321.390 80.333,321.256 80.333 C 321.019 80.333,319.074 82.158,318.412 83.002 C 317.853 83.714,317.167 84.817,317.167 85.003 C 317.167 85.100,317.029 85.458,316.860 85.798 C 315.457 88.632,315.592 93.725,317.160 97.044 C 317.883 98.574,320.134 101.333,320.659 101.333 C 320.740 101.333,320.831 101.394,320.861 101.468 C 320.968 101.726,322.425 102.607,323.602 103.124 C 328.289 105.183,335.600 105.006,339.615 102.735 C 340.056 102.486,340.570 102.200,340.757 102.099 C 346.947 98.780,348.477 88.700,343.712 82.635 C 343.067 81.815,340.568 79.667,340.258 79.667 C 340.201 79.667,339.955 79.535,339.710 79.375 C 339.259 79.080,338.812 78.893,337.181 78.317 C 335.049 77.565,330.701 77.301,327.750 77.744 M362.250 77.745 C 360.248 78.048,358.204 78.736,356.917 79.541 C 355.101 80.678,352.667 82.827,352.667 83.294 C 352.667 83.385,352.559 83.548,352.428 83.658 C 350.215 85.494,349.725 92.929,351.556 96.892 C 356.211 106.968,375.040 107.264,379.620 97.333 C 382.421 91.260,380.760 83.854,375.833 80.456 C 375.421 80.171,375.046 79.888,375.000 79.827 C 373.824 78.253,366.646 77.081,362.250 77.745 M206.524 78.167 C 205.370 78.581,204.583 79.191,203.987 80.131 C 203.066 81.583,203.083 81.366,203.083 91.417 L 203.083 100.750 203.532 101.667 C 204.490 103.623,205.573 104.146,208.700 104.160 C 214.385 104.184,214.879 103.368,214.961 93.800 L 215.018 87.183 215.570 86.842 C 216.534 86.246,216.957 86.355,219.019 87.735 C 222.228 89.882,226.031 87.553,226.069 83.417 C 226.103 79.769,224.123 77.833,220.357 77.833 C 218.419 77.833,217.163 78.247,214.768 79.674 C 214.126 80.057,214.116 80.057,213.851 79.735 C 212.499 78.087,208.891 77.315,206.524 78.167 M332.161 84.438 C 334.639 86.522,334.510 96.452,331.988 97.756 C 330.597 98.476,329.502 97.382,328.807 94.578 C 327.482 89.233,329.742 82.402,332.161 84.438 M366.845 84.659 C 369.121 87.051,368.742 96.836,366.335 97.833 C 365.231 98.290,364.220 97.532,363.611 95.791 C 361.632 90.135,364.071 81.742,366.845 84.659 M185.083 84.969 C 186.029 85.748,185.992 85.505,185.996 91.029 L 186.000 96.141 185.584 96.636 C 184.395 98.049,182.571 97.772,181.682 96.044 C 179.145 91.110,181.849 82.305,185.083 84.969 " stroke="none" fill="#640c8c" fill-rule="evenodd"></path></g></svg>