<svg width="511.999" height="511.999" xmlns="http://www.w3.org/2000/svg">

 <g>
  <title>background</title>
  <rect fill="none" id="canvas_background" height="402" width="582" y="-1" x="-1"/>
 </g>
 <g>
  <title>Layer 1</title>
  <g id="svg_1">
   <path id="svg_2" fill="#B5651E" d="m461.704,472.057l-29.605,-48.829c-1.592,-2.628 -4.486,-4.197 -7.557,-4.057c-3.07,0.124 -5.83,1.907 -7.205,4.654l-13.212,26.391c-1.322,2.641 -1.168,5.78 0.407,8.279l13.403,21.259c-4.842,5.197 -11.263,13.662 -12.304,22.858c-0.27,2.389 0.491,4.779 2.092,6.57c1.601,1.793 3.89,2.817 6.294,2.817l40.469,0c4.661,0 8.44,-3.779 8.44,-8.44l0,-27.127c0,-1.543 -0.424,-3.057 -1.222,-4.375z"/>
   <path id="svg_3" fill="#B5651E" d="m386.036,370.863c-6.563,-7.183 -18.795,-22.278 -26.986,-42.674c-1.713,-4.265 -6.523,-6.375 -10.823,-4.746c-3.344,1.267 -15.243,5.404 -27.973,5.404c-2.532,0 -4.93,1.137 -6.533,3.097c-1.602,1.96 -2.242,4.536 -1.739,7.017c0.208,1.027 5.361,25.352 29.97,48.193l46.739,50.138c1.626,1.744 3.874,2.685 6.174,2.685c0.961,0 1.931,-0.165 2.867,-0.503c3.179,-1.149 5.366,-4.085 5.557,-7.459c0.093,-1.627 2.034,-40.042 -17.253,-61.152z"/>
   <path id="svg_4" fill="#B5651E" d="m317.141,502.266l-27.18,-175.353c-0.458,-2.952 -2.441,-5.442 -5.216,-6.547c-10.675,-4.254 -18.524,-8.554 -18.602,-8.597c-2.418,-1.333 -5.336,-1.398 -7.812,-0.174c-2.477,1.224 -4.197,3.583 -4.607,6.315l-5.014,33.467c-0.145,0.967 -0.12,1.951 0.072,2.91l24.031,119.84c-11.967,19.143 -6.253,31.785 -5.525,33.229c1.434,2.847 4.349,4.642 7.537,4.642l33.975,0c2.464,0 4.805,-1.077 6.408,-2.948c1.605,-1.87 2.31,-4.349 1.933,-6.784z"/>
  </g>
  <g id="svg_5">
   <path id="svg_6" fill="#A86B38" d="m458.953,365.339c-0.253,0 -0.508,-0.011 -0.763,-0.034c-4.643,-0.416 -8.068,-4.517 -7.653,-9.16c1.974,-22.02 1.065,-54.149 -14.474,-82.16c-9.26,-16.693 -19.514,-24.169 -19.617,-24.243c-3.772,-2.707 -4.668,-7.966 -1.983,-11.752c2.686,-3.787 7.904,-4.708 11.707,-2.045c2.001,1.402 48.921,35.33 41.179,121.706c-0.393,4.388 -4.075,7.688 -8.396,7.688z"/>
   <path id="svg_7" fill="#A86B38" d="m275.43,162.318c-18.8,-9.771 -42.196,-21.929 -58.263,-54.059c-36.937,-73.873 -83.587,-91.334 -85.554,-92.041c-4.197,-1.509 -8.843,0.51 -10.607,4.606l-2.977,6.919c-0.598,1.387 -0.811,2.91 -0.619,4.409c0.116,0.906 0.123,1.673 0.02,2.283c-0.376,2.237 0.164,4.53 1.5,6.365c0.449,0.617 45.141,62.137 64.47,99.2c18.688,35.835 54.691,49.111 74.034,56.243c2.729,1.006 5.086,1.875 6.844,2.614c6.309,2.652 16.685,5.648 32.654,9.426c0.643,0.152 1.294,0.227 1.943,0.227c1.769,0 3.511,-0.556 4.968,-1.616c1.991,-1.449 3.249,-3.695 3.446,-6.15c1.681,-20.995 -14.611,-29.462 -31.859,-38.426z"/>
  </g>
  <path id="svg_8" fill="#FF9F34" d="m440.995,407.769l-14.633,-35.378c1.824,-6.72 6.377,-24.346 9.824,-44.904c5.961,-35.547 5.567,-61.551 -1.171,-77.289c-16.403,-38.317 -57.971,-44.206 -85.475,-48.102c-6.467,-0.916 -12.052,-1.707 -16.145,-2.751c-3.55,-0.906 -8.832,-2.09 -14.948,-3.459c-15.074,-3.376 -37.853,-8.479 -47.628,-12.587c-2.106,-0.886 -4.626,-1.815 -7.545,-2.891c-17.205,-6.344 -49.231,-18.154 -64.907,-48.211c-17.891,-34.305 -55.238,-86.698 -63.988,-98.838c-0.059,-10.419 -6.654,-20.356 -7.492,-21.578c-2.318,-3.374 -6.72,-4.598 -10.446,-2.908c-6.188,2.809 -10.264,5.738 -12.95,8.442l1.881,-6.539c1.29,-4.479 -1.297,-9.155 -5.777,-10.444c-4.482,-1.288 -9.156,1.297 -10.444,5.777l-2.772,9.631c-10.828,-0.034 -22.992,3.866 -30.324,15.187c-2.356,3.638 -9.171,10.751 -28.341,17.518c-13.043,4.606 -17.623,13.05 -19.168,19.322c-1.616,6.561 -0.195,11.935 0.107,12.946c0.284,0.952 0.734,1.847 1.329,2.642c10.311,13.789 32.323,8.793 40.772,6.22c19.698,6.674 46.914,1.886 56.085,-0.056l5.068,2.521c2.736,9.515 10.671,36.194 21.214,63.645c6.803,17.717 27.509,71.631 51.914,81.303c4.757,1.885 7.827,4.125 8.647,6.309c1.391,3.71 -2.084,10.448 -5.149,16.393c-4.222,8.187 -9.007,17.466 -4.392,26.021c4.706,8.723 24.807,68.079 37.452,106.694l0,76.689c-7.548,7.216 -22.036,22.616 -22.036,34.466c0,4.661 3.779,8.44 8.44,8.44l34.909,0c2.947,0 5.68,-1.537 7.211,-4.054l9.583,-15.761c0.825,-1.357 1.25,-2.918 1.228,-4.506l-1.359,-94.842l9.135,-60.975c12.403,5.681 33.416,13.866 51.552,13.866c10.145,0 19.599,-2.032 26.292,-3.963c8.937,19.168 20.498,33.338 27.029,40.486c12.44,13.615 13.011,39.654 12.915,46.9l-24.688,42.459c-13.819,4.959 -22.774,24.421 -24.574,28.638c-1.113,2.607 -0.843,5.598 0.72,7.964c1.563,2.365 4.207,3.789 7.042,3.789l36.869,0c2.624,0 5.097,-1.22 6.695,-3.302l14.374,-18.729c0.326,-0.425 0.611,-0.881 0.852,-1.36l36.963,-73.835c1.093,-2.19 1.185,-4.746 0.25,-7.006z"/>
  <path id="svg_9" fill="#DA7A27" d="m426.361,372.39c1.824,-6.72 6.377,-24.346 9.824,-44.904c5.961,-35.547 5.567,-61.551 -1.171,-77.289c-16.403,-38.317 -57.971,-44.206 -85.475,-48.102c-6.467,-0.916 -12.052,-1.707 -16.145,-2.751c-3.55,-0.906 -8.832,-2.09 -14.948,-3.459c-15.074,-3.376 -37.853,-8.479 -47.628,-12.587c-2.106,-0.886 -4.626,-1.815 -7.545,-2.891c-17.205,-6.344 -49.231,-18.154 -64.907,-48.211c-17.891,-34.305 -55.238,-86.698 -63.988,-98.838c-0.059,-10.419 -6.654,-20.356 -7.492,-21.578c-1.368,-1.993 -3.466,-3.228 -5.721,-3.564c-0.363,0.279 -0.722,0.571 -1.078,0.872c-12.684,10.771 -14.623,29.665 -5.065,43.287c14.806,21.102 39.911,57.948 53.354,83.725c19.851,38.062 62.289,48.938 76.665,54.98c14.374,6.042 51.137,13.223 63.759,16.444c22.505,5.741 77.743,3.468 95.949,45.999c11.435,26.712 -0.88,84.222 -6.893,108.375c-1.822,7.317 -1.263,15.021 1.619,21.989l6.99,16.899c2.683,6.486 2.419,13.818 -0.724,20.094l-32.016,63.952l-20.668,27.169l28.799,0c2.623,0 5.097,-1.22 6.694,-3.302l14.374,-18.729c0.326,-0.425 0.611,-0.881 0.852,-1.36l36.963,-73.836c1.095,-2.188 1.187,-4.743 0.252,-7.004l-14.63,-35.38z"/>
  <path id="svg_10" fill="#2B2B2B" d="m80.371,62.017c-5.353,0 -9.708,-4.348 -9.708,-9.692s4.355,-9.692 9.708,-9.692c5.353,0 9.708,4.348 9.708,9.692s-4.355,9.692 -9.708,9.692z"/>
  <g id="svg_11">
   <path id="svg_12" fill="#A86B38" d="m269.414,208.548c0,6.44 -6.835,6.8 -13.275,6.8c-6.44,0 -13.932,-9.996 -13.932,-16.436s7.492,-6.886 13.932,-6.886c6.44,0.002 13.275,10.082 13.275,16.522z"/>
   <path id="svg_13" fill="#A86B38" d="m236.772,201.051c0,6.44 -6.835,6.8 -13.275,6.8c-6.44,0 -13.932,-9.996 -13.932,-16.436s7.492,-6.886 13.932,-6.886s13.275,10.082 13.275,16.522z"/>
   <path id="svg_14" fill="#A86B38" d="m263.979,233.782c0,6.44 -6.835,6.8 -13.275,6.8c-6.44,0 -13.932,-9.996 -13.932,-16.436s7.492,-6.886 13.932,-6.886c6.44,0.002 13.275,10.082 13.275,16.522z"/>
   <path id="svg_15" fill="#A86B38" d="m185.019,196.888c0,6.44 -6.835,6.8 -13.275,6.8c-6.44,0 -13.932,-9.996 -13.932,-16.436s7.492,-6.886 13.932,-6.886c6.44,0 13.275,10.082 13.275,16.522z"/>
   <path id="svg_16" fill="#A86B38" d="m156.887,144.423c0,6.44 -6.835,6.8 -13.275,6.8c-6.44,0 -13.932,-9.996 -13.932,-16.436c0,-6.44 7.492,-6.886 13.932,-6.886c6.44,0.001 13.275,10.082 13.275,16.522z"/>
   <path id="svg_17" fill="#A86B38" d="m162.513,95.923c0,6.44 -6.835,6.8 -13.275,6.8c-6.44,0 -13.932,-9.996 -13.932,-16.436s7.492,-6.886 13.932,-6.886c6.441,0.001 13.275,10.082 13.275,16.522z"/>
   <path id="svg_18" fill="#A86B38" d="m188.907,153.959c0,6.44 -6.835,6.8 -13.275,6.8c-6.44,0 -13.932,-9.996 -13.932,-16.436s7.492,-6.886 13.932,-6.886c6.439,0 13.275,10.082 13.275,16.522z"/>
   <path id="svg_19" fill="#A86B38" d="m200.36,190.02c-4.413,4.69 -9.638,0.268 -14.328,-4.146c-4.69,-4.413 -3.295,-16.827 1.119,-21.517s10.175,0.12 14.864,4.534c4.689,4.414 2.758,16.439 -1.655,21.129z"/>
   <path id="svg_20" fill="#A86B38" d="m227.315,238.576c-4.413,4.69 -9.638,0.268 -14.328,-4.146c-4.69,-4.413 -3.295,-16.827 1.119,-21.517s10.175,0.12 14.864,4.534c4.691,4.413 2.759,16.438 -1.655,21.129z"/>
   <path id="svg_21" fill="#A86B38" d="m169.606,133.757c-4.413,4.69 -9.638,0.268 -14.327,-4.145c-4.69,-4.413 -3.295,-16.827 1.119,-21.517c4.413,-4.69 10.175,0.12 14.864,4.534c4.689,4.413 2.758,16.437 -1.656,21.128z"/>
   <path id="svg_22" fill="#A86B38" d="m141.349,165.482c-1.998,-6.121 4.387,-8.586 10.509,-10.584c6.121,-1.998 16.346,5.178 18.345,11.3c1.998,6.121 -4.985,8.87 -11.106,10.869c-6.122,1.999 -15.748,-5.463 -17.748,-11.585z"/>
   <path id="svg_23" fill="#A86B38" d="m204.08,223.778c-4.413,4.69 -9.638,0.268 -14.327,-4.145c-4.69,-4.413 -3.295,-16.827 1.119,-21.517c4.413,-4.69 10.175,0.12 14.864,4.534c4.688,4.413 2.757,16.438 -1.656,21.128z"/>
   <path id="svg_24" fill="#A86B38" d="m353.365,221.776c0,6.44 -6.835,6.8 -13.275,6.8s-13.932,-9.996 -13.932,-16.436s7.492,-6.886 13.932,-6.886s13.275,10.082 13.275,16.522z"/>
   <path id="svg_25" fill="#A86B38" d="m320.723,214.28c0,6.44 -6.835,6.8 -13.275,6.8s-13.932,-9.996 -13.932,-16.436s7.492,-6.886 13.932,-6.886s13.275,10.082 13.275,16.522z"/>
   <path id="svg_26" fill="#A86B38" d="m347.93,247.011c0,6.44 -6.835,6.8 -13.275,6.8s-13.932,-9.996 -13.932,-16.436s7.492,-6.886 13.932,-6.886s13.275,10.082 13.275,16.522z"/>
   <path id="svg_27" fill="#A86B38" d="m311.266,251.804c-4.413,4.69 -9.638,0.268 -14.328,-4.146c-4.69,-4.413 -3.295,-16.827 1.118,-21.517s10.175,0.12 14.864,4.534c4.692,4.414 2.76,16.439 -1.654,21.129z"/>
   <path id="svg_28" fill="#A86B38" d="m288.031,237.007c-4.413,4.69 -9.638,0.268 -14.328,-4.145s-3.295,-16.827 1.118,-21.517s10.175,0.12 14.864,4.534c4.69,4.413 2.759,16.438 -1.654,21.128z"/>
   <path id="svg_29" fill="#A86B38" d="m284.388,262.902c0,6.44 -6.835,6.8 -13.275,6.8c-6.44,0 -13.932,-9.996 -13.932,-16.436s7.492,-6.886 13.932,-6.886c6.439,0.001 13.275,10.082 13.275,16.522z"/>
   <path id="svg_30" fill="#A86B38" d="m250.856,259.291c0,6.44 -6.835,6.8 -13.275,6.8s-13.932,-9.996 -13.932,-16.436s7.492,-6.886 13.932,-6.886c6.44,0.001 13.275,10.082 13.275,16.522z"/>
   <path id="svg_31" fill="#A86B38" d="m223.169,305.87c0,6.44 -6.835,6.8 -13.275,6.8c-6.44,0 -13.932,-9.996 -13.932,-16.436s7.492,-6.886 13.932,-6.886c6.44,0.001 13.275,10.082 13.275,16.522z"/>
   <path id="svg_32" fill="#A86B38" d="m385.707,233.438c0,6.44 -6.835,6.8 -13.275,6.8s-13.932,-9.996 -13.932,-16.436s7.492,-6.886 13.932,-6.886c6.44,0 13.275,10.082 13.275,16.522z"/>
   <path id="svg_33" fill="#A86B38" d="m339.347,277.326c0,6.44 -6.835,6.8 -13.275,6.8s-13.932,-9.996 -13.932,-16.436c0,-6.44 7.492,-6.886 13.932,-6.886c6.44,0.001 13.275,10.082 13.275,16.522z"/>
   <path id="svg_34" fill="#A86B38" d="m302.684,282.119c-4.413,4.69 -9.638,0.268 -14.328,-4.146c-4.69,-4.413 -3.295,-16.827 1.118,-21.517c4.413,-4.69 10.175,0.12 14.864,4.534c4.69,4.414 2.759,16.439 -1.654,21.129z"/>
   <path id="svg_35" fill="#A86B38" d="m322.404,303.693c0,6.44 -6.835,6.8 -13.275,6.8s-13.932,-9.996 -13.932,-16.436c0,-6.44 7.492,-6.886 13.932,-6.886s13.275,10.082 13.275,16.522z"/>
   <path id="svg_36" fill="#A86B38" d="m277.582,288.885c0,6.44 -6.835,6.8 -13.275,6.8s-13.932,-9.996 -13.932,-16.436c0,-6.44 7.492,-6.886 13.932,-6.886s13.275,10.082 13.275,16.522z"/>
   <path id="svg_37" fill="#A86B38" d="m371.162,271.018c0,6.44 -6.835,6.8 -13.275,6.8s-13.932,-9.996 -13.932,-16.436c0,-6.44 7.492,-6.886 13.932,-6.886s13.275,10.082 13.275,16.522z"/>
   <path id="svg_38" fill="#A86B38" d="m415.4,288.013c-4.413,4.69 -9.638,0.268 -14.328,-4.146c-4.69,-4.413 -3.295,-16.827 1.118,-21.517s10.175,0.12 14.864,4.534c4.69,4.414 2.759,16.439 -1.654,21.129z"/>
   <path id="svg_39" fill="#A86B38" d="m392.163,270.831c-4.413,4.69 -9.638,0.268 -14.328,-4.146c-4.69,-4.413 -3.295,-16.827 1.118,-21.517s10.175,0.12 14.864,4.534c4.691,4.415 2.76,16.44 -1.654,21.129z"/>
   <path id="svg_40" fill="#A86B38" d="m386.029,339.678c-4.413,4.69 -9.638,0.268 -14.328,-4.145s-3.295,-16.827 1.119,-21.517c4.413,-4.69 10.175,0.12 14.864,4.534c4.689,4.412 2.758,16.437 -1.655,21.128z"/>
   <path id="svg_41" fill="#A86B38" d="m388.52,299.112c0,6.44 -6.835,6.8 -13.275,6.8s-13.932,-9.996 -13.932,-16.436s7.492,-6.886 13.932,-6.886s13.275,10.082 13.275,16.522z"/>
   <path id="svg_42" fill="#A86B38" d="m422.564,248.105c0,6.44 -6.835,6.8 -13.275,6.8c-6.44,0 -13.932,-9.996 -13.932,-16.436s7.492,-6.886 13.932,-6.886c6.44,0.001 13.275,10.082 13.275,16.522z"/>
   <path id="svg_43" fill="#A86B38" d="m406.817,318.328c-4.413,4.69 -9.638,0.268 -14.327,-4.145c-4.69,-4.413 -3.295,-16.827 1.118,-21.516c4.413,-4.69 10.175,0.12 14.864,4.534c4.69,4.412 2.759,16.438 -1.655,21.127z"/>
   <path id="svg_44" fill="#A86B38" d="m363.426,310.772c0,6.44 -6.835,6.8 -13.275,6.8s-13.932,-9.996 -13.932,-16.436s7.492,-6.886 13.932,-6.886c6.44,0 13.275,10.082 13.275,16.522z"/>
   <path id="svg_45" fill="#A86B38" d="m241.399,296.815c-4.413,4.69 -9.638,0.268 -14.328,-4.145s-3.295,-16.827 1.119,-21.517c4.413,-4.69 10.175,0.12 14.864,4.534c4.691,4.413 2.759,16.438 -1.655,21.128z"/>
   <path id="svg_46" fill="#A86B38" d="m218.164,282.018c-4.413,4.69 -9.638,0.268 -14.328,-4.146c-4.69,-4.413 -3.295,-16.827 1.119,-21.517c4.413,-4.69 10.175,0.12 14.864,4.534c4.689,4.414 2.758,16.439 -1.655,21.129z"/>
  </g>
  <g id="svg_47"/>
  <g id="svg_48"/>
  <g id="svg_49"/>
  <g id="svg_50"/>
  <g id="svg_51"/>
  <g id="svg_52"/>
  <g id="svg_53"/>
  <g id="svg_54"/>
  <g id="svg_55"/>
  <g id="svg_56"/>
  <g id="svg_57"/>
  <g id="svg_58"/>
  <g id="svg_59"/>
  <g id="svg_60"/>
  <g id="svg_61"/>
 </g>
</svg>