<svg width="256" height="256" xmlns="http://www.w3.org/2000/svg">

 <g>
  <title>background</title>
  <rect fill="none" id="canvas_background" height="402" width="582" y="-1" x="-1"/>
 </g>
 <g>
  <title>Layer 1</title>
  <path id="svg_1" fill="#52565b" d="m232.691,205.992c-0.613,-3.847 -0.109,-7.806 1.466,-11.341c19.571,-43.929 -9.874,-70.694 -28.106,-70.694c-9.441,0 -15.587,-1.478 -19.376,-2.961c-3.756,-1.469 -7.85,-1.683 -11.715,-0.568c-8.272,2.386 -13.735,4.436 -21.052,3.618c-9.763,-1.092 -14.64,-10.057 -23.389,-13.743c-10.603,-4.467 -29.187,-6.689 -54.38,9.74c-0.183,-1.099 -0.337,-2.19 -0.343,-3.267c-0.016,-3.318 -2.078,-5.17 -3.87,-6.226c-1.664,-0.98 -3.975,0.21 -4.419,2.197c-0.49,2.193 -1.774,5.116 -4.971,7.923c-0.829,0.728 -1.515,1.476 -2.095,2.227c-0.023,0.02 -0.046,0.038 -0.069,0.059c0,0 -10.003,-2.913 -15.707,4.385c-3.625,4.638 -4.93,9.925 -6.651,15.237c3.322,2.684 0.365,7.738 -3.003,7.467c-1.137,2.168 -2.57,4.29 -4.502,6.32c0.18,0.515 0.21,1.091 0.045,1.647c-1.767,5.946 -6.719,6.905 -9.838,6.881c-0.8,-0.006 -1.587,-0.157 -2.332,-0.434c-0.967,0.426 -1.966,0.845 -3.039,1.249c-5.573,2.1 -7.33,5.481 -5.236,14.25s12.566,7.673 12.566,7.673c8.377,8.77 7.33,3.289 18.849,3.289s26.179,-13.154 26.179,-13.154c4.189,9.866 16.754,12.058 16.754,12.058c1.047,9.866 9.424,7.673 9.424,7.673c0,17.539 9.424,26.308 11.519,30.693c1.523,3.188 -0.276,7.535 -1.371,9.671c-0.394,0.768 -1.133,1.273 -1.963,1.34c-6.788,0.543 -9.508,5.537 -10.597,9.451c-0.663,2.381 1.086,5.279 3.455,5.279l20.911,0c1.36,0 2.598,-1.332 3.207,-2.605c2.114,-4.424 6.338,-15.201 3.113,-25.328c-4.189,-13.154 0,-21.924 0,-21.924l6.267,1.35c10.754,2.317 19.776,2.437 30.505,0c25.085,-5.698 27.445,-20.203 27.445,-20.203c2.524,7.928 12.938,11.892 21.773,21.142c5.974,6.254 5.024,18.55 3.781,25.858c-0.516,3.035 -2.602,5.595 -5.457,6.35c-3.182,0.841 -5.568,2.662 -7.345,4.768c-3.472,4.113 -0.684,10.594 4.56,10.594l21.576,0c3.784,0 6.309,-3.938 5.036,-7.669c-1.507,-4.418 -1.227,-9.291 0.778,-13.49l1.716,-3.592c1.751,-3.666 2.347,-7.818 1.704,-11.861l-1.803,-11.329z"/>
  <path id="svg_2" fill="#f98080" d="m75.797,116.776c-0.016,-3.318 -2.078,-5.17 -3.87,-6.226c-1.664,-0.98 -3.975,0.21 -4.419,2.197c-0.49,2.193 -1.774,5.116 -4.971,7.923c-6.28,5.514 -4.797,12.197 -4.797,12.197l7.647,3.993c16.008,-6.425 10.442,-13.506 10.41,-20.084z"/>
  <path id="svg_3" fill="#52565b" d="m252.536,194.084c-0.524,-1.216 -1.584,-2.092 -2.817,-2.428c-1.607,-0.438 -3.314,0.116 -4.385,1.444c-2.231,2.763 -5.014,8.027 -1.089,14.308c0.675,1.079 2.094,1.297 3.039,0.469c1.172,-1.028 2.641,-2.609 3.433,-4.588c0.2,-0.5 0.801,-0.655 1.191,-0.298c0.436,0.399 1.117,0.165 1.238,-0.427c0.371,-1.813 0.77,-5.277 -0.61,-8.48z"/>
  <path id="svg_4" fill="#f9bd55" d="m29.356,154.974c-4.871,-2.666 -19.039,-11.826 -23.781,-30.302c-0.373,-1.454 -2.406,-1.316 -2.602,0.175c-1.235,9.398 -1.039,26.507 13.303,38.388c1.265,1.048 2.829,1.643 4.442,1.655c3.119,0.024 8.071,-0.935 9.838,-6.881c0.351,-1.181 -0.152,-2.461 -1.2,-3.035z"/>
  <path id="svg_5" fill="#f9bd55" d="m37.413,142.152c-3.963,-2.355 -8.539,-6.24 -11.54,-12.485c-0.407,-0.847 -1.64,-0.49 -1.579,0.456c0.321,5.024 1.95,13.291 8.627,19.003c4.145,3.546 9.585,-3.947 4.492,-6.974z"/>
  <path id="svg_6" fill="#52565b" d="m200.315,252.88c-0.003,-0.002 -0.006,-0.003 -0.008,-0.005c-0.154,-0.108 -0.294,-0.232 -0.437,-0.353c-0.082,-0.07 -0.171,-0.132 -0.249,-0.206c-0.053,-0.05 -0.099,-0.108 -0.15,-0.16c-2.163,-2.178 -2.736,-5.917 -0.488,-8.649c0.034,-0.041 0.072,-0.081 0.107,-0.122c0.013,-0.016 0.022,-0.033 0.035,-0.048c0.095,-0.112 0.199,-0.22 0.297,-0.331c0.109,-0.123 0.216,-0.246 0.329,-0.367c0.13,-0.138 0.267,-0.27 0.403,-0.404c0.119,-0.117 0.234,-0.236 0.358,-0.351c0.142,-0.132 0.293,-0.257 0.441,-0.385c0.127,-0.109 0.25,-0.22 0.381,-0.326c0.157,-0.126 0.324,-0.244 0.488,-0.365c0.133,-0.098 0.262,-0.199 0.4,-0.294c0.174,-0.119 0.358,-0.228 0.539,-0.34c0.139,-0.086 0.273,-0.177 0.417,-0.259c0.195,-0.111 0.401,-0.211 0.603,-0.313c0.141,-0.071 0.276,-0.149 0.422,-0.216c0.234,-0.109 0.482,-0.204 0.727,-0.3c0.125,-0.049 0.243,-0.105 0.37,-0.151c0.378,-0.137 0.768,-0.26 1.172,-0.366c2.855,-0.755 4.941,-3.315 5.457,-6.35c0.311,-1.827 0.603,-3.966 0.773,-6.244c0.085,-1.139 0.14,-2.313 0.151,-3.5s-0.021,-2.388 -0.109,-3.58s-0.233,-2.376 -0.447,-3.531c-0.214,-1.154 -0.498,-2.279 -0.863,-3.352c-0.366,-1.073 -0.814,-2.095 -1.357,-3.044s-1.182,-1.825 -1.929,-2.607c-8.836,-9.249 -19.249,-13.214 -21.773,-21.142c0,0 -0.868,5.277 -7.053,10.715c3.846,2.952 8.297,6.113 12.418,10.426c5.974,6.254 5.024,18.55 3.781,25.858c-0.516,3.035 -2.602,5.595 -5.457,6.35c-3.267,0.864 -5.696,2.761 -7.487,4.938c-3.357,4.08 -0.442,10.423 4.702,10.423l16.409,0c-0.322,0 -0.635,-0.025 -0.939,-0.073c-0.915,-0.14 -1.731,-0.486 -2.434,-0.976z"/>
  <path id="svg_7" fill="#52565b" d="m91.469,248.651c0.73,-2.622 2.199,-5.723 5.125,-7.652c0.882,-3.333 1.353,-7.019 0.992,-10.854c-0.495,-5.27 0.068,-9.625 0.951,-13.005c-2.371,-4.636 -4.431,-10.672 -4.618,-18.516l-0.812,-0.991c-2.099,0.262 -7.798,0.214 -8.65,-7.81c0,0 -2.217,-0.39 -5.096,-1.567c-4.227,12.41 -3.526,24.489 2.47,40.135c1.164,3.036 -2.33,13.901 -4.705,13.375c-11.068,-2.451 -14.368,3.645 -15.332,8.065c-0.458,2.101 1.071,4.099 3.129,4.099l23.857,0c1.04,0 2.013,-0.522 2.614,-1.41c0.15,-0.222 0.304,-0.461 0.458,-0.702c-0.496,-0.96 -0.676,-2.114 -0.383,-3.167z"/>
  <path id="svg_8" d="m186.371,187.719c-0.878,0 -1.73,-0.464 -2.187,-1.288c-0.401,-0.724 -9.716,-17.926 -0.312,-34.801c0.671,-1.206 2.194,-1.64 3.4,-0.967c1.206,0.672 1.639,2.194 0.967,3.4c-8.028,14.408 0.236,29.795 0.321,29.949c0.664,1.208 0.225,2.729 -0.983,3.395c-0.383,0.211 -0.797,0.312 -1.206,0.312z"/>
  <path id="svg_9" d="m203.684,256.43l-16.409,0c-3.322,0 -6.294,-1.925 -7.757,-5.024c-1.503,-3.183 -1.071,-6.818 1.125,-9.487c2.405,-2.922 5.358,-4.863 8.779,-5.767c1.84,-0.486 3.265,-2.194 3.632,-4.352c1.102,-6.481 2.161,-18.179 -3.124,-23.711c-3.358,-3.516 -6.905,-6.204 -10.335,-8.803c-0.611,-0.463 -1.21,-0.917 -1.797,-1.368c-0.593,-0.455 -0.951,-1.152 -0.976,-1.9c-0.025,-0.747 0.286,-1.467 0.848,-1.96c5.345,-4.7 6.207,-9.083 6.241,-9.268c0.208,-1.127 1.16,-1.981 2.304,-2.053c1.144,-0.069 2.193,0.631 2.542,1.724c1.288,4.043 5.257,7.05 10.284,10.857c3.417,2.588 7.29,5.521 10.916,9.316c0.862,0.903 1.633,1.943 2.291,3.092c0.604,1.054 1.126,2.224 1.554,3.48c0.39,1.143 0.711,2.388 0.956,3.702c0.222,1.198 0.384,2.477 0.482,3.803c0.089,1.206 0.128,2.481 0.116,3.788c-0.012,1.179 -0.065,2.411 -0.158,3.663c-0.157,2.09 -0.427,4.269 -0.802,6.477c-0.695,4.085 -3.554,7.362 -7.284,8.348c-0.33,0.087 -0.65,0.188 -0.961,0.3l-0.408,0.168c-0.165,0.065 -0.329,0.128 -0.486,0.201l-0.498,0.256c-0.114,0.057 -0.229,0.113 -0.338,0.176c-0.061,0.035 -0.118,0.073 -0.176,0.11l-0.286,0.179c-0.109,0.067 -0.219,0.133 -0.324,0.205l-0.438,0.323c-0.1,0.073 -0.2,0.145 -0.296,0.222l-0.409,0.351c-0.094,0.081 -0.189,0.161 -0.279,0.244c-0.065,0.061 -0.131,0.128 -0.198,0.194l-0.096,0.096c-0.002,0.003 -0.073,0.072 -0.076,0.075c-0.09,0.089 -0.182,0.178 -0.269,0.27c-0.07,0.075 -0.138,0.152 -0.206,0.229c-0.001,0.001 -0.068,0.078 -0.07,0.079l-0.22,0.243c-0.007,0.01 -0.014,0.019 -0.021,0.027l-0.152,0.178c-1.439,1.749 -0.9,4.031 0.344,5.283c0.019,0.02 0.063,0.066 0.1,0.106l0.146,0.118c0.116,0.099 0.175,0.154 0.236,0.199c0.007,0.004 0.014,0.009 0.021,0.014c0.417,0.292 0.883,0.479 1.382,0.557c0.181,0.028 0.368,0.042 0.555,0.042c1.381,0 2.5,1.119 2.5,2.5s-1.125,2.498 -2.505,2.498zm-20.539,-60.726c3.287,2.493 6.951,5.322 10.399,8.931c6.454,6.756 5.976,18.958 4.438,28.003c-0.695,4.086 -3.554,7.362 -7.284,8.348c-2.386,0.631 -4.471,2.014 -6.195,4.11c-0.97,1.178 -1.144,2.739 -0.465,4.175c0.639,1.352 1.848,2.159 3.236,2.159l8.652,0c-1.473,-3.057 -1.131,-6.77 1.125,-9.511c0.016,-0.019 0.057,-0.066 0.089,-0.104c0.025,-0.033 0.05,-0.064 0.073,-0.091c0.083,-0.098 0.17,-0.194 0.258,-0.29l0.086,-0.094c0.159,-0.181 0.264,-0.299 0.374,-0.416c0.13,-0.138 0.266,-0.271 0.401,-0.405l0.141,-0.14c0.11,-0.11 0.22,-0.22 0.336,-0.327c0.142,-0.132 0.286,-0.256 0.43,-0.379l0.185,-0.16c0.112,-0.098 0.225,-0.195 0.342,-0.289c0.155,-0.125 0.315,-0.242 0.476,-0.359l0.212,-0.156c0.116,-0.087 0.232,-0.174 0.354,-0.257c0.174,-0.119 0.354,-0.23 0.533,-0.34l0.21,-0.131c0.126,-0.081 0.252,-0.16 0.384,-0.235c0.187,-0.107 0.381,-0.206 0.577,-0.304l0.252,-0.129c0.128,-0.068 0.256,-0.134 0.389,-0.196c0.24,-0.111 0.495,-0.213 0.75,-0.314l0.198,-0.08c0.112,-0.048 0.224,-0.094 0.341,-0.137c0.451,-0.163 0.911,-0.308 1.386,-0.434c1.841,-0.486 3.267,-2.195 3.633,-4.352c0.35,-2.055 0.6,-4.077 0.745,-6.012c0.085,-1.144 0.134,-2.267 0.145,-3.338c0.011,-1.168 -0.023,-2.302 -0.103,-3.371c-0.085,-1.145 -0.224,-2.241 -0.412,-3.26c-0.2,-1.075 -0.459,-2.085 -0.772,-3c-0.325,-0.955 -0.715,-1.832 -1.16,-2.609c-0.457,-0.798 -0.984,-1.512 -1.567,-2.123c-3.349,-3.505 -6.892,-6.189 -10.318,-8.784c-3.667,-2.777 -7.001,-5.302 -9.342,-8.32c-0.832,1.433 -1.974,3.05 -3.532,4.721z"/>
  <path id="svg_10" d="m22.675,190.13c-0.562,0 -1.126,-0.188 -1.593,-0.574c-1.063,-0.881 -1.212,-2.457 -0.332,-3.52c0.309,-0.373 7.653,-9.127 16.062,-9.127c6.934,0 9.315,-1.005 10.758,-2.516c0.952,-0.999 2.535,-1.036 3.535,-0.081c0.998,0.954 1.035,2.536 0.081,3.535c-2.792,2.923 -6.822,4.062 -14.373,4.062c-5.049,0 -10.526,5.281 -12.211,7.315c-0.495,0.598 -1.208,0.906 -1.927,0.906z"/>
  <path id="svg_11" d="m20.835,167.392c-0.046,0 -0.092,0 -0.138,0c-2.164,-0.017 -4.301,-0.809 -6.017,-2.229c-15.323,-12.696 -15.465,-30.913 -14.186,-40.641c0.245,-1.867 1.714,-3.25 3.571,-3.362c1.867,-0.106 3.465,1.077 3.931,2.891c4.54,17.687 18.416,26.463 22.56,28.731c2.074,1.135 3.082,3.633 2.396,5.941c-1.64,5.515 -6.052,8.669 -12.117,8.669zm-15.823,-36.324c-0.155,8.993 2.027,21.27 12.858,30.243c0.832,0.689 1.85,1.073 2.867,1.081l0.103,0c3.853,0 6.314,-1.713 7.319,-5.094c0.02,-0.067 -0.003,-0.12 -0.014,-0.136c-5.263,-2.883 -17.164,-10.818 -23.133,-26.094z"/>
  <path id="svg_12" d="m21.105,177.525c-1.06,0 -2.043,-0.679 -2.382,-1.742c-0.009,-0.028 -0.017,-0.051 -0.025,-0.071c-0.367,-0.041 -1.213,0.193 -1.669,0.431c-1.224,0.641 -2.734,0.168 -3.374,-1.056c-0.64,-1.223 -0.168,-2.734 1.056,-3.374c0.548,-0.287 3.413,-1.663 5.972,-0.61c0.944,0.388 2.197,1.252 2.805,3.163c0.419,1.315 -0.308,2.722 -1.624,3.141c-0.252,0.08 -0.508,0.118 -0.759,0.118z"/>
  <path id="svg_13" d="m35.267,152.564c-1.407,0 -2.783,-0.521 -3.972,-1.539c-7.52,-6.434 -9.178,-15.758 -9.497,-20.743c-0.105,-1.639 0.922,-3.072 2.498,-3.484c1.554,-0.407 3.129,0.328 3.83,1.786c2.294,4.774 5.849,8.616 10.564,11.419c2.249,1.336 3.44,3.51 3.269,5.964c-0.185,2.643 -1.938,5.101 -4.364,6.116c-0.767,0.322 -1.553,0.481 -2.328,0.481zm-6.911,-14.683c1.128,3.234 3.022,6.636 6.19,9.346c0.492,0.421 0.828,0.366 1.117,0.246c0.669,-0.28 1.256,-1.112 1.308,-1.854c0.025,-0.367 -0.046,-0.848 -0.835,-1.317c-2.955,-1.757 -5.573,-3.924 -7.78,-6.421z"/>
  <path id="svg_14" d="m65.388,139.36c-0.991,0 -1.929,-0.593 -2.321,-1.569c-0.514,-1.281 0.108,-2.737 1.389,-3.251c10.892,-4.371 10.246,-8.113 9.353,-13.292c-0.248,-1.436 -0.504,-2.92 -0.512,-4.459c-0.009,-1.73 -0.847,-3.029 -2.639,-4.084c-0.025,-0.009 -0.146,-0.006 -0.3,0.078c-0.163,0.089 -0.357,0.27 -0.41,0.51c-0.533,2.383 -1.965,5.923 -5.761,9.256c-5.109,4.486 -4.017,9.725 -4.006,9.777c0.299,1.348 -0.551,2.683 -1.899,2.982c-1.349,0.299 -2.684,-0.552 -2.982,-1.899c-0.074,-0.332 -1.72,-8.2 5.588,-14.617c2.784,-2.445 3.81,-4.933 4.18,-6.59c0.399,-1.788 1.658,-3.298 3.367,-4.039c1.596,-0.692 3.333,-0.607 4.761,0.234c4.193,2.471 5.088,5.914 5.101,8.367c0.005,1.124 0.216,2.343 0.439,3.634c0.939,5.446 2.227,12.905 -12.417,18.782c-0.306,0.123 -0.621,0.18 -0.931,0.18z"/>
  <path id="svg_15" d="m225.26,256.43l-21.576,0c-3.333,0 -6.297,-1.926 -7.737,-5.026c-1.512,-3.254 -1.026,-6.963 1.267,-9.68c2.375,-2.814 5.275,-4.689 8.617,-5.572c1.839,-0.486 3.265,-2.194 3.631,-4.352c1.102,-6.48 2.161,-18.179 -3.124,-23.712c-3.349,-3.505 -6.892,-6.189 -10.319,-8.784c-3.662,-2.773 -6.991,-5.294 -9.331,-8.306c-3.055,5.265 -10.302,13.023 -27.208,16.863c-10.785,2.45 -20.231,2.452 -31.585,0.006l-4.113,-0.886c-0.856,3.035 -1.99,9.639 0.754,18.257c3.517,11.043 -1.094,22.676 -3.24,27.164c-0.887,1.857 -2.851,4.027 -5.462,4.027l-20.91,0c-1.778,0 -3.47,-0.885 -4.642,-2.428c-1.308,-1.722 -1.776,-4.03 -1.221,-6.022c1.881,-6.759 6.429,-10.762 12.806,-11.272c1.526,-3.085 2.027,-5.872 1.278,-7.441c-0.37,-0.773 -1.141,-1.89 -2.034,-3.183c-3.407,-4.932 -8.963,-12.974 -9.657,-25.886c-1.515,-0.065 -3.381,-0.451 -5.115,-1.649c-2.087,-1.442 -3.458,-3.682 -4.088,-6.674c-3.441,-0.926 -11.005,-3.626 -15.298,-10.223c-4.812,3.845 -15.884,11.767 -25.428,11.767c-3.642,0 -5.887,0.589 -7.69,1.062c-4.466,1.171 -6.793,1.114 -12.155,-4.29c-4.621,0.082 -12.123,-1.791 -14,-9.653c-2.274,-9.522 -0.308,-14.497 6.786,-17.171c0.917,-0.346 1.842,-0.726 2.913,-1.198c0.595,-0.263 1.268,-0.282 1.878,-0.055c0.485,0.18 0.983,0.273 1.481,0.277l0.103,0c3.853,0 6.314,-1.713 7.319,-5.094c0.012,-0.041 0,-0.085 -0.008,-0.109c-0.31,-0.885 -0.098,-1.869 0.549,-2.548c1.619,-1.702 2.959,-3.585 4.098,-5.757c0.465,-0.887 1.409,-1.413 2.415,-1.332c0.559,0.057 1.304,-0.572 1.614,-1.348c0.415,-1.039 -0.165,-1.506 -0.383,-1.682c-0.805,-0.651 -1.126,-1.731 -0.807,-2.716c0.238,-0.734 0.467,-1.467 0.696,-2.198c1.458,-4.65 2.964,-9.458 6.363,-13.807c5.248,-6.714 13.319,-6.195 16.753,-5.603c0.452,-0.493 0.933,-0.963 1.439,-1.407c2.784,-2.444 3.81,-4.933 4.18,-6.59c0.399,-1.788 1.658,-3.297 3.367,-4.039c1.598,-0.692 3.333,-0.607 4.761,0.234c3.661,2.157 4.808,5.055 5.048,7.389c12.47,-7.43 33.315,-16.181 53.246,-7.786c3.975,1.674 7.116,4.263 10.154,6.765c3.896,3.21 7.577,6.243 12.542,6.798c5.889,0.656 10.569,-0.728 17.048,-2.646c0.972,-0.288 1.979,-0.586 3.033,-0.89c4.398,-1.269 9.003,-1.046 13.319,0.642c3.252,1.272 9.096,2.789 18.465,2.789c10.396,0 22.191,7.41 29.351,18.438c5.733,8.831 13.492,27.819 1.039,55.773c-1.379,3.096 -1.822,6.53 -1.281,9.93l1.803,11.326c0.729,4.572 0.065,9.182 -1.917,13.332l-1.715,3.591c-1.715,3.591 -1.959,7.821 -0.668,11.605c0.892,2.616 0.482,5.495 -1.096,7.701c-1.49,2.085 -3.789,3.279 -6.308,3.279zm-38.887,-73.71c1.081,0 2.048,0.698 2.381,1.741c1.288,4.044 5.257,7.05 10.284,10.857c3.417,2.588 7.29,5.521 10.916,9.316c6.454,6.757 5.976,18.958 4.438,28.003c-0.695,4.085 -3.554,7.362 -7.284,8.348c-2.33,0.616 -4.374,1.949 -6.074,3.963c-1.224,1.45 -1.088,3.197 -0.553,4.348c0.62,1.335 1.817,2.133 3.203,2.133l21.576,0c1.212,0 1.924,-0.742 2.241,-1.184c0.642,-0.897 0.802,-2.085 0.43,-3.178c-1.709,-5.01 -1.385,-10.614 0.889,-15.374l1.715,-3.591c1.543,-3.231 2.059,-6.825 1.491,-10.391l-1.803,-11.326c-0.694,-4.359 -0.124,-8.768 1.651,-12.751c4.933,-11.072 11.406,-32.423 -0.665,-51.015c-5.053,-7.784 -15.082,-16.161 -25.157,-16.161c-8.148,0 -14.973,-1.054 -20.286,-3.133c-3.285,-1.285 -6.781,-1.455 -10.112,-0.494c-1.042,0.301 -2.038,0.596 -2.999,0.88c-6.776,2.006 -12.129,3.594 -19.023,2.82c-6.442,-0.72 -10.877,-4.374 -15.166,-7.907c-2.888,-2.379 -5.615,-4.626 -8.916,-6.017c-10.373,-4.37 -27.823,-6.264 -52.043,9.531c-0.708,0.46 -1.599,0.533 -2.371,0.195c-0.773,-0.339 -1.322,-1.046 -1.46,-1.878c-0.192,-1.152 -0.371,-2.393 -0.377,-3.665c-0.008,-1.731 -0.847,-3.029 -2.639,-4.085c-0.025,-0.009 -0.146,-0.006 -0.303,0.08c-0.162,0.09 -0.354,0.27 -0.407,0.507c-0.533,2.383 -1.964,5.923 -5.761,9.257c-0.662,0.581 -1.239,1.194 -1.766,1.876c-0.099,0.128 -0.21,0.247 -0.332,0.354c-0.017,0.015 -0.063,0.054 -0.08,0.068c-0.645,0.589 -1.497,0.753 -2.335,0.51c-0.335,-0.096 -8.471,-2.319 -13.038,3.524c-2.839,3.632 -4.147,7.805 -5.531,12.223c-0.089,0.283 -0.178,0.567 -0.267,0.851c1.237,1.736 1.493,3.948 0.632,6.104c-0.899,2.252 -2.788,3.873 -4.907,4.351c-0.997,1.724 -2.12,3.294 -3.399,4.756c0.01,0.524 -0.061,1.048 -0.213,1.56c-1.651,5.556 -6.16,8.707 -12.254,8.668c-0.728,-0.006 -1.451,-0.098 -2.162,-0.274c-0.811,0.346 -1.56,0.647 -2.308,0.929c-3.649,1.375 -5.717,2.824 -3.686,11.331c1.567,6.561 9.535,5.801 9.874,5.768c0.771,-0.081 1.534,0.2 2.068,0.759c4.476,4.686 5.027,4.543 8.082,3.741c1.972,-0.517 4.672,-1.225 8.959,-1.225c10.418,0 24.37,-12.391 24.51,-12.516c0.602,-0.539 1.425,-0.751 2.213,-0.579c0.787,0.176 1.442,0.72 1.757,1.463c3.593,8.463 14.775,10.553 14.888,10.573c1.095,0.196 1.934,1.092 2.051,2.198c0.253,2.385 1.006,4.026 2.237,4.876c1.714,1.185 4.045,0.648 4.068,0.642c0.749,-0.195 1.548,-0.034 2.161,0.439c0.613,0.474 0.972,1.205 0.972,1.979c0,12.947 5.321,20.649 8.842,25.746c1.057,1.529 1.891,2.737 2.432,3.87c1.97,4.125 -0.034,9.219 -1.403,11.889c-0.794,1.548 -2.285,2.555 -3.988,2.691c-4.251,0.34 -7.074,2.906 -8.388,7.629c-0.138,0.495 0.021,1.176 0.386,1.656c0.212,0.279 0.465,0.453 0.661,0.453l20.911,0c0.118,-0.05 0.624,-0.497 0.951,-1.183c1.889,-3.952 5.961,-14.15 2.986,-23.491c-4.438,-13.938 -0.062,-23.366 0.126,-23.76c0.5,-1.045 1.652,-1.61 2.782,-1.366l6.267,1.35c10.737,2.312 19.262,2.315 29.425,0.005c23.174,-5.264 25.51,-18.038 25.531,-18.167c0.186,-1.142 1.131,-2.007 2.284,-2.092c0.062,-0.006 0.124,-0.008 0.185,-0.008z"/>
  <path id="svg_16" d="m88.78,256.43l-23.856,0c-1.709,0 -3.313,-0.775 -4.402,-2.125c-1.131,-1.404 -1.557,-3.229 -1.169,-5.006c0.836,-3.83 2.759,-6.802 5.563,-8.595c3.064,-1.96 7.072,-2.48 11.917,-1.551c1.39,-1.86 3.194,-8.292 2.663,-9.873c-6.215,-16.215 -6.963,-28.727 -2.5,-41.831c0.222,-0.652 0.704,-1.184 1.331,-1.469s1.345,-0.299 1.982,-0.039c2.563,1.049 4.567,1.417 4.587,1.42c1.093,0.197 1.931,1.093 2.048,2.198c0.24,2.255 0.925,3.847 2.039,4.729c1.27,1.007 2.934,0.972 3.816,0.863c0.844,-0.104 1.698,0.232 2.243,0.896l0.812,0.991c0.354,0.431 0.552,0.968 0.566,1.525c0.15,6.312 1.571,12.015 4.344,17.438c0.28,0.546 0.348,1.176 0.193,1.77c-0.986,3.777 -1.283,7.862 -0.881,12.14c0.354,3.772 -0.004,7.718 -1.064,11.728c-0.157,0.594 -0.528,1.11 -1.042,1.448c-2.386,1.572 -3.542,4.258 -4.092,6.234c-0.11,0.396 -0.037,0.899 0.196,1.349c0.41,0.793 0.365,1.745 -0.116,2.497c-0.166,0.258 -0.33,0.514 -0.491,0.751c-1.065,1.574 -2.816,2.512 -4.687,2.512zm-16.351,-12.728c-1.942,0 -3.555,0.405 -4.819,1.214c-1.683,1.076 -2.818,2.909 -3.372,5.448c-0.09,0.413 0.095,0.7 0.179,0.804c0.096,0.119 0.263,0.262 0.508,0.262l23.855,0c0.088,0 0.174,-0.02 0.254,-0.057c-0.278,-1.133 -0.274,-2.312 0.027,-3.394c1.008,-3.623 2.841,-6.531 5.331,-8.474c0.743,-3.141 0.98,-6.207 0.706,-9.127c-0.424,-4.518 -0.157,-8.867 0.793,-12.945c-2.632,-5.413 -4.081,-11.076 -4.411,-17.239c-1.661,-0.068 -3.747,-0.516 -5.603,-1.988c-1.828,-1.45 -3.043,-3.576 -3.625,-6.336c-0.381,-0.103 -0.812,-0.228 -1.284,-0.377c-3.169,11.057 -2.169,21.992 3.201,36.003c1.42,3.707 -1.386,12.405 -3.761,15.161c-1.508,1.75 -3.038,1.725 -3.818,1.55c-1.522,-0.336 -2.91,-0.505 -4.161,-0.505zm19.04,4.948l0.01,0l-0.01,0z"/>
  <path id="svg_17" d="m122.682,153.409c-0.099,0 -0.199,-0.006 -0.299,-0.018c-1.371,-0.164 -2.35,-1.408 -2.186,-2.779c0.507,-4.249 -0.336,-7.726 -2.507,-10.333c-4.135,-4.965 -11.839,-5.506 -11.916,-5.511c-1.375,-0.087 -2.424,-1.271 -2.341,-2.647c0.084,-1.376 1.277,-2.42 2.637,-2.344c0.401,0.023 9.892,0.647 15.436,7.271c3.105,3.709 4.335,8.473 3.656,14.157c-0.153,1.27 -1.232,2.204 -2.48,2.204z"/>
  <path id="svg_18" d="m122.154,206.574c-0.315,0 -0.636,-0.06 -0.947,-0.187c-1.277,-0.523 -1.889,-1.983 -1.366,-3.261c0.86,-2.1 4.229,-7.554 5.889,-9.867c1.174,-1.636 1.334,-3.805 0.38,-5.157c-7.486,-10.617 -6.493,-23.177 -6.447,-23.707c0.12,-1.375 1.336,-2.394 2.707,-2.274c1.375,0.12 2.393,1.33 2.274,2.704c-0.016,0.198 -0.831,11.345 5.551,20.396c2.176,3.086 2.01,7.59 -0.404,10.954c-1.564,2.179 -4.693,7.305 -5.325,8.848c-0.394,0.965 -1.327,1.551 -2.312,1.551z"/>
  <path id="svg_19" d="m53.887,160.438c-0.184,0 -0.37,-0.021 -0.557,-0.062c-1.346,-0.306 -2.189,-1.646 -1.884,-2.992c0.275,-1.209 -0.398,-2.417 -1.501,-2.692c-0.614,-0.152 -1.103,0.038 -1.406,0.225c-0.489,0.301 -0.834,0.797 -0.97,1.396c-0.306,1.346 -1.646,2.191 -2.992,1.884c-1.346,-0.306 -2.189,-1.646 -1.884,-2.992c0.437,-1.92 1.582,-3.534 3.225,-4.545c1.583,-0.974 3.442,-1.266 5.235,-0.818c3.724,0.927 6.043,4.809 5.169,8.652c-0.263,1.157 -1.294,1.944 -2.435,1.944z"/>
  <path id="svg_20" d="m173.464,168.207c-1.077,0 -2.071,-0.701 -2.395,-1.786c-5.619,-18.823 3.459,-27.414 3.849,-27.771c1.017,-0.934 2.599,-0.864 3.532,0.155c0.928,1.013 0.864,2.583 -0.139,3.518c-0.33,0.316 -7.105,7.073 -2.451,22.668c0.395,1.323 -0.357,2.715 -1.681,3.11c-0.238,0.072 -0.478,0.106 -0.715,0.106z"/>
  <path id="svg_21" d="m67.705,180.265c-0.968,0 -1.889,-0.565 -2.297,-1.511c-0.546,-1.268 0.039,-2.739 1.306,-3.286c4.905,-2.114 7.701,-4.672 8.309,-7.601c0.854,-4.116 -2.813,-8.075 -2.851,-8.115c-0.943,-1.003 -0.901,-2.583 0.098,-3.531c1,-0.947 2.574,-0.911 3.524,0.084c0.225,0.236 5.494,5.845 4.133,12.534c-0.943,4.639 -4.723,8.414 -11.234,11.22c-0.322,0.14 -0.658,0.206 -0.988,0.206z"/>
  <path id="svg_22" d="m245.962,210.88c-0.216,0 -0.433,-0.016 -0.649,-0.047c-1.312,-0.193 -2.474,-0.958 -3.188,-2.099c-3.501,-5.603 -3.04,-11.873 1.263,-17.204c1.685,-2.087 4.428,-2.984 6.989,-2.285c2.014,0.549 3.637,1.953 4.454,3.851c1.653,3.837 1.188,7.893 0.763,9.969c-0.238,1.161 -1.078,2.105 -2.192,2.467c-0.352,0.114 -0.715,0.163 -1.076,0.155c-1.003,1.762 -2.344,3.148 -3.395,4.07c-0.831,0.729 -1.887,1.123 -2.969,1.123zm2.659,-16.871c-0.508,0 -0.997,0.234 -1.341,0.662c-2.882,3.57 -3.286,7.243 -1.205,10.925c0.838,-0.802 1.796,-1.924 2.322,-3.235c0.401,-1.004 1.264,-1.746 2.306,-1.983c0.082,-0.019 0.164,-0.034 0.246,-0.046c0.132,-1.524 0.063,-3.467 -0.708,-5.257c-0.208,-0.485 -0.649,-0.861 -1.178,-1.005c-0.148,-0.042 -0.296,-0.061 -0.442,-0.061zm1.599,10.826c0.002,0.002 0.005,0.004 0.008,0.007c-0.002,-0.002 -0.005,-0.004 -0.008,-0.007z"/>
  <path id="svg_23" d="m249.289,193.57c-0.156,0 -0.314,-0.015 -0.474,-0.045c-1.356,-0.26 -2.245,-1.569 -1.984,-2.926c6.17,-32.2 -11.559,-42.333 -11.739,-42.432c-1.21,-0.664 -1.654,-2.183 -0.99,-3.394c0.663,-1.21 2.183,-1.655 3.394,-0.99c0.864,0.474 21.094,12.021 14.246,47.757c-0.23,1.197 -1.278,2.03 -2.453,2.03z"/>
 </g>
</svg>