<svg width="512" height="512" xmlns="http://www.w3.org/2000/svg">

 <g>
  <title>background</title>
  <rect fill="none" id="canvas_background" height="402" width="582" y="-1" x="-1"/>
 </g>
 <g>
  <title>Layer 1</title>
  <path id="svg_1" fill="#FFC88C" d="m491.679,429.01c-3.683,0 -7.111,-0.496 -9.516,-1.071c-24.182,-5.806 -29.214,-31.436 -32.889,-50.15l-1.103,-5.536c-10.54,-50.484 -33.071,-75.48 -75.357,-83.583c-4.405,-0.841 -7.294,-5.099 -6.452,-9.508c0.841,-4.413 5.103,-7.309 9.516,-6.452c49.071,9.401 76.277,39.079 88.198,96.225l1.151,5.722c3.921,19.972 7.698,34.349 20.73,37.476c3.754,0.897 8.127,0.71 10.079,0.139c1,-3.595 4.262,-6.182 8.27,-5.94c4.476,0.238 7.921,4.067 7.682,8.548c-0.222,4.048 -2.167,7.647 -5.5,10.131c-4.071,3.038 -9.69,3.999 -14.809,3.999z"/>
  <g id="svg_2">
   <path id="svg_3" fill="#D26437" d="m321.014,382.963c0.563,23.619 13.206,103.957 13.206,103.957l-7.096,0c-5.685,0 -10.957,2.97 -13.902,7.833l-5.223,8.625c-2.107,3.478 0.398,7.923 4.464,7.923l21.545,0c5.235,0 10.15,-2.522 13.203,-6.775l11.202,-15.602c1.888,-2.63 2.872,-5.736 2.989,-8.972c0.917,-25.323 8.484,-54.1 12.437,-66.174l-32.508,-40.635l-20.317,9.82z"/>
   <path id="svg_4" fill="#D26437" d="m203.173,397.524l-48.762,0l34.19,89.396c-6.033,0 -11.569,3.341 -14.38,8.678l-4.519,8.577c-1.705,3.236 0.642,7.125 4.3,7.125l18.399,0c6.529,0 12.425,-3.907 14.969,-9.921l7.708,-18.218c1.207,-2.853 1.574,-5.991 1.057,-9.045l-12.962,-76.592z"/>
  </g>
  <path id="svg_5" fill="#FFC88C" d="m145.703,348.762l0,62.496c98.79,-0.955 159.595,-17.96 187.501,-28.246l0,-34.25l-187.501,0z"/>
  <path id="svg_6" fill="#EB874B" d="m415.997,340.446l0,-22.686c0,-20.411 -13.651,-38.386 -33.375,-43.634c-0.159,-0.042 -8.275,-1.743 -8.275,-1.743c-52.924,-10.142 -150.911,9.069 -176.398,9.651c-33.527,0.765 -62.534,-18.606 -90.114,-27.003c-12.239,-3.726 -25.28,-3.934 -37.826,-1.428l-16.026,3.202c-20.991,3.98 -28.247,8.805 -35.987,21.601c-7.591,12.547 -17.996,44.988 -17.996,44.988s24.381,32.798 32.508,24.671c9.492,-9.492 18.963,-15.238 30.476,-15.674c7.184,-0.272 15.896,2.927 23.626,-0.936c39.543,58.07 -5.34,154.767 -5.34,154.767l-2.328,0c-6.212,0 -11.881,3.541 -14.606,9.124l-4.178,8.559c-1.509,3.093 0.742,6.697 4.184,6.697l20.172,0c3.543,0 7.052,-1.05 9.819,-3.263c38.322,-30.637 69.259,-106.356 78.744,-131.427c1.976,-5.223 6.457,-9.106 11.933,-10.2c1,-0.2 2.076,-0.408 3.223,-0.622l33.56,-4.247c26.939,-1.841 61.552,-0.375 91.743,12.994c5.352,2.37 10.053,6.089 13.413,10.882c15.573,22.217 39.083,30.025 66.192,51.217c24.042,18.794 24.921,50.285 24.921,50.285c-6.996,0 -13.207,4.477 -15.42,11.114l-2.38,7.139c-1.005,3.014 1.239,6.127 4.416,6.127l26.781,0c4.192,0 7.696,-3.188 8.091,-7.362l6.956,-73.55c0.192,-2.031 -0.364,-4.019 -1.596,-5.645c-6.716,-8.86 -28.913,-41.35 -28.913,-83.598z"/>
  <g id="svg_7">
   <path id="svg_8" fill="#D26437" d="m67.145,245.628c-4.119,2.612 -10.03,7.514 -14.295,15.866c-1.834,3.591 0.661,7.884 4.687,8.092l18.213,0.939c3.651,0.188 6.502,-3.127 5.745,-6.703c-1.012,-4.784 -2.852,-11.15 -6.076,-16.314c-1.755,-2.81 -5.476,-3.654 -8.274,-1.88z"/>
   <path id="svg_9" fill="#D26437" d="m100.69,473.592c32.028,-61.24 18.72,-118.542 9.844,-143.796c-2.12,-6.033 -9.607,-8.32 -14.621,-4.351c-2.764,2.188 -5.911,4.276 -9.303,6.011c39.543,58.07 -5.34,154.767 -5.34,154.767l0,0c8.215,-0.535 15.605,-5.335 19.42,-12.631z"/>
  </g>
  <path id="svg_10" fill="#FFC88C" d="m32.508,348.065c9.492,-9.492 18.963,-15.238 30.476,-15.673c7.184,-0.272 15.896,2.927 23.626,-0.936c-1.341,0.544 -2.828,0.249 -4.464,-0.582c-6.121,-3.111 -14.328,-13.738 -24.749,-16.142c-13.207,-3.049 -35.048,26.637 -57.397,8.662c0,0 24.381,32.798 32.508,24.671z"/>
  <g id="svg_11">
   <path id="svg_12" fill="#8B534F" d="m274.922,342.671c-0.905,0 -1.825,-0.155 -2.722,-0.472c-4.23,-1.504 -6.436,-6.151 -4.936,-10.381l10.833,-30.476c1.5,-4.23 6.159,-6.432 10.381,-4.936c4.23,1.504 6.436,6.151 4.936,10.381l-10.833,30.476c-1.183,3.329 -4.318,5.408 -7.659,5.408z"/>
   <path id="svg_13" fill="#8B534F" d="m369.056,348.429c-0.897,0 -1.802,-0.151 -2.698,-0.464c-4.23,-1.488 -6.46,-6.127 -4.968,-10.361l10.833,-30.817c1.484,-4.242 6.111,-6.456 10.365,-4.972c4.23,1.488 6.46,6.127 4.968,10.361l-10.833,30.817c-1.175,3.345 -4.317,5.436 -7.667,5.436z"/>
   <path id="svg_14" fill="#8B534F" d="m194.661,341.655c-3.579,0 -6.857,-2.385 -7.833,-6.004l-5.421,-19.98c-1.175,-4.329 1.381,-8.794 5.714,-9.972c4.341,-1.159 8.802,1.385 9.968,5.718l5.421,19.98c1.175,4.329 -1.381,8.794 -5.714,9.972c-0.715,0.191 -1.429,0.286 -2.135,0.286z"/>
  </g>
  <circle id="svg_15" fill="#4B3F4E" r="4.063" cy="287.81" cx="36.571"/>
  <path id="svg_16" fill="#5D5360" d="m14.391,329.461c0,-6.733 -5.458,-12.19 -12.19,-12.19c-0.058,0 -0.112,0.016 -0.17,0.017c-1.256,3.697 -2.031,6.106 -2.031,6.106s5.217,6.993 11.616,13.723c1.709,-2.098 2.775,-4.739 2.775,-7.656z"/>
  <g id="svg_17">
   <path id="svg_18" fill="#FFC88C" d="m64.341,510.603l20.172,0c3.544,0 7.053,-1.051 9.821,-3.264c7.113,-5.687 13.968,-12.936 20.482,-21.117l-33.547,0l-2.328,0c-6.213,0 -11.881,3.542 -14.607,9.124l-4.178,8.559c-1.508,3.094 0.744,6.698 4.185,6.698z"/>
   <path id="svg_19" fill="#FFC88C" d="m418.062,486.223c-6.996,0 -13.208,4.477 -15.42,11.114l-2.38,7.139c-1.005,3.015 1.239,6.128 4.417,6.128l26.781,0c4.192,0 7.696,-3.188 8.091,-7.362l1.609,-17.019l-23.098,0z"/>
  </g>
  <g id="svg_20">
   <path id="svg_21" fill="#FFBE82" d="m334.22,486.92l-7.096,0c-5.685,0 -10.957,2.97 -13.902,7.833l-5.223,8.624c-2.107,3.478 0.398,7.923 4.464,7.923l21.544,0c5.236,0 10.15,-2.522 13.203,-6.775l11.202,-15.602c0.444,-0.619 0.671,-1.337 1.016,-2.004l-25.208,0.001l0,0z"/>
   <path id="svg_22" fill="#FFBE82" d="m188.601,486.92c-6.033,0 -11.569,3.341 -14.38,8.678l-4.519,8.577c-1.705,3.236 0.642,7.125 4.3,7.125l18.399,0c6.529,0 12.425,-3.907 14.969,-9.921l6.118,-14.46l-24.887,0.001l0,0z"/>
  </g>
  <path id="svg_23" fill="#8B534F" d="m115.09,257.481l0,39.135c0,4.488 3.635,8.127 8.127,8.127s8.127,-3.639 8.127,-8.127l0,-32.656c-5.495,-2.324 -10.906,-4.545 -16.254,-6.479z"/>
  <g id="svg_24">
   <path id="svg_25" fill="#734650" d="m155.144,273.653l-31.586,105.28c-1.286,4.302 1.151,8.833 5.452,10.123c0.778,0.234 1.563,0.345 2.333,0.345c3.5,0 6.73,-2.274 7.786,-5.794l31.518,-105.055c-5.265,-1.367 -10.431,-3.035 -15.503,-4.899z"/>
   <path id="svg_26" fill="#734650" d="m227.137,331.318c1.008,3.587 4.27,5.936 7.817,5.936c0.73,0 1.468,-0.099 2.206,-0.306c4.317,-1.214 6.841,-5.698 5.627,-10.02l-13.504,-48.134c-6.057,0.769 -11.483,1.435 -16.327,1.978l14.181,50.546z"/>
   <path id="svg_27" fill="#734650" d="m332.212,269.506l-16.775,70.256c-1.04,4.369 1.651,8.75 6.016,9.794c0.635,0.151 1.27,0.222 1.897,0.222c3.675,0 7.008,-2.508 7.897,-6.238l17.622,-73.805c-5.381,-0.225 -10.944,-0.297 -16.657,-0.229z"/>
   <path id="svg_28" fill="#734650" d="m416.052,342.148l-40.654,33.531c-3.46,2.857 -3.952,7.98 -1.095,11.44c1.611,1.948 3.929,2.956 6.278,2.956c1.817,0 3.651,-0.607 5.167,-1.857l32.131,-26.501c-1.077,-6.223 -1.73,-12.764 -1.827,-19.569z"/>
  </g>
  <path id="svg_29" fill="#8B534F" d="m425.52,388.948l-16.297,10.988c-3.722,2.508 -4.706,7.559 -2.198,11.282c1.571,2.329 4.135,3.583 6.746,3.583c1.563,0 3.143,-0.448 4.532,-1.389l14.051,-9.474c-2.321,-4.454 -4.667,-9.459 -6.834,-14.99z"/>
  <g id="svg_30"/>
  <g id="svg_31"/>
  <g id="svg_32"/>
  <g id="svg_33"/>
  <g id="svg_34"/>
  <g id="svg_35"/>
  <g id="svg_36"/>
  <g id="svg_37"/>
  <g id="svg_38"/>
  <g id="svg_39"/>
  <g id="svg_40"/>
  <g id="svg_41"/>
  <g id="svg_42"/>
  <g id="svg_43"/>
  <g id="svg_44"/>
 </g>
</svg>