<svg width="350" height="350" xmlns="http://www.w3.org/2000/svg">
 <g>
  <title>background</title>
  <rect x="-1" y="-1" width="352" height="352" id="canvas_background" fill="none"/>
 </g>

 <g>
  <title>Layer 1</title>
  <path d="m109.352,226.549c-10.687,30.804 3.248,51.396 20.994,59.22c-0.164,9.636 -1.425,25.802 -4.678,40.561c-0.442,2.005 -1.805,3.704 -3.696,4.503c-3.607,1.524 -9.474,5.295 -10.798,13.958c-0.297,1.945 1.185,3.71 3.152,3.71l29.144,0c1.721,0 3.132,-1.366 3.188,-3.087l0.374,-11.588c0.028,-0.866 0.23,-1.71 0.595,-2.496c1.841,-3.959 7.824,-21.927 10.798,-40.481c20.487,0.976 45.779,-1.711 60.516,-10.2c3.365,6.576 8.528,13.149 16.208,19.28c0.785,0.627 1.111,1.668 0.793,2.621l-3.722,25.099c-0.233,1.312 -1.113,2.428 -2.35,2.927c-3.83,1.545 -11.954,5.974 -11.846,15.713c0.014,1.217 0.979,2.212 2.197,2.212l29.648,0c1.162,0 2.104,-0.942 2.104,-2.104l0,-7.216c0,-4.689 0.724,-9.349 2.179,-13.806c1.939,-5.943 5.203,-18.43 9.913,-25.22c2.178,-3.14 2.352,-7.299 0.295,-10.52c-2.748,-4.303 -5.448,-10.968 -3.085,-18.645c3.388,-11.01 15.103,-46.309 -11.486,-62.109c-10.216,-6.071 -22.697,-6.894 -33.899,-2.926c-14.03,4.97 -36.072,12.522 -52.659,0.597c-10.635,-7.645 -12.736,-19.593 -12.692,-19.49c-0.585,-2.383 -0.901,-4.83 -0.964,-7.284c-0.875,-34.148 -17.372,-46.863 -21.752,-49.645c-0.625,-0.397 -0.889,-1.155 -0.699,-1.871c5.794,-21.729 -14.938,-39.165 -19.197,-26.466c-2.985,8.9 0.062,16.762 2.256,20.805c0.631,1.162 -0.252,2.543 -1.572,2.475c-14.374,-0.744 -28.364,11.056 -34.606,30.394c-6.732,20.857 -13.139,16.33 -21.438,28.076c-5.024,7.111 -1.47,14.122 2.117,18.548c2.398,2.959 6.404,4.074 10,2.82c8.984,3.146 15.489,-2.663 20.77,-10.138s23.063,-7.718 23.063,-7.718s9.62,14.17 0.835,39.491z" fill="#e3e4e5" id="svg_1"/>
  <path d="m118.314,126.744c2.613,-22.917 -10.854,-23.154 -10.909,-23.155c-2.05,8.153 0.732,15.242 2.777,19.011c0.251,0.462 0.255,0.956 0.095,1.383l8.037,2.761z" fill="#fd605b" id="svg_2"/>
  <path d="m218.025,346.272c-0.099,-9.738 8.034,-14.162 11.857,-15.702c1.229,-0.495 2.105,-1.604 2.336,-2.909l3.724,-25.112c0.318,-0.953 -0.008,-1.994 -0.793,-2.621c-7.679,-6.13 -12.843,-12.703 -16.208,-19.28c-4.581,2.638 -10.191,4.708 -16.35,6.29c3.122,4.443 7.179,8.819 12.405,12.99c0.785,0.627 1.111,1.668 0.793,2.621l-3.724,25.112c-0.232,1.305 -1.107,2.414 -2.336,2.909c-3.823,1.54 -11.956,5.964 -11.857,15.702c0.012,1.225 0.974,2.228 2.199,2.228l20.153,0c-1.226,0 -2.187,-1.003 -2.199,-2.228z" fill="#e3e4e5" id="svg_3"/>
  <path d="m121.972,330.832c1.891,-0.799 3.254,-2.498 3.696,-4.503c3.253,-14.758 4.514,-30.925 4.678,-40.561c-5.45,-2.403 -10.473,-5.994 -14.533,-10.709l-8.065,18.863c-2.347,5.49 -1.951,11.767 1.067,16.918l10.206,21.553c1.052,-0.679 2.069,-1.189 2.951,-1.561z" fill="#e3e4e5" id="svg_4"/>
  <path d="m286.334,291.287c-2.073,-4.471 -2.985,-17.833 -3.777,-33.673c-0.902,-18.041 -11.725,-25.654 -18.742,-32.613c3.111,7.678 3.393,16.2 2.527,23.979c3.859,1.043 8.919,3.232 8.784,18.033c-0.124,13.609 3.744,23.323 6.229,27.081c0.677,1.024 1.923,1.505 3.112,1.197c1.743,-0.452 2.625,-2.369 1.867,-4.004z" fill="#e3e4e5" id="svg_5"/>
  <g fill="#52565b" id="svg_6">
   <path d="m251.974,346.39l0,-7.209c0,-2.091 0.155,-4.174 0.445,-6.238c-9.432,-4.635 -19.265,-3.201 -21.947,-2.681c-0.187,0.118 -0.381,0.225 -0.59,0.309c-3.823,1.54 -11.956,5.964 -11.857,15.702c0.012,1.225 0.974,2.228 2.199,2.228l29.647,0c1.165,-0.001 2.103,-0.946 2.103,-2.111z" id="svg_7"/>
   <path d="m218.025,346.272c-0.086,-8.483 6.073,-12.932 10.19,-14.956c-8.048,-2.605 -15.598,-1.501 -17.896,-1.056c-0.187,0.118 -0.381,0.225 -0.59,0.309c-3.823,1.54 -11.956,5.964 -11.857,15.702c0.012,1.225 0.974,2.228 2.199,2.228l20.153,0c-1.226,0.001 -2.187,-1.002 -2.199,-2.227z" id="svg_8"/>
   <path d="m123.972,329.459c-0.565,0.576 -1.237,1.051 -2,1.373c-3.608,1.524 -9.477,5.297 -10.799,13.964c-0.296,1.942 1.188,3.704 3.153,3.704l29.144,0c1.721,0 3.132,-1.366 3.188,-3.087l0.374,-11.588c0.005,-0.162 0.023,-0.323 0.04,-0.483c-8.954,-5.301 -18.8,-4.567 -23.1,-3.883z" id="svg_9"/>
   <path d="m85.454,194.777c0.152,-0.215 0.317,-0.423 0.489,-0.627c2.603,-10.844 -2.596,-13.244 -7.386,-15.06c-1.624,-0.616 -2.374,-2.437 -1.689,-4.033c3.185,-7.414 -1.131,-19.417 -2.075,-21.864c-0.274,0.748 -0.54,1.504 -0.789,2.277c-6.731,20.857 -13.138,16.33 -21.437,28.076c-5.024,7.111 -1.47,14.122 2.117,18.548c2.398,2.958 6.404,4.074 10,2.82c8.984,3.146 15.489,-2.663 20.77,-10.137z" id="svg_10"/>
   <path d="m104.169,187.35c2.582,-0.266 4.347,-0.291 4.347,-0.291s2.866,-0.498 6.553,-1.862c-3.391,-4.273 -7.991,-9.018 -13.409,-11.944c-0.904,-0.488 -1.915,0.479 -1.455,1.398c1.361,2.72 3.221,7.242 3.964,12.699z" id="svg_11"/>
   <path d="m122.983,181.156c2.871,-2.003 5.447,-4.618 6.903,-8.01c-3.142,-2.866 -6.833,-5.594 -10.867,-7.36c-0.941,-0.412 -1.869,0.636 -1.335,1.513c1.727,2.842 4.224,7.778 5.299,13.857z" id="svg_12"/>
   <path d="m149.576,179.778c-0.212,-8.262 -1.343,-15.259 -2.991,-21.175c-1.262,6.945 -4.917,20.737 -14.863,29.695c-0.772,0.696 -0.066,1.95 0.923,1.629c4.36,-1.414 10.919,-3.717 17.204,-6.596c-0.15,-1.178 -0.242,-2.365 -0.273,-3.553z" id="svg_13"/>
   <path d="m293.011,304.527c0.9,-2.22 1.535,-5.055 -0.092,-6.694c-4.547,-4.579 -0.551,-8.136 -7.113,-7.986c0.168,0.541 0.342,1.039 0.529,1.44c0.758,1.634 -0.124,3.552 -1.868,4.004c-1.189,0.308 -2.434,-0.173 -3.112,-1.197c-0.395,-0.597 -0.827,-1.362 -1.27,-2.252l-0.075,0.026c-0.511,0.529 -0.923,1.142 -1.169,1.841c-0.452,1.288 -0.425,2.886 0.819,4.704c3.318,4.848 -2.757,9.273 3.231,12.479c4.489,2.404 7.916,2.944 8.614,5.259c0.208,0.692 1.306,0.674 1.588,-0.013c0.677,-1.649 1.06,-3.784 0.065,-5.94c-0.825,-1.788 -0.906,-3.802 -0.147,-5.671z" id="svg_14"/>
   <path d="m282.557,257.614c-0.19,-3.802 -0.825,-7.137 -1.768,-10.104c-2.102,3.546 -4.255,7.062 -6.444,10.555c0.521,2.308 0.815,5.23 0.781,8.948c-0.006,0.676 0.005,1.334 0.018,1.99c0.805,-0.743 1.585,-1.528 2.394,-2.252c1.623,-1.452 3.416,-2.673 5.302,-3.752c-0.098,-1.757 -0.191,-3.552 -0.283,-5.385z" id="svg_15"/>
   <path d="m281.354,294.093c0.677,1.024 1.923,1.505 3.112,1.198c1.744,-0.452 2.626,-2.369 1.868,-4.004c-0.986,-2.127 -1.708,-6.284 -2.281,-11.747c-2.539,0.419 -5.078,0.838 -7.616,1.257c1.323,6.378 3.383,10.976 4.917,13.296z" id="svg_16"/>
   <path d="m250.026,311.043c-5.348,-0.045 -10.598,1.286 -15.75,2.744l-1.008,6.799c7.296,-0.718 14.697,-0.368 21.886,1.067c0.05,0.01 0.1,0.022 0.15,0.032c0.85,-2.777 1.87,-6.093 3.061,-9.425c-2.708,-0.778 -5.521,-1.194 -8.339,-1.217z" id="svg_17"/>
   <path d="m262.489,286.2c-2.364,1.921 -5.373,3.275 -8.219,4.46c-4.726,1.967 -9.451,3.935 -14.177,5.902c8.228,2.065 16.882,2.399 25.248,0.996c0.84,-2.625 0.548,-5.533 -0.979,-7.925c-0.65,-1.016 -1.295,-2.169 -1.873,-3.433z" id="svg_18"/>
   <path d="m256.815,277.981c1.18,-0.467 2.369,-0.909 3.562,-1.343c0.026,-1.719 0.281,-3.518 0.826,-5.377c-3.198,0.79 -6.27,2.442 -9.445,3.479c-5.532,1.807 -11.536,1.745 -17.081,3.51c-4.816,1.534 -9.264,4.433 -14.234,5.118c1.875,3.177 4.191,6.339 7.035,9.437c6.206,-1.304 12.018,-4.512 17.3,-8.132c1.887,-1.294 3.738,-2.649 5.726,-3.782c2.014,-1.148 4.155,-2.057 6.311,-2.91z" id="svg_19"/>
   <path d="m251.057,251.231c-10.325,2.839 -19.999,8.017 -28.088,15.033c4.449,-1.539 8.929,-3.086 13.585,-3.783c5.909,-0.885 11.931,-0.376 17.896,-0.717c3.351,-0.191 6.78,-0.697 9.938,-1.801c0.949,-3.984 1.796,-8.527 2.173,-13.293c-4.803,2.189 -10.338,3.14 -15.504,4.561z" id="svg_20"/>
   <path d="m264.592,227.105c-1.497,0.826 -3.106,1.482 -4.729,1.994c-3.802,1.199 -7.778,1.796 -11.549,3.087c-9.741,3.335 -17.297,10.963 -24.475,18.344c7.318,-4.14 14.792,-8.332 23.028,-10.023c5.537,-1.137 11.267,-1.108 16.789,-2.316c0.989,-0.217 1.98,-0.486 2.956,-0.807c-0.267,-3.473 -0.905,-6.939 -2.02,-10.279z" id="svg_21"/>
   <path d="m249.79,208.88c-6.619,-3.934 -14.189,-5.651 -21.745,-5.302c-0.143,1.21 -0.286,2.419 -0.429,3.629c-0.205,1.731 -0.427,3.517 -1.298,5.026c-1.075,1.863 -2.987,3.056 -4.808,4.199c-5.17,3.243 -10.358,6.824 -13.67,11.95c-4.555,7.049 -4.907,15.92 -5.118,24.31c-0.116,4.618 -0.232,9.237 -0.349,13.855c1.023,-9.063 2.209,-18.568 7.524,-25.98c5.622,-7.84 14.887,-12.012 23.461,-16.435c6.868,-3.543 13.915,-7.892 18.174,-14.13c-0.57,-0.379 -1.135,-0.761 -1.742,-1.122z" id="svg_22"/>
   <path d="m199.599,285.853c-3.492,-7.357 -9.717,-13.168 -13.072,-20.588c-3.32,-7.341 -3.532,-16.028 -0.576,-23.523c1.946,-4.933 5.145,-9.253 8.309,-13.51c4.94,-6.647 9.881,-13.295 14.821,-19.942c-6.393,2.08 -13.726,4.04 -21.164,4.518c-2.074,5.139 -5.16,10.081 -8.119,14.754c-5.785,9.138 -11.546,19.838 -8.609,30.247c2.096,7.43 8.188,12.908 13.63,18.385c3.653,3.677 7.254,7.883 9.193,12.586c2.138,-0.374 4.24,-0.797 6.288,-1.272c-0.208,-0.566 -0.447,-1.119 -0.701,-1.655z" id="svg_23"/>
   <path d="m169.798,291.006c1.088,-8.779 -0.209,-17.858 -3.816,-25.94c-2.726,-6.109 -6.774,-11.868 -7.395,-18.529c-1.18,-12.663 10.212,-23.63 13.523,-35.492c-3.072,-1.01 -6.055,-2.464 -8.878,-4.493c-2.068,-1.487 -3.81,-3.137 -5.279,-4.828c-0.198,0.813 -0.366,1.634 -0.482,2.463c-0.697,4.958 0.048,10.085 -1.115,14.956c-1.426,5.974 -5.556,10.918 -7.854,16.614c-3.971,9.842 -1.846,21.863 5.259,29.746c2.653,2.944 5.911,5.327 8.337,8.46c3.744,4.836 5.127,10.896 5.795,17.07c0.633,-0.007 1.268,-0.015 1.905,-0.027z" id="svg_24"/>
   <path d="m152.758,193.63c-1.745,-3.792 -2.239,-6.618 -2.217,-6.568c-0.108,-0.44 -0.197,-0.885 -0.287,-1.33c-2.08,1.316 -3.819,3.259 -5.058,5.405c-2.036,3.523 -2.947,7.565 -3.831,11.537c-1.292,5.806 -2.585,11.613 -3.878,17.419c-0.501,2.249 -1.043,4.588 -2.498,6.374c-2.245,2.757 -6.073,3.545 -9.062,5.471c-4.828,3.111 -7.077,8.864 -9.522,14.061c-2.15,4.57 -5.156,9.344 -9.667,11.254c1.114,4.941 3.02,9.349 5.507,13.196c3.39,-2.023 6.304,-5.267 8.324,-8.696c3.701,-6.283 5.757,-13.576 10.454,-19.153c3.594,-4.266 8.631,-7.393 11.178,-12.355c2.182,-4.253 2.212,-9.231 2.788,-13.976c0.969,-7.98 3.647,-15.741 7.769,-22.639z" id="svg_25"/>
   <path d="m120.969,207.396c-2.675,1.079 -5.426,2.046 -8.112,3.127c-0.365,4.387 -1.308,9.35 -3.121,14.859c2.852,-1.425 5.678,-2.901 8.471,-4.437c3.231,-1.776 6.487,-3.677 8.899,-6.465c2.356,-2.722 3.76,-6.117 5.126,-9.448c1.314,-3.205 2.628,-6.41 3.942,-9.615c-2.856,5.958 -9.078,9.508 -15.205,11.979z" id="svg_26"/>
   <path d="m129.236,303.416c0.19,-1.865 0.352,-3.678 0.49,-5.43c-2.022,-1.139 -4.348,-1.761 -6.562,-2.531c-4.704,-1.634 -9.108,-4.113 -12.967,-7.259l-2.448,5.726c-0.545,1.276 -0.936,2.595 -1.187,3.931c2.566,0.917 5.06,2.033 7.428,3.38c1.562,0.889 3.094,1.877 4.811,2.406c3.353,1.035 6.906,0.203 10.435,-0.223z" id="svg_27"/>
   <path d="m108.862,310.942l4.137,8.737c1.083,-0.457 2.129,-1.011 3.117,-1.64c2.823,-1.797 5.251,-4.138 7.658,-6.462c-4.676,-1.766 -9.869,-0.796 -14.912,-0.635z" id="svg_28"/>
   <path d="m235.535,305.298l0.408,-2.749c0.318,-0.953 -0.008,-1.994 -0.793,-2.621c-0.391,-0.312 -0.771,-0.626 -1.149,-0.941c-2.56,1.836 -5.074,3.743 -8.104,4.469c-3.331,0.798 -7.036,0.099 -10.335,0.632l-1.787,12.048c3.033,-0.266 6,-0.862 8.666,-2.289c2.64,-1.414 4.806,-3.554 7.234,-5.307c1.814,-1.31 3.791,-2.388 5.86,-3.242z" id="svg_29"/>
   <path d="m218.942,280.649c-4.581,2.638 -10.191,4.708 -16.35,6.29c2.466,3.51 5.528,6.977 9.277,10.335c0.311,-0.144 0.619,-0.291 0.923,-0.448c4.1,-2.108 7.547,-5.628 11.563,-7.71c-2.176,-2.799 -3.963,-5.633 -5.413,-8.467z" id="svg_30"/>
   <path d="m218.025,346.272c-0.099,-9.738 8.034,-14.162 11.857,-15.702c1.229,-0.495 2.105,-1.604 2.336,-2.909l1.055,-7.113c-4.588,-0.576 -9.33,0.044 -13.587,1.853c-1.209,0.513 -2.385,1.12 -3.651,1.471c-1.135,0.315 -2.295,0.406 -3.463,0.366l-0.508,3.423c-0.232,1.304 -1.107,2.414 -2.336,2.909c-3.823,1.54 -11.956,5.964 -11.857,15.702c0.013,1.225 0.974,2.228 2.199,2.228l20.153,0c-1.225,0 -2.186,-1.003 -2.198,-2.228z" id="svg_31"/>
   <path d="m152.607,316.542c-2.792,-0.147 -5.59,-0.195 -8.385,-0.133c-1.876,0.041 -3.782,0.135 -5.556,0.749c-1.773,0.614 -3.422,1.822 -4.16,3.547c1.776,1.021 3.879,1.241 5.88,1.677c3.257,0.709 6.318,2.027 9.283,3.57c0.869,-2.538 1.886,-5.745 2.938,-9.41z" id="svg_32"/>
   <path d="m157.388,296.697c-2.088,-0.006 -4.308,0.352 -6.376,0.121c-3.761,-0.418 -6.964,-2.816 -10.476,-4.227c-3.318,-1.333 -7.164,-1.932 -10.284,-3.494c-0.089,2.385 -0.235,5.033 -0.447,7.875c3.621,3.843 7.698,7.121 12.671,8.725c4.051,1.306 8.375,1.378 12.64,1.378c0.808,-3.316 1.582,-6.808 2.272,-10.378z" id="svg_33"/>
  </g>
  <path d="m127.125,128.262c-0.191,0.715 0.074,1.474 0.699,1.87c4.38,2.782 20.878,15.497 21.752,49.645c0.063,2.453 0.379,4.9 0.964,7.284c-0.039,-0.091 1.59,9.167 9.245,16.599c-6.491,-28.139 11.058,-65.007 -14.65,-86.568c-6.417,-5.382 -13.623,-8.936 -21.043,-11.184c3.419,5.665 5.351,13.663 3.033,22.354z" fill="#e3e4e5" id="svg_34"/>
  <path d="m110.183,122.6c-2.105,-3.879 -4.98,-11.277 -2.574,-19.731c-16.454,-1.33 -31.893,1.908 -40.078,4.114c-2.442,0.658 -3.09,3.812 -1.115,5.392c10.917,8.734 15.119,19.05 16.739,25.706c6.989,-8.695 16.141,-13.487 25.457,-13.006c1.319,0.069 2.201,-1.313 1.571,-2.475z" fill="#e3e4e5" id="svg_35"/>
  <path d="m100.758,125.924c2.574,-0.683 5.206,-0.986 7.852,-0.849c1.321,0.068 2.203,-1.313 1.572,-2.475c-2.105,-3.879 -4.98,-11.277 -2.574,-19.731c-5.313,-0.43 -10.515,-0.378 -15.407,-0.044c2.952,4.746 6.784,12.558 8.557,23.099z" fill="#52565b" id="svg_36"/>
  <path d="m145.135,117.092c-0.269,-0.225 -0.547,-0.429 -0.818,-0.648c-1.059,5.198 -3.499,12.784 -9.102,20.214c2.542,2.895 5.289,6.803 7.7,11.951c3.805,-2.306 9.253,-6.334 14.464,-12.771c-2.066,-6.959 -5.792,-13.335 -12.244,-18.746z" fill="#52565b" id="svg_37"/>
  <path d="m147.114,160.599c1.062,4.283 1.844,9.111 2.228,14.522c3.252,0.192 6.45,-0.021 9.397,-0.442c0.323,-5.036 0.709,-10.098 0.878,-15.086c-4.78,0.757 -9.26,0.974 -12.503,1.006z" fill="#52565b" id="svg_38"/>
  <path d="m249.87,351l-29.646,0c-2.565,0 -4.673,-2.109 -4.699,-4.702c-0.116,-11.361 9.349,-16.405 13.423,-18.047c0.072,-0.028 0.134,-0.068 0.196,-0.107c0.261,-0.164 0.549,-0.277 0.852,-0.336c2.967,-0.576 13.432,-2.069 23.526,2.891c0.97,0.477 1.523,1.522 1.373,2.592c-0.279,1.985 -0.42,3.967 -0.42,5.89l0,7.21c-0.001,2.541 -2.066,4.609 -4.605,4.609zm-29.346,-5l28.95,0l0,-6.82c0,-1.549 0.082,-3.128 0.243,-4.717c-7.782,-3.226 -15.544,-2.321 -18.371,-1.821c-0.18,0.096 -0.356,0.178 -0.533,0.248c-3.835,1.546 -10.235,5.296 -10.289,13.11z" id="svg_39"/>
  <path d="m220.224,351l-20.154,0c-2.565,0 -4.673,-2.109 -4.699,-4.702c-0.116,-11.361 9.349,-16.405 13.423,-18.047c0.417,-0.167 0.727,-0.561 0.809,-1.025l3.712,-25.044c0.017,-0.113 0.042,-0.227 0.074,-0.337c-5.117,-4.092 -9.438,-8.623 -12.844,-13.469c-0.472,-0.672 -0.584,-1.532 -0.3,-2.303s0.929,-1.352 1.724,-1.556c6.284,-1.615 11.575,-3.646 15.724,-6.035c0.593,-0.342 1.3,-0.426 1.957,-0.231s1.205,0.649 1.517,1.259c3.478,6.796 8.707,13.009 15.542,18.464c1.535,1.226 2.191,3.255 1.68,5.118l-3.698,24.938c-0.4,2.251 -1.844,4.042 -3.875,4.86c-3.841,1.547 -10.248,5.303 -10.292,13.128c1.239,0.148 2.199,1.203 2.199,2.482c0.001,1.381 -1.119,2.5 -2.499,2.5zm-19.853,-5l15.153,0c0.051,-11.151 9.385,-16.122 13.423,-17.749c0.416,-0.167 0.726,-0.561 0.809,-1.026l3.712,-25.043c0.017,-0.113 0.042,-0.227 0.074,-0.337c-6.62,-5.292 -11.861,-11.275 -15.61,-17.812c-3.23,1.634 -6.958,3.084 -11.134,4.333c2.752,3.406 6.022,6.628 9.757,9.608c1.536,1.227 2.192,3.256 1.68,5.119l-3.698,24.937c-0.399,2.251 -1.843,4.041 -3.875,4.86c-3.837,1.546 -10.237,5.296 -10.291,13.11z" id="svg_40"/>
  <path d="m220.224,351l-20.154,0c-2.565,0 -4.673,-2.109 -4.699,-4.702c-0.116,-11.361 9.349,-16.405 13.423,-18.047c0.072,-0.028 0.134,-0.068 0.197,-0.107c0.261,-0.163 0.549,-0.277 0.851,-0.336c2.295,-0.446 10.458,-1.68 19.143,1.13c0.969,0.314 1.65,1.184 1.724,2.199s-0.477,1.974 -1.391,2.423c-4.005,1.97 -8.756,5.725 -8.793,12.458c1.239,0.148 2.199,1.203 2.199,2.482c0,1.381 -1.12,2.5 -2.5,2.5zm-19.853,-5l15.153,0c0.029,-6.354 3.083,-10.698 6.406,-13.545c-4.863,-0.653 -8.958,-0.128 -10.738,0.188c-0.179,0.095 -0.355,0.177 -0.532,0.247c-3.835,1.546 -10.235,5.296 -10.289,13.11z" id="svg_41"/>
  <path d="m218.944,283.148c-0.86,0 -1.697,-0.443 -2.162,-1.24c-7.756,-13.298 -2.004,-28.259 -1.755,-28.889c0.508,-1.285 1.961,-1.915 3.243,-1.408c1.283,0.506 1.914,1.955 1.41,3.238c-0.052,0.133 -5.092,13.373 1.422,24.539c0.695,1.192 0.292,2.724 -0.9,3.419c-0.397,0.232 -0.83,0.341 -1.258,0.341z" id="svg_42"/>
  <path d="m143.47,351l-29.144,0c-1.657,0 -3.227,-0.722 -4.308,-1.979c-1.089,-1.269 -1.569,-2.945 -1.316,-4.602c1.517,-9.945 8.355,-14.225 12.297,-15.89c0.435,-0.184 0.834,-0.46 1.188,-0.82c0.375,-0.383 0.863,-0.635 1.393,-0.719c4.189,-0.667 14.987,-1.589 24.766,4.2c0.844,0.5 1.318,1.447 1.211,2.423c-0.011,0.098 -0.023,0.195 -0.027,0.295l-0.374,11.586c-0.099,3.087 -2.597,5.506 -5.686,5.506zm-18.375,-19.18c-0.655,0.547 -1.375,0.987 -2.151,1.314c-3.639,1.538 -8.207,4.875 -9.3,12.038c-0.044,0.293 0.085,0.495 0.167,0.59c0.093,0.108 0.258,0.237 0.515,0.237l29.144,0c0.374,0 0.677,-0.293 0.689,-0.667l0.341,-10.56c-7.515,-3.888 -15.564,-3.473 -19.405,-2.952z" id="svg_43"/>
  <path d="m119.02,334.894c-0.229,0 -0.46,-0.031 -0.685,-0.096c-0.692,-0.197 -1.266,-0.684 -1.574,-1.334l-10.16,-21.457c-3.352,-5.792 -3.784,-12.911 -1.151,-19.066l8.065,-18.863c0.339,-0.794 1.064,-1.356 1.917,-1.488c0.854,-0.131 1.713,0.186 2.276,0.84c3.664,4.255 8.383,7.731 13.647,10.053c0.92,0.405 1.508,1.323 1.491,2.33c-0.174,10.249 -1.51,26.417 -4.737,41.056c-0.622,2.821 -2.553,5.165 -5.165,6.268c-0.889,0.376 -1.752,0.833 -2.568,1.359c-0.408,0.262 -0.88,0.398 -1.356,0.398zm2.952,-4.062l0.01,0l-0.01,0zm-5.355,-51.292l-6.57,15.365c-2.027,4.74 -1.681,10.225 0.925,14.672c0.037,0.063 0.071,0.128 0.102,0.193l9.065,19.145c0.285,-0.136 0.572,-0.264 0.861,-0.386c1.121,-0.474 1.953,-1.497 2.227,-2.738c2.982,-13.528 4.308,-28.406 4.584,-38.443c-4.131,-2.014 -7.93,-4.666 -11.194,-7.808z" id="svg_44"/>
  <path d="m130.347,288.269c-0.008,0 -0.015,0 -0.023,0c-1.38,-0.013 -2.49,-1.142 -2.478,-2.522l0.192,-21.497c0.012,-1.373 1.129,-2.478 2.5,-2.478l0.023,0c1.38,0.013 2.49,1.142 2.478,2.522l-0.192,21.497c-0.013,1.373 -1.13,2.478 -2.5,2.478z" id="svg_45"/>
  <path d="m158.428,293.349c-0.109,0 -0.219,-0.007 -0.33,-0.021c-1.369,-0.181 -2.333,-1.437 -2.152,-2.806l1.051,-7.975c0.181,-1.369 1.438,-2.339 2.805,-2.151c1.369,0.181 2.333,1.437 2.152,2.806l-1.051,7.975c-0.165,1.257 -1.239,2.172 -2.475,2.172z" id="svg_46"/>
  <path d="m249.87,351l-29.648,0c-2.561,0 -4.667,-2.102 -4.697,-4.684c-0.126,-11.366 9.337,-16.416 13.411,-18.06c0.423,-0.171 0.739,-0.572 0.824,-1.047l3.71,-25.027c0.017,-0.114 0.042,-0.228 0.074,-0.338c-6.62,-5.292 -11.861,-11.274 -15.609,-17.812c-15.458,7.841 -39.097,10.023 -57.406,9.403c-3.11,17.968 -8.797,34.997 -10.635,38.947c-0.224,0.481 -0.346,0.994 -0.363,1.521l-0.374,11.589c-0.099,3.087 -2.597,5.506 -5.686,5.506l-29.145,0c-1.657,0 -3.227,-0.722 -4.307,-1.979c-1.09,-1.27 -1.57,-2.949 -1.317,-4.608c1.52,-9.943 8.356,-14.22 12.297,-15.884c1.121,-0.474 1.954,-1.497 2.227,-2.738c2.981,-13.528 4.308,-28.406 4.584,-38.443c-16.994,-8.275 -32.137,-29 -20.82,-61.618l2.362,0.819l-2.362,-0.819c4.301,-12.398 3.919,-21.877 2.842,-27.645c-0.771,-4.125 -1.997,-6.995 -2.744,-8.474c-5.403,0.293 -16.215,1.828 -19.591,6.607c-4.59,6.496 -11.914,14.64 -22.84,11.316c-4.364,1.152 -9.057,-0.34 -11.916,-3.867c-6.012,-7.419 -6.799,-15.077 -2.216,-21.564c3.309,-4.683 6.395,-6.999 9.118,-9.043c4.29,-3.221 7.995,-6.002 11.984,-18.358c6.271,-19.429 20.497,-32.16 35.706,-32.16l0.009,0c-2.237,-4.59 -4.794,-12.571 -1.785,-21.541c1.627,-4.853 5.547,-6.992 10.234,-5.583c8.466,2.546 17.962,16.586 13.892,32.942c5.674,3.795 21.524,17.426 22.393,51.354c0.06,2.308 0.36,4.579 0.893,6.752c0.022,0.088 0.039,0.177 0.05,0.265c0.132,0.673 2.34,11.082 11.673,17.791c15.764,11.332 37.424,3.66 50.365,-0.924c12.239,-4.338 25.364,-3.193 36.011,3.134c27.631,16.42 16.513,52.341 12.86,64.145l-0.262,0.849c-2.09,6.791 0.371,12.756 2.803,16.563c2.583,4.045 2.447,9.262 -0.348,13.29c-3.661,5.277 -6.532,14.654 -8.432,20.858c-0.428,1.397 -0.814,2.657 -1.159,3.713c-1.364,4.181 -2.056,8.565 -2.056,13.03l0,7.216c0,2.541 -2.065,4.606 -4.604,4.606zm-29.346,-5l28.95,0l0,-6.82c0,-4.993 0.775,-9.898 2.303,-14.581c0.336,-1.031 0.713,-2.262 1.131,-3.626c1.991,-6.501 5,-16.326 9.104,-22.244c1.642,-2.367 1.737,-5.408 0.242,-7.749c-3,-4.698 -6.02,-12.106 -3.368,-20.726l0.265,-0.855c3.721,-12.023 13.606,-43.962 -10.638,-58.368c-9.365,-5.566 -20.951,-6.557 -31.786,-2.72c-13.863,4.91 -37.066,13.129 -54.954,0.271c-9.342,-6.717 -13.071,-17.123 -13.61,-20.938l-0.05,0.013c-0.619,-2.52 -0.967,-5.149 -1.035,-7.814c-0.834,-32.559 -15.974,-44.665 -20.594,-47.6c-1.539,-0.976 -2.251,-2.835 -1.773,-4.626c3.72,-13.952 -4.593,-25.677 -10.359,-27.41c-2.043,-0.618 -3.295,0.119 -4.054,2.384c-2.702,8.055 0.145,15.247 2.083,18.817c0.721,1.328 0.67,2.944 -0.133,4.219c-0.807,1.279 -2.25,1.995 -3.766,1.945c-13.428,-0.707 -26.338,10.824 -32.097,28.665c-4.476,13.867 -8.976,17.245 -13.74,20.821c-2.664,2 -5.181,3.889 -8.036,7.93c-3.266,4.624 -2.587,9.85 2.018,15.531c1.721,2.125 4.631,2.941 7.235,2.034c0.534,-0.186 1.116,-0.187 1.649,0.001c6.399,2.242 11.752,-0.518 17.902,-9.221c5.847,-8.275 23.12,-8.748 25.07,-8.775c0.864,0.025 1.63,0.4 2.103,1.096c0.421,0.621 10.22,15.509 1.128,41.714c-6.587,18.986 -5.396,45.074 19.641,56.113c0.92,0.405 1.508,1.323 1.491,2.33c-0.174,10.249 -1.51,26.417 -4.737,41.056c-0.622,2.821 -2.553,5.165 -5.165,6.268c-3.638,1.537 -8.205,4.872 -9.3,12.033c-0.045,0.296 0.085,0.5 0.167,0.596c0.093,0.107 0.257,0.236 0.514,0.236l29.145,0c0.374,0 0.677,-0.293 0.689,-0.667l0.374,-11.589c0.039,-1.204 0.317,-2.371 0.827,-3.469c1.83,-3.932 7.668,-21.55 10.598,-39.822c0.201,-1.258 1.312,-2.153 2.587,-2.102c17.902,0.853 44.135,-1.221 59.149,-9.869c0.594,-0.341 1.301,-0.424 1.957,-0.231c0.657,0.194 1.205,0.649 1.517,1.259c3.478,6.796 8.707,13.009 15.542,18.464c1.535,1.226 2.191,3.255 1.68,5.118l-3.695,24.923c-0.401,2.259 -1.85,4.056 -3.887,4.879c-3.837,1.547 -10.23,5.297 -10.284,13.106z" id="svg_47"/>
  <path d="m64.687,207.414c-0.8,0 -1.587,-0.383 -2.07,-1.095c-0.775,-1.142 -0.479,-2.694 0.66,-3.471c0.098,-0.068 4.363,-3.05 8.512,-8.923c0.797,-1.128 2.358,-1.396 3.484,-0.6c1.128,0.797 1.396,2.356 0.6,3.484c-4.734,6.701 -9.579,10.033 -9.783,10.172c-0.431,0.293 -0.92,0.433 -1.403,0.433z" id="svg_48"/>
  <path d="m118.317,129.244c-0.094,0 -0.19,-0.005 -0.286,-0.016c-1.372,-0.157 -2.357,-1.396 -2.201,-2.768c0.911,-7.989 -0.152,-14.013 -3.073,-17.418c-2.406,-2.805 -5.297,-2.949 -5.419,-2.954c-1.367,-0.054 -2.454,-1.197 -2.417,-2.565c0.037,-1.355 1.13,-2.434 2.482,-2.434l0.036,0c0.206,0.003 5.089,0.122 8.992,4.558c3.998,4.543 5.467,11.736 4.368,21.38c-0.147,1.276 -1.228,2.217 -2.482,2.217z" id="svg_49"/>
  <path d="m108.514,189.559c-1.195,0 -2.251,-0.859 -2.461,-2.076c-0.234,-1.361 0.68,-2.653 2.04,-2.888c0.129,-0.022 13.268,-2.396 18.462,-10.489c2.168,-3.378 2.643,-7.223 1.452,-11.754c-0.351,-1.336 0.447,-2.702 1.782,-3.054c1.34,-0.349 2.703,0.447 3.054,1.782c1.547,5.886 0.843,11.184 -2.091,15.744c-6.4,9.946 -21.185,12.591 -21.811,12.698c-0.144,0.025 -0.286,0.037 -0.427,0.037z" id="svg_50"/>
  <path d="m58.091,196.354c-1.375,0 -2.492,-1.11 -2.5,-2.487c-0.011,-2.14 0.912,-4.169 2.531,-5.567c1.621,-1.398 3.764,-2.01 5.876,-1.692l0.227,0.035c1.364,0.212 2.299,1.489 2.088,2.854s-1.48,2.297 -2.854,2.088l-0.221,-0.034c-0.911,-0.146 -1.549,0.275 -1.849,0.535c-0.3,0.259 -0.804,0.832 -0.799,1.757c0.007,1.381 -1.106,2.506 -2.487,2.513c-0.003,-0.002 -0.007,-0.002 -0.012,-0.002z" id="svg_51"/>
  <path d="m91.487,162.93c-1.377,0 -2.495,-1.113 -2.5,-2.491c-0.008,-2.283 0.875,-4.433 2.483,-6.053c1.609,-1.619 3.752,-2.515 6.036,-2.522l0.028,0c2.272,0 4.411,0.881 6.023,2.483c1.62,1.609 2.516,3.753 2.523,6.036c0.004,1.381 -1.111,2.503 -2.492,2.508c-0.002,0 -0.005,0 -0.008,0c-1.377,0 -2.496,-1.114 -2.5,-2.492c-0.003,-0.947 -0.375,-1.837 -1.047,-2.505c-0.669,-0.664 -1.557,-1.03 -2.5,-1.03c-0.004,0 -0.007,0 -0.012,0c-0.947,0.003 -1.836,0.375 -2.504,1.047c-0.667,0.672 -1.034,1.563 -1.03,2.511c0.004,1.381 -1.111,2.504 -2.492,2.509c-0.002,-0.001 -0.005,-0.001 -0.008,-0.001z" id="svg_52"/>
  <path d="m159.786,206.16c-0.635,0 -1.264,-0.241 -1.743,-0.706c-6.294,-6.112 -9.418,-14.268 -9.868,-17.812l-0.063,0.016c-0.619,-2.52 -0.967,-5.149 -1.035,-7.815c-0.834,-32.558 -15.974,-44.664 -20.594,-47.599c-1.538,-0.976 -2.251,-2.834 -1.773,-4.624c1.862,-6.987 0.857,-14.43 -2.758,-20.419c-0.535,-0.886 -0.469,-2.01 0.167,-2.827c0.635,-0.816 1.709,-1.157 2.699,-0.857c8.332,2.524 15.708,6.447 21.924,11.66c17.501,14.679 16.085,35.819 14.716,56.264c-0.724,10.802 -1.471,21.972 0.763,31.659c0.249,1.08 -0.243,2.194 -1.208,2.739c-0.384,0.216 -0.807,0.321 -1.227,0.321zm-6.768,-19.43c0.073,0.372 0.767,3.677 2.929,7.694c-0.53,-7.617 0.002,-15.56 0.522,-23.319c1.345,-20.083 2.615,-39.052 -12.94,-52.099c-4.293,-3.6 -9.204,-6.533 -14.652,-8.756c1.998,5.723 2.306,12.052 0.805,18.109c5.673,3.794 21.525,17.423 22.394,51.353c0.06,2.309 0.36,4.58 0.893,6.753c0.021,0.089 0.037,0.178 0.049,0.265zm-25.893,-58.467l0.01,0l-0.01,0z" id="svg_53"/>
  <path d="m83.153,140.581c-0.181,0 -0.363,-0.02 -0.543,-0.06c-0.929,-0.207 -1.661,-0.924 -1.886,-1.849c-1.606,-6.599 -5.664,-16.179 -15.872,-24.346c-1.656,-1.325 -2.416,-3.437 -1.983,-5.512c0.432,-2.068 1.968,-3.695 4.01,-4.246c7.997,-2.154 23.944,-5.562 40.931,-4.192c0.746,0.061 1.426,0.452 1.853,1.067s0.555,1.389 0.35,2.109c-2.192,7.702 0.542,14.492 2.367,17.854c0.721,1.328 0.67,2.944 -0.133,4.219c-0.807,1.279 -2.25,1.995 -3.766,1.945c-8.33,-0.427 -16.864,3.97 -23.379,12.075c-0.48,0.6 -1.201,0.936 -1.949,0.936zm16.615,-35.521c-13.266,0 -25.125,2.596 -31.588,4.338c-0.228,0.062 -0.368,0.209 -0.416,0.439c-0.034,0.163 -0.024,0.396 0.212,0.586c9.203,7.363 13.902,15.798 16.298,22.647c6.7,-6.772 14.867,-10.523 23.068,-10.527c-1.859,-3.819 -3.985,-10.1 -2.805,-17.368c-1.604,-0.078 -3.197,-0.115 -4.769,-0.115zm8.217,18.733l0.01,0l-0.01,0z" id="svg_54"/>
  <path d="m100.758,128.424c-0.476,0 -0.947,-0.136 -1.354,-0.398c-0.591,-0.381 -0.994,-0.993 -1.111,-1.687c-1.712,-10.179 -5.412,-17.688 -8.214,-22.193c-0.463,-0.745 -0.502,-1.679 -0.102,-2.46c0.399,-0.78 1.18,-1.295 2.055,-1.354c5.472,-0.374 10.779,-0.357 15.779,0.046c0.746,0.061 1.426,0.452 1.853,1.067s0.555,1.389 0.35,2.109c-2.192,7.702 0.542,14.492 2.367,17.854c0.721,1.328 0.67,2.944 -0.133,4.219c-0.807,1.279 -2.25,1.995 -3.766,1.945c-2.323,-0.123 -4.707,0.139 -7.083,0.769c-0.212,0.055 -0.427,0.083 -0.641,0.083zm-4.362,-23.307c2.334,4.417 4.815,10.403 6.346,17.82c1.538,-0.261 3.076,-0.393 4.601,-0.395c-1.859,-3.819 -3.985,-10.099 -2.805,-17.367c-2.641,-0.128 -5.362,-0.148 -8.142,-0.058z" id="svg_55"/>
  <path d="m142.916,151.109c-0.243,0 -0.487,-0.035 -0.724,-0.107c-0.679,-0.205 -1.239,-0.689 -1.54,-1.332c-2.018,-4.31 -4.479,-8.132 -7.315,-11.362c-0.782,-0.891 -0.831,-2.208 -0.117,-3.154c5.361,-7.109 7.662,-14.369 8.648,-19.208c0.174,-0.855 0.782,-1.558 1.604,-1.854c0.822,-0.294 1.737,-0.141 2.417,0.407l0.306,0.24c0.183,0.143 0.366,0.285 0.545,0.435c0.001,0.001 0.002,0.002 0.003,0.003c6.371,5.345 10.635,11.87 13.034,19.95c0.235,0.79 0.065,1.645 -0.454,2.285c-5.489,6.778 -11.248,10.993 -15.111,13.335c-0.396,0.239 -0.844,0.362 -1.296,0.362zm-4.532,-14.565c2.049,2.545 3.897,5.373 5.522,8.448c3.083,-2.118 6.913,-5.263 10.681,-9.701c-1.849,-5.565 -4.755,-10.263 -8.829,-14.262c-1.303,4.505 -3.54,10.002 -7.374,15.515z" id="svg_56"/>
  <path d="m151.785,177.691c-0.878,0 -1.742,-0.025 -2.59,-0.075c-1.253,-0.074 -2.257,-1.066 -2.346,-2.319c-0.355,-5.008 -1.082,-9.751 -2.16,-14.097c-0.185,-0.742 -0.019,-1.527 0.45,-2.133c0.468,-0.604 1.188,-0.961 1.953,-0.969c2.903,-0.028 7.365,-0.22 12.136,-0.976c0.738,-0.118 1.488,0.102 2.047,0.597c0.559,0.494 0.868,1.212 0.843,1.958c-0.133,3.917 -0.401,7.922 -0.66,11.796l-0.222,3.365c-0.076,1.182 -0.97,2.147 -2.142,2.314c-2.511,0.36 -4.96,0.539 -7.309,0.539zm-0.135,-5.001c1.519,0.035 3.109,-0.076 4.73,-0.241l0.086,-1.31c0.191,-2.851 0.386,-5.773 0.527,-8.662c-2.469,0.293 -4.782,0.455 -6.769,0.54c0.635,3.082 1.112,6.319 1.426,9.673z" id="svg_57"/>
  <path d="m69.616,208.305c-1.563,0 -3.216,-0.239 -4.959,-0.77c-4.367,1.152 -9.057,-0.34 -11.916,-3.867c-6.012,-7.419 -6.799,-15.077 -2.216,-21.564c3.309,-4.683 6.395,-7 9.118,-9.043c4.29,-3.221 7.995,-6.002 11.983,-18.357c0.259,-0.804 0.536,-1.59 0.82,-2.368c0.357,-0.979 1.284,-1.632 2.326,-1.642l0.022,0c1.033,0 1.959,0.635 2.332,1.6c1.36,3.521 5.526,15.638 2.041,23.75c-0.082,0.19 -0.05,0.344 -0.01,0.439c0.054,0.127 0.151,0.218 0.288,0.271c4.243,1.608 12.141,4.604 8.93,17.979c-0.091,0.38 -0.27,0.732 -0.521,1.03c-0.126,0.148 -0.247,0.3 -0.358,0.457c-3.857,5.459 -9.644,12.085 -17.88,12.085zm-4.932,-5.891c0.279,0 0.559,0.047 0.826,0.141c6.399,2.242 11.752,-0.518 17.902,-9.221c0,0 0,0 0,-0.001c0.072,-0.103 0.147,-0.203 0.224,-0.304c1.91,-8.615 -1.746,-10.002 -5.965,-11.602c-1.421,-0.539 -2.528,-1.603 -3.118,-2.993c-0.586,-1.382 -0.579,-2.973 0.019,-4.365c1.416,-3.295 1.086,-8.189 0.041,-12.873c-3.896,9.803 -7.833,12.758 -11.969,15.862c-2.664,2 -5.181,3.889 -8.036,7.93c-3.266,4.624 -2.587,9.85 2.018,15.531c1.721,2.125 4.631,2.941 7.235,2.034c0.266,-0.092 0.545,-0.139 0.823,-0.139z" id="svg_58"/>
  <path d="m104.874,143.304c-1.104,0 -2.167,-0.477 -2.912,-1.354c-3.767,-4.438 -8.431,-7.673 -11.68,-9.605c-0.734,-0.437 -1.194,-1.217 -1.221,-2.07c-0.026,-0.854 0.385,-1.662 1.09,-2.144c3.814,-2.603 7.871,-4.318 12.058,-5.102c0.992,-0.188 1.999,0.243 2.552,1.089c3.565,5.452 4.128,11.434 3.973,15.491c-0.061,1.592 -1.077,2.959 -2.589,3.48c-0.419,0.145 -0.848,0.215 -1.271,0.215zm-8.562,-13.024c2.342,1.624 4.935,3.677 7.368,6.147c-0.194,-2.487 -0.796,-5.354 -2.241,-8.105c-1.738,0.456 -3.451,1.111 -5.127,1.958z" id="svg_59"/>
  <path d="m104.167,189.85c-1.235,0 -2.304,-0.912 -2.474,-2.162c-0.693,-5.084 -2.407,-9.288 -3.723,-11.92c-0.695,-1.389 -0.411,-3.051 0.708,-4.135c1.122,-1.09 2.797,-1.322 4.172,-0.58c4.864,2.627 9.635,6.863 14.179,12.59c0.498,0.627 0.665,1.456 0.449,2.228s-0.789,1.393 -1.54,1.671c-3.857,1.427 -6.867,1.959 -6.993,1.98c-0.129,0.022 -0.262,0.035 -0.393,0.037c-0.017,0 -1.703,0.027 -4.126,0.277c-0.087,0.01 -0.174,0.014 -0.259,0.014zm0.196,-11.88c0.722,1.951 1.403,4.206 1.893,6.693c0.96,-0.065 1.661,-0.09 2,-0.1c0.358,-0.07 1.267,-0.26 2.51,-0.604c-2.112,-2.363 -4.251,-4.364 -6.403,-5.989z" id="svg_60"/>
  <path d="m122.982,183.656c-0.324,0 -0.65,-0.062 -0.958,-0.19c-0.789,-0.327 -1.355,-1.034 -1.504,-1.875c-1.043,-5.904 -3.563,-10.675 -4.973,-12.992c-0.808,-1.328 -0.66,-3.009 0.366,-4.182c1.029,-1.177 2.679,-1.549 4.109,-0.921c3.819,1.673 7.705,4.298 11.548,7.802c0.787,0.718 1.033,1.855 0.613,2.834c-1.485,3.46 -4.1,6.514 -7.77,9.074c-0.426,0.298 -0.927,0.45 -1.431,0.45zm-0.876,-13.381c0.868,1.856 1.712,3.996 2.393,6.369c0.908,-0.921 1.668,-1.891 2.278,-2.904c-1.565,-1.327 -3.125,-2.484 -4.671,-3.465z" id="svg_61"/>
  <path d="m132.333,192.478c-1.203,0 -2.337,-0.63 -2.969,-1.726c-0.826,-1.432 -0.544,-3.204 0.687,-4.312c9.297,-8.374 12.809,-21.314 14.075,-28.283c0.208,-1.146 1.181,-1.996 2.345,-2.05c1.152,-0.077 2.21,0.704 2.523,1.826c1.844,6.62 2.881,13.948 3.082,21.781c0.028,1.092 0.114,2.202 0.255,3.299c0.14,1.085 -0.443,2.136 -1.438,2.591c-6.382,2.925 -13.025,5.259 -17.475,6.701c-0.36,0.117 -0.726,0.173 -1.085,0.173zm13.944,-22.854c-1.798,5.18 -4.498,10.89 -8.533,15.914c2.935,-1.06 6.195,-2.324 9.435,-3.748c-0.051,-0.651 -0.085,-1.302 -0.102,-1.948c0,0 0,0 0,-0.001c-0.09,-3.526 -0.358,-6.939 -0.8,-10.217z" id="svg_62"/>
  <path d="m283.75,297.882c-1.773,0 -3.469,-0.881 -4.48,-2.408c-3.141,-4.751 -6.766,-15.061 -6.644,-28.483c0.125,-13.688 -4.296,-14.883 -6.937,-15.598c-1.19,-0.322 -1.968,-1.464 -1.832,-2.689c0.981,-8.819 0.188,-16.478 -2.359,-22.764c-0.446,-1.1 -0.057,-2.362 0.932,-3.02c0.988,-0.658 2.303,-0.53 3.146,0.306c0.888,0.88 1.837,1.771 2.82,2.692c7.05,6.614 15.823,14.845 16.659,31.571c0.491,9.83 1.406,28.128 3.548,32.746l0,0.001c0.677,1.462 0.673,3.133 -0.013,4.583c-0.68,1.438 -1.954,2.492 -3.496,2.892c-0.447,0.115 -0.898,0.171 -1.344,0.171zm-14.727,-50.643c4.6,1.868 8.726,6.298 8.603,19.796c-0.12,13.149 3.598,22.329 5.814,25.68c0.088,0.135 0.246,0.194 0.4,0.156c0.039,-0.011 0.16,-0.042 0.229,-0.189c0.036,-0.075 0.064,-0.196 -0.004,-0.344c-2.133,-4.601 -3.084,-16.17 -4.005,-34.599c-0.604,-12.098 -5.867,-19.083 -11.458,-24.692c0.707,4.363 0.848,9.106 0.421,14.192z" id="svg_63"/>
  <path d="m292.26,319.16c-0.057,0 -0.113,-0.001 -0.17,-0.004c-1.413,-0.069 -2.583,-0.967 -2.98,-2.286c-0.139,-0.462 -1.878,-1.219 -3.276,-1.827c-1.215,-0.528 -2.592,-1.128 -4.123,-1.947c-4.935,-2.643 -4.233,-6.464 -3.768,-8.992c0.349,-1.9 0.505,-3.036 -0.346,-4.279c-1.941,-2.836 -1.678,-5.341 -1.115,-6.943c0.352,-1.001 0.934,-1.926 1.729,-2.75c0.27,-0.279 0.601,-0.492 0.966,-0.621c1.191,-0.418 2.582,0.088 3.145,1.217c0.393,0.79 0.78,1.477 1.118,1.987c0.089,0.134 0.246,0.195 0.4,0.157c0.039,-0.011 0.16,-0.042 0.229,-0.189c0.036,-0.075 0.064,-0.196 -0.004,-0.344c-0.212,-0.458 -0.418,-1.014 -0.647,-1.748c-0.233,-0.749 -0.101,-1.564 0.357,-2.202s1.189,-1.022 1.973,-1.04c4.894,-0.122 6.256,1.707 6.981,4.885c0.283,1.242 0.551,2.416 1.963,3.839c1.44,1.45 2.719,4.258 0.635,9.395c-0.483,1.19 -0.447,2.498 0.099,3.683c1.121,2.43 1.112,5.174 -0.022,7.938c-0.516,1.255 -1.766,2.071 -3.144,2.071zm1.636,-3.734l0,0.003c0.001,-0.001 0,-0.002 0,-0.003zm-11.78,-17.799c1.59,2.778 1.104,5.417 0.744,7.381c-0.42,2.284 -0.507,2.76 1.21,3.68c1.352,0.724 2.63,1.28 3.758,1.771c1.219,0.531 2.367,1.03 3.343,1.643c-0.062,-0.296 -0.157,-0.582 -0.284,-0.857c-1.132,-2.451 -1.201,-5.171 -0.193,-7.656c0.885,-2.181 0.864,-3.576 0.451,-3.992c-1.558,-1.569 -2.33,-3.078 -2.774,-4.359c-0.716,1.225 -1.888,2.115 -3.277,2.476c-1.006,0.257 -2.035,0.215 -2.978,-0.087z" id="svg_64"/>
  <path d="m275.143,271.502c-0.331,0 -0.663,-0.065 -0.979,-0.2c-0.905,-0.385 -1.5,-1.266 -1.52,-2.25c-0.014,-0.679 -0.024,-1.361 -0.018,-2.062c0.03,-3.306 -0.212,-6.124 -0.72,-8.375c-0.145,-0.644 -0.03,-1.318 0.321,-1.878c2.315,-3.694 4.413,-7.129 6.412,-10.501c0.502,-0.848 1.456,-1.329 2.434,-1.209c0.979,0.111 1.8,0.787 2.099,1.726c1.06,3.333 1.693,6.945 1.883,10.737c0.091,1.828 0.185,3.619 0.281,5.371c0.052,0.944 -0.434,1.838 -1.254,2.308c-1.915,1.096 -3.51,2.223 -4.876,3.445c-0.443,0.396 -0.878,0.814 -1.314,1.231c-0.348,0.333 -0.697,0.667 -1.05,0.994c-0.473,0.434 -1.082,0.663 -1.699,0.663zm1.851,-12.959c0.276,1.491 0.463,3.146 0.559,4.951c0.839,-0.644 1.738,-1.264 2.708,-1.868c-0.068,-1.276 -0.135,-2.572 -0.201,-3.887c-0.061,-1.229 -0.174,-2.433 -0.338,-3.609c-0.88,1.438 -1.786,2.906 -2.728,4.413z" id="svg_65"/>
  <path d="m283.749,297.883c-1.773,0 -3.469,-0.882 -4.48,-2.41c-2.136,-3.229 -4.109,-8.525 -5.28,-14.168c-0.138,-0.667 0.001,-1.36 0.386,-1.922s0.983,-0.941 1.654,-1.053l7.616,-1.257c0.682,-0.112 1.375,0.062 1.923,0.479c0.548,0.418 0.899,1.043 0.971,1.728c0.585,5.582 1.279,9.268 2.062,10.956c0.678,1.463 0.674,3.133 -0.011,4.583c-0.68,1.438 -1.955,2.493 -3.497,2.893c-0.446,0.114 -0.897,0.171 -1.344,0.171zm-4.273,-15.054c1.204,4.656 2.778,8.092 3.964,9.886c0.089,0.135 0.245,0.195 0.399,0.156c0.039,-0.011 0.161,-0.042 0.23,-0.189c0.036,-0.075 0.064,-0.196 -0.004,-0.343c-0.89,-1.919 -1.599,-5.1 -2.198,-9.904l-2.391,0.394z" id="svg_66"/>
  <path d="m255.306,324.185c-0.158,0 -0.318,-0.015 -0.479,-0.046c-0.024,-0.005 -0.125,-0.026 -0.148,-0.031c-6.946,-1.388 -14.064,-1.732 -21.167,-1.033c-0.768,0.075 -1.525,-0.207 -2.056,-0.765s-0.775,-1.329 -0.663,-2.091l1.008,-6.799c0.145,-0.973 0.846,-1.771 1.792,-2.038c5.169,-1.463 10.686,-2.886 16.452,-2.839c3.032,0.025 6.062,0.468 9.008,1.314c0.664,0.19 1.219,0.647 1.534,1.262s0.362,1.332 0.129,1.982c-1.203,3.366 -2.256,6.805 -3.024,9.315c-0.324,1.067 -1.307,1.769 -2.386,1.769zm-14.66,-6.462c4.339,0 8.66,0.365 12.924,1.094c0.453,-1.46 0.968,-3.088 1.531,-4.769c-1.686,-0.321 -3.392,-0.491 -5.097,-0.505c-4.597,-0.044 -9.133,1.018 -13.495,2.216l-0.31,2.092c1.485,-0.086 2.967,-0.128 4.447,-0.128z" id="svg_67"/>
  <path d="m255.126,300.903c-5.282,0 -10.565,-0.642 -15.643,-1.916c-1.045,-0.263 -1.804,-1.165 -1.884,-2.239c-0.08,-1.075 0.538,-2.08 1.533,-2.493l14.177,-5.902c2.546,-1.06 5.444,-2.337 7.604,-4.093c0.601,-0.487 1.393,-0.669 2.146,-0.494c0.753,0.177 1.382,0.691 1.704,1.396c0.488,1.067 1.062,2.12 1.705,3.127c1.89,2.96 2.347,6.616 1.253,10.033c-0.285,0.891 -1.044,1.548 -1.967,1.703c-3.499,0.586 -7.063,0.878 -10.628,0.878zm-6.183,-5.317c4.757,0.491 9.593,0.414 14.322,-0.239c0.162,-1.538 -0.185,-3.073 -1.011,-4.367c-0.231,-0.362 -0.456,-0.729 -0.671,-1.102c-2.084,1.27 -4.323,2.246 -6.353,3.091l-6.287,2.617z" id="svg_68"/>
  <path d="m227.477,295.305c-0.692,0 -1.363,-0.288 -1.841,-0.81c-2.841,-3.094 -5.313,-6.41 -7.347,-9.856c-0.425,-0.721 -0.461,-1.605 -0.097,-2.358c0.364,-0.754 1.081,-1.274 1.909,-1.389c2.712,-0.374 5.341,-1.531 8.124,-2.758c1.826,-0.804 3.714,-1.636 5.693,-2.266c2.933,-0.934 5.935,-1.382 8.838,-1.815c2.894,-0.433 5.628,-0.841 8.225,-1.688c1.237,-0.404 2.466,-0.912 3.767,-1.45c1.875,-0.774 3.812,-1.575 5.855,-2.079c0.87,-0.22 1.786,0.052 2.404,0.697c0.619,0.646 0.846,1.574 0.594,2.433c-0.457,1.562 -0.701,3.146 -0.726,4.711c-0.016,1.036 -0.669,1.956 -1.643,2.311c-1.17,0.427 -2.339,0.861 -3.498,1.318c-1.962,0.777 -4.046,1.648 -5.994,2.758c-1.464,0.834 -2.853,1.801 -4.324,2.824l-1.226,0.848c-6.736,4.617 -12.519,7.323 -18.2,8.517c-0.17,0.034 -0.342,0.052 -0.513,0.052zm-3.029,-10.3c1.182,1.725 2.486,3.405 3.902,5.027c4.593,-1.195 9.406,-3.579 15.014,-7.422l1.197,-0.828c1.497,-1.042 3.045,-2.118 4.704,-3.063c0.961,-0.548 1.933,-1.037 2.9,-1.484c-2.879,0.898 -5.822,1.338 -8.671,1.764c-2.833,0.423 -5.508,0.822 -8.059,1.634c-1.725,0.55 -3.41,1.292 -5.194,2.078c-1.872,0.823 -3.784,1.666 -5.793,2.294z" id="svg_69"/>
  <path d="m222.969,268.764c-0.873,0 -1.708,-0.459 -2.166,-1.25c-0.599,-1.037 -0.378,-2.354 0.527,-3.139c8.353,-7.244 18.403,-12.623 29.063,-15.555c1.499,-0.412 3.038,-0.788 4.525,-1.152c3.627,-0.886 7.378,-1.803 10.607,-3.273c0.805,-0.366 1.746,-0.28 2.471,0.228c0.725,0.509 1.127,1.362 1.058,2.245c-0.338,4.271 -1.09,8.873 -2.234,13.675c-0.198,0.829 -0.803,1.5 -1.607,1.781c-3.062,1.069 -6.537,1.703 -10.62,1.937c-2.327,0.133 -4.667,0.141 -6.929,0.147c-3.729,0.013 -7.25,0.023 -10.741,0.546c-4.442,0.665 -8.863,2.194 -13.138,3.673c-0.268,0.093 -0.544,0.137 -0.816,0.137zm28.751,-15.123c-5.381,1.48 -10.596,3.629 -15.483,6.359c3.833,-0.568 7.685,-0.58 11.411,-0.593c2.196,-0.007 4.467,-0.015 6.66,-0.14c3.033,-0.173 5.654,-0.585 7.965,-1.254c0.581,-2.593 1.037,-5.114 1.365,-7.539c-2.483,0.817 -5.035,1.44 -7.532,2.051c-1.475,0.361 -2.945,0.719 -4.386,1.116z" id="svg_70"/>
  <path d="m223.84,253.03c-0.753,0 -1.493,-0.34 -1.981,-0.973c-0.76,-0.985 -0.68,-2.379 0.187,-3.271c7.003,-7.202 14.94,-15.365 25.458,-18.967c2.136,-0.731 4.31,-1.246 6.413,-1.744c1.808,-0.428 3.516,-0.832 5.194,-1.361c1.568,-0.495 3.006,-1.1 4.273,-1.799c0.651,-0.36 1.425,-0.41 2.117,-0.141c0.691,0.271 1.227,0.833 1.462,1.537c1.125,3.37 1.845,7.031 2.141,10.881c0.088,1.148 -0.619,2.208 -1.713,2.566c-1.047,0.344 -2.125,0.638 -3.201,0.874c-2.983,0.652 -6.003,0.959 -8.923,1.255c-2.744,0.278 -5.336,0.541 -7.897,1.067c-7.955,1.634 -15.248,5.76 -22.3,9.75c-0.387,0.221 -0.811,0.326 -1.23,0.326zm39.172,-22.41c-0.77,0.313 -1.57,0.603 -2.397,0.863c-1.852,0.584 -3.729,1.028 -5.546,1.459c-2.078,0.491 -4.04,0.956 -5.945,1.608c-3.867,1.324 -7.412,3.411 -10.707,5.883c2.573,-0.991 5.225,-1.816 7.948,-2.376c2.81,-0.576 5.651,-0.865 8.399,-1.144c2.908,-0.295 5.655,-0.573 8.358,-1.165c0.266,-0.059 0.532,-0.121 0.798,-0.188c-0.209,-1.702 -0.512,-3.353 -0.908,-4.94z" id="svg_71"/>
  <path d="m202.374,269.047c-0.058,0 -0.116,-0.002 -0.174,-0.006c-1.335,-0.092 -2.361,-1.219 -2.327,-2.557l0.349,-13.855c0.199,-7.91 0.446,-17.755 5.518,-25.604c3.66,-5.665 9.374,-9.531 14.441,-12.711c1.667,-1.046 3.213,-2.017 3.971,-3.331c0.628,-1.088 0.808,-2.604 0.982,-4.07l0.429,-3.629c0.144,-1.215 1.146,-2.147 2.368,-2.203c8.274,-0.373 16.274,1.572 23.138,5.65c0.608,0.361 1.179,0.742 1.748,1.124l0.105,0.07c0.555,0.371 0.938,0.948 1.064,1.603s-0.014,1.333 -0.39,1.884c-4.758,6.97 -12.703,11.646 -19.093,14.942c-0.848,0.438 -1.702,0.872 -2.559,1.309c-7.523,3.828 -15.302,7.788 -20.016,14.361c-5.07,7.07 -6.134,16.491 -7.072,24.803c-0.144,1.272 -1.221,2.22 -2.482,2.22zm27.898,-63.012l-0.173,1.466c-0.211,1.784 -0.475,4.004 -1.617,5.982c-1.379,2.39 -3.629,3.802 -5.614,5.048c-4.644,2.913 -9.825,6.403 -12.93,11.207c-2.425,3.754 -3.555,8.147 -4.113,12.638c0.608,-1.122 1.285,-2.214 2.039,-3.266c5.424,-7.563 13.755,-11.803 21.812,-15.903c0.849,-0.433 1.695,-0.863 2.535,-1.296c5.173,-2.669 11.432,-6.288 15.668,-11.249c-5.288,-2.993 -11.324,-4.575 -17.607,-4.627z" id="svg_72"/>
  <path d="m194.01,291.279c-0.998,0 -1.919,-0.599 -2.31,-1.547c-1.937,-4.698 -5.867,-8.972 -8.655,-11.776c-0.531,-0.535 -1.068,-1.069 -1.606,-1.605c-5.205,-5.178 -10.587,-10.532 -12.656,-17.863c-3.122,-11.064 2.434,-22.045 8.903,-32.262c2.606,-4.116 5.849,-9.239 7.913,-14.354c0.36,-0.892 1.199,-1.498 2.158,-1.56c7.851,-0.505 15.489,-2.753 20.551,-4.399c1.033,-0.339 2.168,0.034 2.804,0.918c0.635,0.884 0.625,2.077 -0.024,2.95l-14.821,19.942c-3.024,4.069 -6.152,8.278 -7.989,12.936c-2.692,6.825 -2.495,14.891 0.528,21.575c1.61,3.561 3.933,6.738 6.393,10.103c2.386,3.264 4.853,6.638 6.66,10.443c0,0.001 0.001,0.002 0.001,0.002c0.314,0.663 0.572,1.272 0.789,1.865c0.246,0.673 0.192,1.419 -0.149,2.049s-0.936,1.084 -1.633,1.246c-2.025,0.47 -4.186,0.907 -6.421,1.3c-0.148,0.026 -0.293,0.037 -0.436,0.037zm-4.382,-76.096c-2.208,5.016 -5.24,9.803 -7.718,13.717c-5.85,9.239 -10.905,19.053 -8.315,28.23c1.712,6.069 6.622,10.953 11.37,15.677c0.545,0.543 1.089,1.084 1.627,1.625c2.961,2.979 6.537,6.897 8.88,11.539c0.426,-0.082 0.848,-0.165 1.266,-0.249c-1.536,-2.909 -3.505,-5.603 -5.576,-8.434c-2.502,-3.423 -5.089,-6.961 -6.912,-10.993c-3.623,-8.01 -3.85,-17.293 -0.624,-25.47c2.08,-5.274 5.409,-9.753 8.628,-14.084l10.35,-13.926c-3.906,1.023 -8.362,1.95 -12.976,2.368z" id="svg_73"/>
  <path d="m167.892,293.531c-1.275,0 -2.348,-0.961 -2.485,-2.231c-0.526,-4.859 -1.602,-11.049 -5.286,-15.808c-1.272,-1.643 -2.825,-3.087 -4.469,-4.615c-1.253,-1.166 -2.549,-2.37 -3.749,-3.701c-7.756,-8.608 -10.055,-21.61 -5.72,-32.356c0.997,-2.471 2.296,-4.771 3.553,-6.997c1.76,-3.118 3.423,-6.062 4.187,-9.262c0.598,-2.506 0.638,-5.149 0.681,-7.949c0.034,-2.205 0.068,-4.484 0.39,-6.773c0.12,-0.854 0.293,-1.738 0.529,-2.707c0.221,-0.908 0.931,-1.617 1.839,-1.838c0.907,-0.217 1.864,0.084 2.477,0.79c1.457,1.679 3.089,3.172 4.852,4.439c2.469,1.774 5.228,3.17 8.199,4.146c1.27,0.417 1.986,1.76 1.627,3.047c-1.366,4.895 -3.991,9.582 -6.53,14.115c-3.889,6.943 -7.562,13.503 -6.912,20.474c0.403,4.323 2.463,8.326 4.645,12.563c0.864,1.678 1.756,3.413 2.544,5.179c3.785,8.483 5.173,17.912 4.014,27.267c-0.153,1.234 -1.191,2.169 -2.435,2.192c-0.646,0.012 -1.29,0.021 -1.933,0.025c-0.005,0 -0.011,0 -0.018,0zm1.906,-2.525l0.01,0l-0.01,0zm-10.085,-84.035c-0.071,1.207 -0.089,2.44 -0.109,3.717c-0.044,2.946 -0.091,5.993 -0.817,9.034c-0.928,3.884 -2.844,7.277 -4.697,10.559c-1.232,2.182 -2.396,4.242 -3.27,6.41c-3.636,9.013 -1.708,19.918 4.797,27.138c1.051,1.167 2.211,2.245 3.438,3.387c1.719,1.599 3.497,3.251 5.018,5.217c1.226,1.583 2.209,3.266 3.003,4.989c-0.633,-3.906 -1.764,-7.718 -3.378,-11.337c-0.731,-1.639 -1.591,-3.311 -2.423,-4.927c-2.303,-4.475 -4.685,-9.102 -5.178,-14.388c-0.794,-8.521 3.437,-16.076 7.528,-23.382c2.08,-3.715 4.064,-7.258 5.368,-10.826c-2.576,-1.047 -4.997,-2.381 -7.221,-3.979c-0.705,-0.509 -1.392,-1.046 -2.059,-1.612z" id="svg_74"/>
  <path d="m112.246,272.948c-0.821,0 -1.624,-0.404 -2.101,-1.143c-2.741,-4.239 -4.708,-8.95 -5.847,-14.003c-0.266,-1.18 0.351,-2.381 1.464,-2.853c3.082,-1.304 5.823,-4.58 8.379,-10.016c0.257,-0.546 0.512,-1.099 0.768,-1.653c2.22,-4.813 4.736,-10.27 9.662,-13.444c1.228,-0.791 2.515,-1.384 3.76,-1.956c1.876,-0.864 3.649,-1.68 4.717,-2.991c1.113,-1.367 1.583,-3.478 1.997,-5.34l3.877,-17.419c0.873,-3.918 1.861,-8.357 4.106,-12.244c1.516,-2.623 3.551,-4.79 5.887,-6.268c0.695,-0.439 1.562,-0.509 2.318,-0.186s1.306,0.997 1.468,1.804c0.088,0.433 0.168,0.833 0.265,1.229c0.021,0.087 0.038,0.175 0.05,0.262c0.061,0.308 0.564,2.712 2.011,5.856c0.345,0.749 0.298,1.619 -0.125,2.327c-3.944,6.601 -6.515,14.089 -7.434,21.657c-0.115,0.948 -0.208,1.906 -0.301,2.865c-0.388,4.003 -0.79,8.141 -2.745,11.951c-1.794,3.496 -4.576,6.079 -7.265,8.578c-1.532,1.423 -2.979,2.767 -4.225,4.246c-2.692,3.195 -4.468,7.047 -6.348,11.124c-1.176,2.55 -2.392,5.188 -3.864,7.688c-2.395,4.064 -5.661,7.464 -9.197,9.573c-0.399,0.242 -0.84,0.356 -1.277,0.356zm-2.605,-14.39c0.807,2.925 1.936,5.705 3.371,8.307c2.042,-1.652 3.913,-3.853 5.402,-6.38c1.345,-2.284 2.456,-4.693 3.632,-7.244c1.936,-4.199 3.938,-8.54 7.065,-12.252c1.443,-1.713 3.071,-3.226 4.645,-4.688c2.482,-2.307 4.827,-4.484 6.22,-7.198c1.519,-2.96 1.857,-6.453 2.216,-10.15c0.097,-1 0.194,-1.998 0.314,-2.986c0.951,-7.826 3.52,-15.573 7.447,-22.488c-0.44,-1.024 -0.857,-2.095 -1.181,-3.116c-0.52,0.623 -0.996,1.305 -1.414,2.027c-1.861,3.221 -2.722,7.089 -3.555,10.828l-3.877,17.419c-0.508,2.284 -1.141,5.127 -3,7.41c-1.8,2.212 -4.299,3.362 -6.504,4.377c-1.137,0.523 -2.211,1.018 -3.142,1.617c-3.703,2.387 -5.801,6.936 -7.83,11.335c-0.261,0.566 -0.521,1.131 -0.784,1.688c-1.745,3.708 -4.506,8.711 -9.025,11.494z" id="svg_75"/>
  <path d="m109.736,227.883c-0.588,0 -1.171,-0.207 -1.635,-0.608c-0.764,-0.66 -1.056,-1.714 -0.74,-2.673c1.613,-4.902 2.624,-9.709 3.004,-14.285c0.078,-0.942 0.681,-1.76 1.558,-2.112c1.353,-0.544 2.722,-1.061 4.09,-1.576c1.347,-0.508 2.693,-1.016 4.02,-1.55c7.389,-2.98 11.802,-6.394 13.886,-10.741c0.585,-1.22 2.033,-1.752 3.27,-1.203c1.236,0.549 1.811,1.981 1.298,3.232l-3.942,9.615c-1.359,3.316 -2.9,7.076 -5.549,10.136c-2.667,3.082 -6.198,5.158 -9.585,7.02c-2.719,1.494 -5.598,3.003 -8.557,4.482c-0.354,0.176 -0.737,0.263 -1.118,0.263zm5.462,-15.595c-0.297,2.69 -0.788,5.441 -1.469,8.231c1.114,-0.589 2.207,-1.178 3.274,-1.765c3.114,-1.711 6.085,-3.451 8.213,-5.909c1.627,-1.88 2.782,-4.217 3.809,-6.611c-2.455,1.491 -4.962,2.609 -7.121,3.48c-1.362,0.55 -2.743,1.07 -4.126,1.592c-0.861,0.325 -1.723,0.65 -2.58,0.982zm5.771,-4.892l0.01,0l-0.01,0z" id="svg_76"/>
  <path d="m122.406,306.641c-1.432,0 -2.881,-0.16 -4.343,-0.611c-1.696,-0.522 -3.136,-1.36 -4.529,-2.171l-0.781,-0.451c-2.146,-1.222 -4.513,-2.298 -7.033,-3.198c-1.157,-0.414 -1.842,-1.607 -1.616,-2.814c0.289,-1.545 0.742,-3.043 1.345,-4.455l2.448,-5.726c0.309,-0.723 0.938,-1.257 1.701,-1.445c0.761,-0.188 1.568,-0.007 2.177,0.49c3.682,3 7.79,5.3 12.208,6.835c0.496,0.172 0.998,0.337 1.5,0.502c1.818,0.597 3.698,1.214 5.469,2.211c0.848,0.478 1.342,1.404 1.266,2.375c-0.14,1.771 -0.304,3.603 -0.495,5.487c-0.118,1.163 -1.027,2.089 -2.188,2.229c-0.619,0.074 -1.238,0.162 -1.857,0.249c-1.727,0.244 -3.487,0.493 -5.272,0.493zm6.83,-3.225l0.01,0l-0.01,0zm-19.712,-7.106c2.01,0.816 3.92,1.738 5.702,2.752l0.823,0.476c1.202,0.699 2.338,1.36 3.488,1.715c2.205,0.679 4.73,0.327 7.403,-0.05c0.054,-0.579 0.105,-1.153 0.154,-1.721c-0.989,-0.419 -2.059,-0.771 -3.17,-1.136c-0.53,-0.174 -1.058,-0.348 -1.581,-0.529c-3.945,-1.37 -7.669,-3.281 -11.105,-5.696l-1.191,2.785c-0.195,0.455 -0.37,0.924 -0.523,1.404z" id="svg_77"/>
  <path d="m113,322.18c-0.938,0 -1.834,-0.532 -2.26,-1.431l-4.137,-8.737c-0.361,-0.762 -0.313,-1.654 0.126,-2.374c0.439,-0.719 1.211,-1.168 2.054,-1.195c1.123,-0.035 2.252,-0.112 3.382,-0.189c4.117,-0.281 8.375,-0.569 12.493,0.985c0.802,0.303 1.392,0.995 1.565,1.834s-0.096,1.708 -0.712,2.304c-2.461,2.376 -5.005,4.833 -8.052,6.772c-1.119,0.712 -2.292,1.329 -3.487,1.833c-0.317,0.133 -0.647,0.198 -0.972,0.198zm-0.289,-8.952l1.456,3.073c0.204,-0.119 0.407,-0.243 0.607,-0.37c1.305,-0.831 2.545,-1.813 3.744,-2.861c-1.85,-0.106 -3.798,0.021 -5.807,0.158z" id="svg_78"/>
  <path d="m213.774,318.637c-0.686,0 -1.345,-0.282 -1.82,-0.786c-0.525,-0.557 -0.766,-1.323 -0.653,-2.081l1.787,-12.049c0.16,-1.077 0.999,-1.927 2.074,-2.101c1.696,-0.273 3.408,-0.261 5.06,-0.252c1.829,0.011 3.56,0.024 5.092,-0.344c2.362,-0.565 4.492,-2.099 6.748,-3.723l0.481,-0.346c0.925,-0.664 2.181,-0.618 3.056,0.109c0.364,0.304 0.731,0.606 1.108,0.907c1.537,1.227 2.194,3.256 1.682,5.119l-0.381,2.573c-0.129,0.87 -0.707,1.608 -1.52,1.944c-1.938,0.799 -3.738,1.795 -5.351,2.959c-0.797,0.575 -1.568,1.197 -2.383,1.857c-1.58,1.276 -3.212,2.597 -5.133,3.626c-2.638,1.411 -5.697,2.229 -9.628,2.575c-0.074,0.01 -0.146,0.013 -0.219,0.013zm3.973,-12.248l-1.011,6.814c1.748,-0.353 3.224,-0.864 4.524,-1.56c1.504,-0.806 2.887,-1.924 4.35,-3.106c0.833,-0.673 1.693,-1.368 2.601,-2.023c1.555,-1.123 3.25,-2.111 5.054,-2.95l0.163,-1.097c-2.083,1.447 -4.298,2.785 -6.948,3.421c-2.123,0.508 -4.242,0.491 -6.291,0.48c-0.844,-0.005 -1.662,-0.012 -2.442,0.021zm17.788,-1.091l0.01,0l-0.01,0z" id="svg_79"/>
  <path d="m211.87,299.773c-0.604,0 -1.201,-0.219 -1.668,-0.638c-3.751,-3.36 -7,-6.98 -9.655,-10.76c-0.472,-0.672 -0.584,-1.532 -0.3,-2.303s0.928,-1.352 1.723,-1.557c6.284,-1.614 11.575,-3.645 15.724,-6.034c0.593,-0.342 1.3,-0.426 1.957,-0.231s1.205,0.649 1.517,1.259c1.424,2.782 3.16,5.497 5.162,8.07c0.456,0.586 0.628,1.345 0.469,2.07s-0.632,1.342 -1.291,1.685c-1.806,0.937 -3.525,2.223 -5.347,3.586c-1.95,1.459 -3.967,2.968 -6.225,4.129c-0.334,0.172 -0.674,0.335 -1.017,0.493c-0.336,0.156 -0.694,0.231 -1.049,0.231zm-5.07,-11.408c1.643,2.029 3.477,4.001 5.485,5.896c1.649,-0.927 3.224,-2.104 4.879,-3.344c1.146,-0.857 2.315,-1.731 3.538,-2.538c-0.997,-1.419 -1.922,-2.871 -2.769,-4.347c-3.23,1.633 -6.956,3.083 -11.133,4.333z" id="svg_80"/>
  <path d="m220.224,351l-20.154,0c-2.565,0 -4.673,-2.109 -4.699,-4.702c-0.116,-11.361 9.349,-16.405 13.423,-18.047c0.417,-0.167 0.727,-0.561 0.809,-1.025l0.496,-3.353c0.186,-1.259 1.29,-2.205 2.559,-2.132c1.022,0.035 1.911,-0.057 2.71,-0.277c0.745,-0.206 1.516,-0.553 2.332,-0.919c0.335,-0.15 0.671,-0.301 1.009,-0.444c4.639,-1.971 9.782,-2.675 14.877,-2.032c0.667,0.084 1.273,0.434 1.679,0.969c0.407,0.536 0.581,1.213 0.482,1.879l-1.055,7.113c-0.399,2.251 -1.843,4.041 -3.875,4.86c-3.841,1.547 -10.248,5.302 -10.292,13.128c1.239,0.148 2.2,1.203 2.2,2.482c-0.001,1.381 -1.121,2.5 -2.501,2.5zm-19.853,-5l15.153,0c0.051,-11.151 9.385,-16.122 13.424,-17.749c0.416,-0.167 0.726,-0.561 0.809,-1.025l0.649,-4.383c-3.367,-0.049 -6.688,0.563 -9.742,1.859c-0.307,0.131 -0.612,0.268 -0.917,0.404c-0.951,0.427 -1.934,0.868 -3.044,1.176c-0.631,0.175 -1.282,0.3 -1.961,0.376l-0.203,1.37c-0.399,2.252 -1.843,4.043 -3.875,4.861c-3.839,1.547 -10.239,5.297 -10.293,13.111z" id="svg_81"/>
  <path d="m149.67,328.452c-0.397,0 -0.794,-0.095 -1.155,-0.282c-3.286,-1.711 -6.038,-2.774 -8.66,-3.346c-0.412,-0.09 -0.827,-0.169 -1.242,-0.249c-1.686,-0.325 -3.597,-0.693 -5.353,-1.703c-1.098,-0.631 -1.551,-1.984 -1.053,-3.149c0.948,-2.218 3.003,-4.015 5.64,-4.928c2.131,-0.737 4.29,-0.842 6.319,-0.886c2.802,-0.065 5.686,-0.017 8.572,0.137c0.761,0.04 1.462,0.425 1.904,1.045s0.578,1.409 0.367,2.141c-0.974,3.395 -2.003,6.689 -2.975,9.53c-0.235,0.688 -0.76,1.241 -1.437,1.512c-0.297,0.119 -0.613,0.178 -0.927,0.178zm-10.42,-8.847c0.103,0.021 0.206,0.04 0.309,0.06c0.456,0.088 0.911,0.176 1.36,0.274c2.315,0.504 4.675,1.314 7.28,2.507c0.366,-1.134 0.735,-2.317 1.102,-3.53c-1.693,-0.042 -3.375,-0.044 -5.024,-0.009c-1.633,0.036 -3.348,0.112 -4.794,0.612c-0.079,0.028 -0.156,0.057 -0.233,0.086z" id="svg_82"/>
  <path d="m155.053,309.576c-4.592,0 -9.067,-0.119 -13.345,-1.499c-4.778,-1.54 -9.139,-4.523 -13.723,-9.389c-0.481,-0.511 -0.726,-1.201 -0.674,-1.9c0.2,-2.683 0.349,-5.302 0.442,-7.783c0.032,-0.85 0.493,-1.624 1.224,-2.058c0.732,-0.432 1.634,-0.464 2.393,-0.084c1.571,0.785 3.42,1.316 5.378,1.878c1.56,0.447 3.172,0.909 4.719,1.53c1.284,0.517 2.497,1.137 3.67,1.736c2.111,1.079 4.106,2.099 6.15,2.326c1.068,0.119 2.259,0.045 3.521,-0.033c0.84,-0.053 1.714,-0.117 2.585,-0.104c0.745,0.002 1.45,0.336 1.923,0.911c0.474,0.575 0.666,1.331 0.524,2.062c-0.66,3.417 -1.433,6.948 -2.298,10.497c-0.276,1.142 -1.311,1.918 -2.489,1.91zm-22.675,-13.533c3.698,3.763 7.171,6.085 10.865,7.276c3.058,0.985 6.325,1.204 9.902,1.247c0.412,-1.756 0.8,-3.502 1.161,-5.227c-1.163,0.065 -2.357,0.1 -3.571,-0.037c-2.953,-0.328 -5.454,-1.606 -7.873,-2.843c-1.124,-0.574 -2.185,-1.117 -3.258,-1.549c-1.308,-0.524 -2.729,-0.933 -4.234,-1.364c-0.921,-0.264 -1.856,-0.532 -2.783,-0.834c-0.061,1.095 -0.13,2.207 -0.209,3.331z" id="svg_83"/>
 </g>
</svg>